<svg xmlns="http://www.w3.org/2000/svg" viewBox="0 0 318.13 281.83"><defs><style>.cls-1{fill:#2d2d2d;}.cls-2{fill:#ff4c48;}.cls-3{fill:#fff;}.cls-4{fill:#e2e2e1;}.cls-5{fill:silver;}.cls-6{fill:#a0a09f;}.cls-7{opacity:0.25;}.cls-8{fill:#3b3d41;}.cls-9{fill:#f1644a;}.cls-10{fill:#e53333;}.cls-11{fill:#cc2525;}</style></defs><g id="Layer_2" data-name="Layer 2"><g id="Layer_1-2" data-name="Layer 1"><path class="cls-1" d="M288.19,215.08H30.7V59.39A15.68,15.68,0,0,1,46.37,43.72H272.52a15.68,15.68,0,0,1,15.67,15.67Z"/><rect class="cls-2" x="43.51" y="55.94" width="231.87" height="150.66"/><path class="cls-3" d="M318,278h0v0l-29.8-61.11c-.88-1.68-5-3-9.29-3H39.2c-4.26,0-8.42,1.35-9.3,3L.1,278v0h0a1.07,1.07,0,0,0-.09.43v2.19a1.16,1.16,0,0,0,1.16,1.17H317a1.17,1.17,0,0,0,1.17-1.17v-2.19A1.27,1.27,0,0,0,318,278Z"/><path class="cls-4" d="M318,275.31h0v0a0,0,0,0,1,0,0l-29.8-61.11c-.88-1.68-5-3-9.29-3H39.2c-4.26,0-8.42,1.35-9.3,3L.1,275.28a0,0,0,0,1,0,0v0h0a1.07,1.07,0,0,0-.09.43v2.19a1.17,1.17,0,0,0,1.16,1.17H317a1.17,1.17,0,0,0,1.17-1.17v-2.19A1.27,1.27,0,0,0,318,275.31Z"/><path class="cls-5" d="M284.42,255.28c.23.5-.81.9-2.29.9H36c-1.5,0-2.52-.4-2.31-.9l15.41-38.34c.22-.49,1.45-.9,2.75-.9h214.4c1.29,0,2.52.41,2.75.9Z"/><path class="cls-6" d="M266.27,216H51.87c-1.3,0-2.53.41-2.75.9l-.6,1.35c.22-.49,1.46-.9,2.77-.9H266.85c1.3,0,2.54.41,2.76.9l-.59-1.35C268.79,216.45,267.56,216,266.27,216Z"/><polygon class="cls-6" points="198.23 277.65 119.91 277.65 119.71 279.1 198.41 279.1 198.23 277.65"/><path class="cls-5" d="M197.94,273.55c.07.49-1.1.87-2.63.87H122.84c-1.54,0-2.72-.38-2.65-.87l2-13.61c.07-.48,1.28-.87,2.72-.87h68.22c1.43,0,2.64.39,2.71.87Z"/><path class="cls-6" d="M124.66,260.09h69a5.38,5.38,0,0,1,2.32.43l-.09-.58c-.07-.48-1.28-.87-2.71-.87H125c-1.44,0-2.65.39-2.72.87l-.11.71A4.7,4.7,0,0,1,124.66,260.09Z"/><path class="cls-6" d="M193.18,259.07H125c-1.44,0-2.65.39-2.72.87l-.12.74c.07-.48,1.3-.86,2.74-.86h68.43c1.43,0,2.64.38,2.71.86l-.11-.74C195.82,259.46,194.61,259.07,193.18,259.07Z"/><g class="cls-7"><path class="cls-3" d="M169.9,274.42h25.41c1.53,0,2.7-.38,2.63-.87l-2.05-13.61c-.07-.48-1.28-.87-2.71-.87H137.44Z"/></g><polygon class="cls-1" points="253.46 213.56 64.68 213.56 65.61 211.14 252.53 211.14 253.46 213.56"/><path class="cls-8" d="M70.78,234.26c-.08.24-.67.43-1.34.43H50.5c-.66,0-1.11-.19-1-.43l1.57-3.75c.11-.24.71-.43,1.36-.43H71c.65,0,1.11.19,1,.43Z"/><path class="cls-8" d="M72.3,240.72c-.07.23-.69.43-1.37.43H48.14c-.67,0-1.13-.2-1-.43L48.68,237c.09-.23.71-.43,1.38-.43H72.45c.68,0,1.15.2,1.07.43Z"/><path class="cls-8" d="M78.86,247.13c-.06.23-.68.42-1.39.42H45.77c-.68,0-1.15-.19-1.06-.42l1.57-3.76c.1-.23.73-.42,1.41-.42H78.85c.69,0,1.19.19,1.12.42Z"/><path class="cls-8" d="M271.07,240.72c.09.23-.38.43-1.06.43H245.69c-.67,0-1.29-.2-1.36-.43l-1.2-3.76c-.08-.23.41-.43,1.07-.43h23.9c.67,0,1.29.2,1.39.43Z"/><path class="cls-8" d="M273.4,247.13c.1.23-.38.42-1.08.42H238.87c-.69,0-1.3-.19-1.37-.42l-1.08-3.76c-.07-.23.43-.42,1.1-.42h32.89c.68,0,1.32.19,1.42.42Z"/><path class="cls-8" d="M228.83,253.59c0,.24-.47.42-1.18.42H216.41c-.72,0-1.32-.18-1.37-.42l-.75-3.76c-.06-.24.46-.43,1.16-.43h11.07c.7,0,1.31.19,1.36.43Z"/><path class="cls-8" d="M56.12,253.59c-.09.24-.74.42-1.45.42H43.42c-.71,0-1.2-.18-1.1-.42l1.58-3.76c.09-.24.74-.43,1.42-.43H56.41c.69,0,1.19.19,1.1.43Z"/><path class="cls-8" d="M73.55,253.59c-.07.24-.7.42-1.42.42H60.88c-.72,0-1.21-.18-1.14-.42l1.34-3.76c.09-.24.72-.43,1.43-.43H73.57c.7,0,1.21.19,1.13.43Z"/><path class="cls-8" d="M91.11,253.59c0,.24-.67.42-1.38.42H78.48c-.71,0-1.22-.18-1.16-.42l1.1-3.76c.07-.24.69-.43,1.39-.43H90.88c.69,0,1.21.19,1.15.43Z"/><path class="cls-8" d="M112.82,253.59c0,.24-.64.42-1.35.42H96.08c-.72,0-1.24-.18-1.19-.42l.86-3.76c.06-.24.67-.43,1.37-.43h15.13c.71,0,1.24.19,1.2.43Z"/><path class="cls-8" d="M189.56,253.56c0,.25-.56.45-1.31.45H117.87c-.74,0-1.31-.2-1.27-.45l.57-3.72c0-.24.66-.44,1.38-.44h69.22c.73,0,1.35.2,1.38.44Z"/><path class="cls-8" d="M211.26,253.59c0,.24-.49.42-1.2.42H194.65c-.7,0-1.3-.18-1.32-.42l-.47-3.76c0-.24.52-.43,1.2-.43h15.16c.69,0,1.29.19,1.33.43Z"/><path class="cls-8" d="M64.54,227.81c-.09.23-.69.42-1.33.42H52.87c-.65,0-1.09-.19-1-.42l1.58-3.75c.09-.25.69-.43,1.32-.43H64.93c.65,0,1.09.18,1,.43Z"/><path class="cls-8" d="M80.67,227.81c-.07.23-.66.42-1.31.42H69c-.65,0-1.1-.19-1-.42l1.34-3.75c.09-.25.66-.43,1.31-.43H80.8c.64,0,1.1.18,1,.43Z"/><path class="cls-8" d="M96.8,227.81c-.06.23-.64.42-1.27.42H85.19c-.65,0-1.13-.19-1.06-.42l1.11-3.75c.06-.25.65-.43,1.28-.43H96.66c.64,0,1.12.18,1.06.43Z"/><path class="cls-8" d="M112.94,227.81c0,.23-.61.42-1.27.42H101.34c-.65,0-1.13-.19-1.08-.42l.86-3.75c.06-.25.62-.43,1.26-.43h10.14c.65,0,1.13.18,1.09.43Z"/><path class="cls-8" d="M129.07,227.81c0,.23-.58.42-1.23.42H117.5c-.65,0-1.15-.19-1.12-.42l.63-3.75c0-.25.59-.43,1.24-.43H128.4c.64,0,1.13.18,1.11.43Z"/><path class="cls-8" d="M145.18,227.81c0,.23-.53.42-1.19.42H133.65c-.64,0-1.16-.19-1.13-.42l.38-3.75c0-.25.58-.43,1.21-.43h10.15c.64,0,1.14.18,1.13.43Z"/><path class="cls-8" d="M161.32,227.81c0,.23-.52.42-1.18.42H149.81c-.65,0-1.18-.19-1.16-.42l.15-3.75c0-.25.53-.43,1.18-.43h10.15c.64,0,1.15.18,1.15.43Z"/><path class="cls-8" d="M177.45,227.81c0,.23-.5.42-1.15.42H166c-.65,0-1.18-.19-1.18-.42l-.09-3.75c0-.25.51-.43,1.15-.43H176c.64,0,1.17.18,1.19.43Z"/><path class="cls-8" d="M193.58,227.81c0,.23-.48.42-1.12.42H182.12c-.65,0-1.19-.19-1.21-.42l-.32-3.75c0-.25.48-.43,1.12-.43h10.15c.63,0,1.17.18,1.21.43Z"/><path class="cls-8" d="M209.71,227.81c0,.23-.45.42-1.1.42H198.28c-.65,0-1.21-.19-1.25-.42l-.56-3.75c0-.25.46-.43,1.11-.43h10.14c.64,0,1.2.18,1.25.43Z"/><path class="cls-8" d="M225.84,227.81c.07.23-.42.42-1.07.42H214.43c-.64,0-1.2-.19-1.25-.42l-.8-3.75c0-.25.42-.43,1.05-.43h10.16c.64,0,1.2.18,1.27.43Z"/><path class="cls-8" d="M242,227.81c.08.23-.38.42-1,.42H230.59c-.65,0-1.22-.19-1.28-.42l-1-3.75c-.06-.25.4-.43,1-.43h10.15c.63,0,1.21.18,1.28.43Z"/><path class="cls-8" d="M266.24,227.81c.1.23-.36.42-1,.42H246.11c-.65,0-1.24-.19-1.32-.42l-1.26-3.75c-.08-.25.37-.43,1-.43h18.77c.64,0,1.24.18,1.34.43Z"/><path class="cls-8" d="M244.55,253.51c.08.25-.47.45-1.21.45h-9.49c-.73,0-1.39-.2-1.45-.45l-.48-1.83c-.07-.25.47-.44,1.21-.44h9.39c.73,0,1.38.19,1.46.44Z"/><path class="cls-8" d="M258.46,249.4H247c-.73,0-1.26.2-1.18.44l.58,1.84.49,1.57.09.26c.07.25.74.45,1.49.45h11.67c.74,0,1.27-.2,1.17-.45l-.09-.26-.58-1.57-.67-1.84C259.86,249.6,259.19,249.4,258.46,249.4Z"/><path class="cls-8" d="M275.81,253.51c.11.25-.4.45-1.15.45h-9.48c-.75,0-1.41-.2-1.52-.45l-.68-1.83c-.09-.25.43-.44,1.16-.44h9.39c.74,0,1.41.19,1.52.44Z"/><path class="cls-8" d="M56.12,253.59c-.09.24-.74.42-1.45.42H43.42c-.71,0-1.2-.18-1.1-.42l1.58-3.76c.09-.24.74-.43,1.42-.43H56.41c.69,0,1.19.19,1.1.43Z"/><path class="cls-8" d="M96.07,247.13c-.07.23-.66.42-1.35.42h-11c-.69,0-1.2-.19-1.14-.42l1.07-3.76c0-.23.66-.42,1.34-.42H95.8c.68,0,1.19.19,1.13.42Z"/><path class="cls-8" d="M113.28,247.13c0,.23-.64.42-1.33.42h-11c-.69,0-1.21-.19-1.16-.42l.81-3.76c.05-.23.65-.42,1.34-.42h10.84c.67,0,1.2.19,1.16.42Z"/><path class="cls-8" d="M130.49,247.13c0,.23-.61.42-1.32.42h-11c-.69,0-1.23-.19-1.19-.42l.58-3.76c0-.23.62-.42,1.3-.42h10.83c.69,0,1.22.19,1.19.42Z"/><path class="cls-8" d="M147.7,247.13c0,.23-.59.42-1.28.42h-11c-.71,0-1.24-.19-1.22-.42l.34-3.76c0-.23.58-.42,1.28-.42h10.84c.67,0,1.22.19,1.21.42Z"/><path class="cls-8" d="M164.9,247.13c0,.23-.55.42-1.25.42h-11c-.69,0-1.25-.19-1.24-.42l.1-3.76c0-.23.57-.42,1.25-.42h10.84c.69,0,1.24.19,1.24.42Z"/><path class="cls-8" d="M182.12,247.13c0,.23-.54.42-1.24.42h-11c-.7,0-1.26-.19-1.28-.42l-.13-3.76c0-.23.54-.42,1.22-.42h10.83c.69,0,1.26.19,1.29.42Z"/><path class="cls-8" d="M199.32,247.13c0,.23-.51.42-1.2.42h-11c-.69,0-1.28-.19-1.3-.42l-.36-3.76c0-.23.5-.42,1.19-.42h10.83c.68,0,1.27.19,1.31.42Z"/><path class="cls-8" d="M216.53,247.13c.05.23-.48.42-1.18.42h-11c-.69,0-1.29-.19-1.33-.42l-.6-3.76c0-.23.49-.42,1.17-.42h10.84c.68,0,1.28.19,1.33.42Z"/><path class="cls-8" d="M233.73,247.13c.06.23-.44.42-1.14.42h-11c-.7,0-1.31-.19-1.35-.42l-.85-3.76c-.06-.23.46-.42,1.14-.42h10.84c.68,0,1.3.19,1.36.42Z"/><path class="cls-8" d="M67.24,221.32c-.1.25-.74.46-1.42.46H55.33c-.69,0-1.16-.21-1-.46L55,219.6c.1-.26.73-.47,1.42-.47H66.8c.69,0,1.16.21,1.07.47Z"/><path class="cls-8" d="M85.11,221.32c-.08.25-.7.46-1.39.46H73.24c-.7,0-1.18-.21-1.09-.46l.6-1.72c.09-.26.71-.47,1.39-.47H84.51c.7,0,1.18.21,1.1.47Z"/><path class="cls-8" d="M103,221.32c0,.25-.66.46-1.34.46H91.14c-.69,0-1.19-.21-1.12-.46l.48-1.72c.07-.26.67-.47,1.36-.47h10.38c.68,0,1.18.21,1.12.47Z"/><path class="cls-8" d="M120.85,221.32c0,.25-.63.46-1.32.46H109c-.68,0-1.2-.21-1.14-.46l.35-1.72c.05-.26.66-.47,1.33-.47H120c.68,0,1.2.21,1.16.47Z"/><path class="cls-8" d="M138.72,221.32c0,.25-.59.46-1.28.46H127c-.7,0-1.22-.21-1.18-.46l.22-1.72c0-.26.61-.47,1.3-.47h10.38c.67,0,1.22.21,1.19.47Z"/><path class="cls-8" d="M156.59,221.32c0,.25-.56.46-1.26.46H144.85c-.68,0-1.23-.21-1.21-.46l.11-1.72c0-.26.57-.47,1.26-.47h10.36c.7,0,1.24.21,1.23.47Z"/><path class="cls-8" d="M174.47,221.32c0,.25-.53.46-1.21.46h-10.5c-.68,0-1.25-.21-1.25-.46V219.6c0-.26.54-.47,1.22-.47h10.39c.67,0,1.24.21,1.25.47Z"/><path class="cls-8" d="M192.34,221.32c0,.25-.49.46-1.19.46H180.67c-.68,0-1.26-.21-1.28-.46l-.14-1.72c0-.26.51-.47,1.18-.47h10.39c.68,0,1.27.21,1.3.47Z"/><path class="cls-8" d="M210.22,221.32c.05.25-.47.46-1.16.46H198.58c-.7,0-1.29-.21-1.33-.46L197,219.6c0-.26.48-.47,1.17-.47h10.38c.68,0,1.27.21,1.33.47Z"/><path class="cls-8" d="M228.09,221.32c.07.25-.44.46-1.12.46H216.49c-.7,0-1.3-.21-1.35-.46l-.4-1.72c-.05-.26.45-.47,1.13-.47h10.38c.68,0,1.29.21,1.36.47Z"/><path class="cls-8" d="M246,221.32c.09.25-.39.46-1.08.46H234.39c-.69,0-1.32-.21-1.38-.46l-.51-1.72c-.08-.26.41-.47,1.09-.47H244c.69,0,1.31.21,1.4.47Z"/><path class="cls-8" d="M263.84,221.32c.1.25-.38.46-1.06.46H252.29c-.69,0-1.32-.21-1.42-.46l-.63-1.72c-.08-.26.38-.47,1.07-.47h10.38c.68,0,1.32.21,1.43.47Z"/><path class="cls-8" d="M87.24,234.26c-.06.24-.66.43-1.32.43H75.36c-.67,0-1.15-.19-1.07-.43l1.22-3.75c.08-.24.67-.43,1.33-.43H87.22c.64,0,1.12.19,1,.43Z"/><path class="cls-8" d="M103.74,234.26c0,.24-.64.43-1.3.43H91.87c-.67,0-1.15-.19-1.08-.43l1-3.75c0-.24.63-.43,1.29-.43h10.38c.66,0,1.15.19,1.1.43Z"/><path class="cls-8" d="M120.22,234.26c0,.24-.6.43-1.26.43H108.39c-.67,0-1.17-.19-1.12-.43l.74-3.75c0-.24.61-.43,1.27-.43h10.38c.65,0,1.16.19,1.12.43Z"/><path class="cls-8" d="M136.71,234.26c0,.24-.58.43-1.24.43H124.91c-.67,0-1.18-.19-1.15-.43l.51-3.75c0-.24.58-.43,1.24-.43h10.38c.64,0,1.16.19,1.14.43Z"/><path class="cls-8" d="M153.2,234.26c0,.24-.55.43-1.22.43H141.42c-.65,0-1.19-.19-1.18-.43l.28-3.75c0-.24.56-.43,1.21-.43h10.38c.66,0,1.18.19,1.18.43Z"/><path class="cls-8" d="M169.69,234.26c0,.24-.52.43-1.19.43H157.94c-.67,0-1.21-.19-1.21-.43l0-3.75c0-.24.55-.43,1.2-.43h10.37c.66,0,1.19.19,1.2.43Z"/><path class="cls-8" d="M186.18,234.26c0,.24-.5.43-1.16.43H174.45c-.65,0-1.22-.19-1.22-.43l-.21-3.75c0-.24.5-.43,1.16-.43h10.37c.66,0,1.21.19,1.24.43Z"/><path class="cls-8" d="M202.67,234.26c0,.24-.47.43-1.15.43H191c-.67,0-1.23-.19-1.26-.43l-.44-3.75c0-.24.48-.43,1.14-.43h10.36c.67,0,1.23.19,1.27.43Z"/><path class="cls-8" d="M219.15,234.26c.06.24-.44.43-1.1.43H207.49c-.68,0-1.25-.19-1.29-.43l-.68-3.75c0-.24.45-.43,1.11-.43H217c.64,0,1.22.19,1.27.43Z"/><path class="cls-8" d="M235.65,234.26c0,.24-.41.43-1.09.43H224c-.67,0-1.25-.19-1.31-.43l-.91-3.75c-.06-.24.42-.43,1.08-.43h10.37c.67,0,1.24.19,1.31.43Z"/><path class="cls-8" d="M252.14,234.26c.08.24-.4.43-1.06.43H240.52c-.67,0-1.26-.19-1.34-.43L238,230.51c-.08-.24.39-.43,1.05-.43h10.37c.65,0,1.25.19,1.34.43Z"/><path class="cls-8" d="M268.63,234.26c.1.24-.37.43-1,.43H257c-.67,0-1.28-.19-1.37-.43l-1.38-3.75c-.09-.24.38-.43,1-.43h10.38c.65,0,1.27.19,1.36.43Z"/><path class="cls-8" d="M89.12,240.72c-.06.23-.66.43-1.35.43H77c-.68,0-1.17-.2-1.1-.43L77.05,237c.07-.23.68-.43,1.35-.43H89c.67,0,1.17.2,1.11.43Z"/><path class="cls-8" d="M106,240.72c0,.23-.63.43-1.32.43H93.86c-.69,0-1.19-.2-1.13-.43l.93-3.76c.06-.23.66-.43,1.32-.43h10.61c.68,0,1.17.2,1.12.43Z"/><path class="cls-8" d="M122.82,240.72c0,.23-.62.43-1.29.43h-10.8c-.68,0-1.19-.2-1.15-.43l.7-3.76c0-.23.62-.43,1.28-.43h10.61c.67,0,1.19.2,1.16.43Z"/><path class="cls-8" d="M139.67,240.72c0,.23-.59.43-1.27.43H127.6c-.68,0-1.2-.2-1.18-.43l.46-3.76c0-.23.59-.43,1.27-.43h10.61c.67,0,1.2.2,1.18.43Z"/><path class="cls-8" d="M156.51,240.72c0,.23-.56.43-1.24.43H144.48c-.68,0-1.22-.2-1.21-.43l.23-3.76c0-.23.56-.43,1.23-.43h10.6c.67,0,1.22.2,1.22.43Z"/><path class="cls-8" d="M173.36,240.72c0,.23-.53.43-1.21.43H161.36c-.68,0-1.23-.2-1.23-.43l0-3.76c0-.23.53-.43,1.2-.43h10.62c.67,0,1.22.2,1.22.43Z"/><path class="cls-8" d="M190.21,240.72c0,.23-.5.43-1.18.43H178.24c-.69,0-1.27-.2-1.27-.43l-.26-3.76c0-.23.53-.43,1.19-.43h10.6c.68,0,1.24.2,1.27.43Z"/><path class="cls-8" d="M207.06,240.72c0,.23-.48.43-1.15.43h-10.8c-.69,0-1.26-.2-1.29-.43l-.48-3.76c0-.23.48-.43,1.15-.43H205.1c.66,0,1.23.2,1.27.43Z"/><path class="cls-8" d="M223.9,240.72c.06.23-.44.43-1.12.43H212c-.68,0-1.26-.2-1.3-.43L210,237c0-.23.45-.43,1.12-.43h10.61c.66,0,1.25.2,1.31.43Z"/><path class="cls-8" d="M240.75,240.72c.07.23-.41.43-1.1.43H228.86c-.69,0-1.29-.2-1.35-.43l-1-3.76c-.06-.23.43-.43,1.1-.43h10.61c.67,0,1.27.2,1.34.43Z"/><path class="cls-9" d="M161.94,49.87a2.49,2.49,0,1,1-2.5-2.49A2.49,2.49,0,0,1,161.94,49.87Z"/><rect class="cls-1" x="40.59" y="206.6" width="239.69" height="4.53"/><polygon class="cls-10" points="99.63 206.6 275.38 206.6 275.38 95.11 236.21 55.94 179.25 55.94 179.25 55.94 43.51 55.94 43.51 150.48 99.63 206.6"/><path class="cls-11" d="M43.51,55.94v94.53H147l39.31,47.14V150.47h40.87a9.76,9.76,0,0,0,1.73-.17A10.22,10.22,0,0,0,230,150c.14-.06.31-.08.44-.15a10.33,10.33,0,0,0,1.41-.71,0,0,0,0,1,0,0,9,9,0,0,0,4.31-7.66V55.94Z"/><path class="cls-3" d="M232,8.61a9,9,0,0,0-3-6.23A8.9,8.9,0,0,0,223,0H20a9.05,9.05,0,0,0-5.92,2.27l0,0-.09.07h0a9.49,9.49,0,0,0-2.2,3,1.11,1.11,0,0,1-.1.29,9.66,9.66,0,0,0-.5,1.49A9.44,9.44,0,0,0,11,8.61l-.06,0V136.41A9,9,0,0,0,14,143.06l0,0a1.24,1.24,0,0,0,.23.17l.08.08h0A8.92,8.92,0,0,0,20,145.45H142.79l39.31,47.14V145.45H223a9.87,9.87,0,0,0,1.74-.17c.4-.09.77-.21,1.14-.33.15-.06.32-.08.45-.15a10.82,10.82,0,0,0,1.4-.71l0,0a9,9,0,0,0,4.3-7.66V8.59Z"/><circle class="cls-2" cx="116.97" cy="72.73" r="51.68" transform="translate(2.96 150.01) rotate(-66)"/><path class="cls-3" d="M123.89,105.55h0a6.92,6.92,0,0,1-6.92,6.92h0a6.92,6.92,0,0,1-6.93-6.92h0A6.93,6.93,0,0,1,117,98.62h0A6.92,6.92,0,0,1,123.89,105.55Z"/><path class="cls-3" d="M117,33h0c-4.49,0-8,2.78-7.86,6q.89,22.64,1.78,45.28A6.06,6.06,0,0,0,117,90h0a6.06,6.06,0,0,0,6.08-5.73q.89-22.64,1.78-45.28C125,35.76,121.46,33,117,33Z"/></g></g></svg>
