<?xml version="1.0" encoding="UTF-8"?>
<svg id="Layer_1" data-name="Layer 1" xmlns="http://www.w3.org/2000/svg" viewBox="0 0 50 50">
  <defs>
    <style>
      .cls-1 {
        fill: none;
      }

      .cls-1, .cls-2 {
        stroke-width: 0px;
      }

      .cls-2 {
        fill: #004efb;
      }
  </style>
  </defs>
  <path class="cls-1" d="M0,50V0h50v50H0Z"/>
  <g id="original-icon">
    <g id="surface1">
      <path class="cls-2" d="M1.72,2.78c-.46.11-.79.52-.78,1v35.69c0,4.25,2.21,6.64,4.37,7.72s4.31,1.03,4.31,1.03h30.75v-.09c.48.05,1,.09,1,.09,0,0,1.92.01,3.84-1.09,1.87-1.08,3.72-3.36,3.81-7.31.01-.02.02-.04.03-.06v-.06c0-.05,0-.11,0-.16V14.41s.02-1.17-.59-2.37-2.03-2.5-4.25-2.5v-.03h-9.47v2h5.56c-.12.17-.22.33-.31.5-.61,1.19-.62,2.38-.62,2.38v24.25c0,.36.18.7.5.88.31.18.7.18,1.01,0,.31-.18.5-.52.5-.88V14.38s.04-.75.41-1.47c.37-.73.9-1.37,2.44-1.37s2.06.66,2.44,1.41c.37.73.44,1.47.44,1.5h-.03v25.09c0,3.56-1.42,5.06-2.84,5.87-1.42.82-2.84.81-2.84.81,0,0-1.69-.02-3.38-.87-1.68-.85-3.31-2.35-3.31-5.87V3.78c0-.55-.45-1-1-1H1.94c-.07,0-.14,0-.22,0ZM2.94,4.78h29.75v34.69c0,3.29,1.39,5.44,3.03,6.75H9.59s-.43,0-1.06-.09c-.32-.05-.67-.13-1.06-.25-.39-.12-.83-.26-1.25-.47-.21-.11-.42-.21-.62-.34-1.43-.9-2.66-2.45-2.66-5.59V4.78ZM6.94,11c-.55.08-.94.59-.86,1.14.08.55.59.94,1.14.86h19.72c.36,0,.7-.18.88-.5.18-.31.18-.7,0-1.01-.18-.31-.52-.5-.88-.5H7.03s-.06,0-.09,0ZM6.94,15c-.55.08-.94.59-.86,1.14.08.55.59.94,1.14.86h19.72c.36,0,.7-.18.88-.5.18-.31.18-.7,0-1.01-.18-.31-.52-.5-.88-.5H7.03s-.06,0-.09,0ZM7.41,23c-.55.08-.94.59-.86,1.14.08.55.59.94,1.14.86h6.78c.36,0,.7-.18.88-.5.18-.31.18-.7,0-1.01-.18-.31-.52-.5-.88-.5h-6.97s-.06,0-.09,0ZM18.94,23c-.55.08-.94.59-.86,1.14s.59.94,1.14.86h7.72c.36,0,.7-.18.88-.5.18-.31.18-.7,0-1.01-.18-.31-.52-.5-.88-.5h-7.91s-.06,0-.09,0ZM7.41,27c-.55.08-.94.59-.86,1.14.08.55.59.94,1.14.86h6.78c.36,0,.7-.18.88-.5.18-.31.18-.7,0-1.01-.18-.31-.52-.5-.88-.5h-6.97s-.06,0-.09,0ZM18.94,27c-.55.08-.94.59-.86,1.14s.59.94,1.14.86h7.72c.36,0,.7-.18.88-.5.18-.31.18-.7,0-1.01-.18-.31-.52-.5-.88-.5h-7.91s-.06,0-.09,0ZM18.94,30.78c-.55.08-.94.59-.86,1.14s.59.94,1.14.86h7.72c.36,0,.7-.18.88-.5.18-.31.18-.7,0-1.01-.18-.31-.52-.5-.88-.5h-7.72c-.06,0-.13,0-.19,0-.03,0-.06,0-.09,0ZM7.41,31c-.55.08-.94.59-.86,1.14.08.55.59.94,1.14.86h6.78c.36,0,.7-.18.88-.5.18-.31.18-.7,0-1.01-.18-.31-.52-.5-.88-.5h-6.97s-.06,0-.09,0ZM18.94,34.78c-.55.08-.94.59-.86,1.14s.59.94,1.14.86h7.72c.36,0,.7-.18.88-.5.18-.31.18-.7,0-1.01-.18-.31-.52-.5-.88-.5h-7.72c-.06,0-.13,0-.19,0-.03,0-.06,0-.09,0ZM7.41,35c-.55.08-.94.59-.86,1.14.08.55.59.94,1.14.86h6.78c.36,0,.7-.18.88-.5.18-.31.18-.7,0-1.01-.18-.31-.52-.5-.88-.5h-6.97s-.06,0-.09,0ZM18.94,38.53c-.55.08-.94.59-.86,1.14.08.55.59.94,1.14.86h7.72c.36,0,.7-.18.88-.5.18-.31.18-.7,0-1.01-.18-.31-.52-.5-.88-.5h-7.91s-.06,0-.09,0ZM7.41,39c-.55.08-.94.59-.86,1.14.08.55.59.94,1.14.86h6.78c.36,0,.7-.18.88-.5.18-.31.18-.7,0-1.01-.18-.31-.52-.5-.88-.5h-6.97s-.06,0-.09,0Z"/>
    </g>
  </g>
</svg>