<?xml version="1.0" encoding="utf-8"?>
<!-- Generator: Adobe Illustrator 23.0.6, SVG Export Plug-In . SVG Version: 6.00 Build 0)  -->
<svg version="1.1" id="Слой_1" xmlns="http://www.w3.org/2000/svg" xmlns:xlink="http://www.w3.org/1999/xlink" x="0px" y="0px"
	 viewBox="0 0 2864.3 1007.6" style="enable-background:new 0 0 2864.3 1007.6;" xml:space="preserve">
<style type="text/css">
	.st0{clip-path:url(#SVGID_3_);}
	.st1{clip-path:url(#SVGID_4_);fill:url(#SVGID_5_);}
	.st2{fill:url(#SVGID_6_);}
	.st3{clip-path:url(#SVGID_9_);}
	.st4{clip-path:url(#SVGID_10_);fill:url(#SVGID_11_);}
	.st5{fill:url(#SVGID_12_);}
	.st6{clip-path:url(#SVGID_15_);}
	.st7{clip-path:url(#SVGID_16_);fill:url(#SVGID_17_);}
	.st8{fill:url(#SVGID_18_);}
	.st9{clip-path:url(#SVGID_21_);}
	.st10{clip-path:url(#SVGID_22_);fill:url(#SVGID_23_);}
	.st11{fill:url(#SVGID_24_);}
	.st12{clip-path:url(#SVGID_27_);}
	.st13{clip-path:url(#SVGID_28_);fill:url(#SVGID_29_);}
	.st14{fill:url(#SVGID_30_);}
	.st15{clip-path:url(#SVGID_33_);}
	.st16{clip-path:url(#SVGID_34_);fill:url(#SVGID_35_);}
	.st17{fill:url(#SVGID_36_);}
	.st18{fill:#EAEAEA;}
</style>
<g>
	<g>
		<g>
			<g>
				<defs>
					<polygon id="SVGID_1_" points="1,1 2,1 1,2 					"/>
				</defs>
				<defs>
					<polygon id="SVGID_2_" points="-1,-1 -2,-1 -1,-2 					"/>
				</defs>
				<clipPath id="SVGID_3_">
					<use xlink:href="#SVGID_1_"  style="overflow:visible;"/>
				</clipPath>
				<clipPath id="SVGID_4_" class="st0">
					<use xlink:href="#SVGID_2_"  style="overflow:visible;"/>
				</clipPath>
				
					<linearGradient id="SVGID_5_" gradientUnits="userSpaceOnUse" x1="1396.6001" y1="695.6232" x2="1396.6001" y2="467.1477" gradientTransform="matrix(1 0 0 -1 0 1010)">
					<stop  offset="0" style="stop-color:#FFFFFF"/>
					<stop  offset="1" style="stop-color:#000000"/>
				</linearGradient>
				<polygon class="st1" points="2217.6,356.7 2217.6,1013.2 575.6,1013.2 575.6,509.6 575.6,509.6 575.6,378.6 628.7,378.6 
					628.7,445.3 696.4,445.3 723.1,476.5 750.3,476.5 750.3,315.1 812.8,315.1 812.8,356.7 865.8,356.7 865.8,436.9 937,436.9 
					937,336.2 993.2,336.2 993.2,378.6 1022.5,378.6 1047.8,349.1 1076.6,349.1 1076.6,251.5 1157,251.5 1157,396.4 1239.3,396.4 
					1239.3,431.4 1271.2,431.4 1271.2,378.6 1392.8,378.6 1392.8,436.9 1439.3,436.9 1439.3,356.7 1510.2,356.7 1510.2,476.5 
					1514.3,476.5 1514.3,315.1 1576.8,315.1 1576.8,356.7 1629.8,356.7 1629.8,436.9 1701,436.9 1701,336.2 1757.2,336.2 
					1757.2,378.6 1786.5,378.6 1811.8,349.1 1840.6,349.1 1840.6,251.5 1921,251.5 1921,396.4 2003.4,396.4 2003.4,431.4 
					2035.3,431.4 2035.3,378.6 2099.3,378.6 2099.3,436.9 2203.3,436.9 2203.3,356.7 				"/>
			</g>
		</g>
		
			<linearGradient id="SVGID_6_" gradientUnits="userSpaceOnUse" x1="1396.6001" y1="695.6232" x2="1396.6001" y2="467.1477" gradientTransform="matrix(1 0 0 -1 0 1010)">
			<stop  offset="0" style="stop-color:#EDEDED"/>
			<stop  offset="1" style="stop-color:#FFFFFF"/>
		</linearGradient>
		<polygon class="st2" points="2217.6,356.7 2217.6,1013.2 575.6,1013.2 575.6,509.6 575.6,509.6 575.6,378.6 628.7,378.6 
			628.7,445.3 696.4,445.3 723.1,476.5 750.3,476.5 750.3,315.1 812.8,315.1 812.8,356.7 865.8,356.7 865.8,436.9 937,436.9 
			937,336.2 993.2,336.2 993.2,378.6 1022.5,378.6 1047.8,349.1 1076.6,349.1 1076.6,251.5 1157,251.5 1157,396.4 1239.3,396.4 
			1239.3,431.4 1271.2,431.4 1271.2,378.6 1392.8,378.6 1392.8,436.9 1439.3,436.9 1439.3,356.7 1510.2,356.7 1510.2,476.5 
			1514.3,476.5 1514.3,315.1 1576.8,315.1 1576.8,356.7 1629.8,356.7 1629.8,436.9 1701,436.9 1701,336.2 1757.2,336.2 
			1757.2,378.6 1786.5,378.6 1811.8,349.1 1840.6,349.1 1840.6,251.5 1921,251.5 1921,396.4 2003.4,396.4 2003.4,431.4 
			2035.3,431.4 2035.3,378.6 2099.3,378.6 2099.3,436.9 2203.3,436.9 2203.3,356.7 		"/>
		<g>
			<g>
				<defs>
					<polygon id="SVGID_7_" points="1,1 2,1 1,2 					"/>
				</defs>
				<defs>
					<polygon id="SVGID_8_" points="-1,-1 -2,-1 -1,-2 					"/>
				</defs>
				<clipPath id="SVGID_9_">
					<use xlink:href="#SVGID_7_"  style="overflow:visible;"/>
				</clipPath>
				<clipPath id="SVGID_10_" class="st3">
					<use xlink:href="#SVGID_8_"  style="overflow:visible;"/>
				</clipPath>
				
					<linearGradient id="SVGID_11_" gradientUnits="userSpaceOnUse" x1="1396.6001" y1="597.6724" x2="1396.6001" y2="406.5873" gradientTransform="matrix(1 0 0 -1 0 1010)">
					<stop  offset="0" style="stop-color:#FFFFFF"/>
					<stop  offset="1" style="stop-color:#000000"/>
				</linearGradient>
				<polygon class="st4" points="575.6,781.5 575.6,453.1 637.5,453.1 637.5,513.1 708.5,513.1 730.2,534.8 966,534.8 1002.7,498.1 
					1076.7,498.1 1076.7,436.5 1141.5,436.5 1141.5,519.6 1260.7,519.6 1306.7,473.6 1454.2,473.6 1454.2,551.1 1519.7,551.1 
					1551.6,519.2 1632.3,519.2 1655.1,542 1755,542 1755,456.2 1826,456.2 1826,484.5 1882.3,484.5 1882.3,424.5 1934,424.5 
					1934,515.2 2078.9,515.2 2092.4,528.8 2217.6,528.8 2217.6,781.5 				"/>
			</g>
		</g>
		
			<linearGradient id="SVGID_12_" gradientUnits="userSpaceOnUse" x1="1396.6001" y1="597.6724" x2="1396.6001" y2="406.5873" gradientTransform="matrix(1 0 0 -1 0 1010)">
			<stop  offset="0" style="stop-color:#D4D4D4"/>
			<stop  offset="1" style="stop-color:#FFFFFF"/>
		</linearGradient>
		<polygon class="st5" points="575.6,781.5 575.6,453.1 637.5,453.1 637.5,513.1 708.5,513.1 730.2,534.8 966,534.8 1002.7,498.1 
			1076.7,498.1 1076.7,436.5 1141.5,436.5 1141.5,519.6 1260.7,519.6 1306.7,473.6 1454.2,473.6 1454.2,551.1 1519.7,551.1 
			1551.6,519.2 1632.3,519.2 1655.1,542 1755,542 1755,456.2 1826,456.2 1826,484.5 1882.3,484.5 1882.3,424.5 1934,424.5 
			1934,515.2 2078.9,515.2 2092.4,528.8 2217.6,528.8 2217.6,781.5 		"/>
	</g>
	<g>
		<g>
			<g>
				<defs>
					<polygon id="SVGID_13_" points="1,1 2,1 1,2 					"/>
				</defs>
				<defs>
					<polygon id="SVGID_14_" points="-1,-1 -2,-1 -1,-2 					"/>
				</defs>
				<clipPath id="SVGID_15_">
					<use xlink:href="#SVGID_13_"  style="overflow:visible;"/>
				</clipPath>
				<clipPath id="SVGID_16_" class="st6">
					<use xlink:href="#SVGID_14_"  style="overflow:visible;"/>
				</clipPath>
				
					<linearGradient id="SVGID_17_" gradientUnits="userSpaceOnUse" x1="-4.4" y1="695.6232" x2="-4.4" y2="467.1477" gradientTransform="matrix(1 0 0 -1 0 1010)">
					<stop  offset="0" style="stop-color:#FFFFFF"/>
					<stop  offset="1" style="stop-color:#000000"/>
				</linearGradient>
				<polygon class="st7" points="816.6,356.7 816.6,1013.2 -825.4,1013.2 -825.4,509.6 -825.4,509.6 -825.4,378.6 -772.3,378.6 
					-772.3,445.3 -704.6,445.3 -677.9,476.5 -650.7,476.5 -650.7,315.1 -588.2,315.1 -588.2,356.7 -535.2,356.7 -535.2,436.9 
					-464,436.9 -464,336.2 -407.8,336.2 -407.8,378.6 -378.5,378.6 -353.2,349.1 -324.4,349.1 -324.4,251.5 -244,251.5 -244,396.4 
					-161.7,396.4 -161.7,431.4 -129.8,431.4 -129.8,378.6 -8.2,378.6 -8.2,436.9 38.3,436.9 38.3,356.7 109.2,356.7 109.2,476.5 
					113.3,476.5 113.3,315.1 175.8,315.1 175.8,356.7 228.8,356.7 228.8,436.9 300,436.9 300,336.2 356.2,336.2 356.2,378.6 
					385.5,378.6 410.8,349.1 439.6,349.1 439.6,251.5 520,251.5 520,396.4 602.4,396.4 602.4,431.4 634.3,431.4 634.3,378.6 
					698.3,378.6 698.3,436.9 802.3,436.9 802.3,356.7 				"/>
			</g>
		</g>
		
			<linearGradient id="SVGID_18_" gradientUnits="userSpaceOnUse" x1="-4.4" y1="695.6232" x2="-4.4" y2="467.1477" gradientTransform="matrix(1 0 0 -1 0 1010)">
			<stop  offset="0" style="stop-color:#EDEDED"/>
			<stop  offset="1" style="stop-color:#FFFFFF"/>
		</linearGradient>
		<polygon class="st8" points="816.6,356.7 816.6,1013.2 -825.4,1013.2 -825.4,509.6 -825.4,509.6 -825.4,378.6 -772.3,378.6 
			-772.3,445.3 -704.6,445.3 -677.9,476.5 -650.7,476.5 -650.7,315.1 -588.2,315.1 -588.2,356.7 -535.2,356.7 -535.2,436.9 
			-464,436.9 -464,336.2 -407.8,336.2 -407.8,378.6 -378.5,378.6 -353.2,349.1 -324.4,349.1 -324.4,251.5 -244,251.5 -244,396.4 
			-161.7,396.4 -161.7,431.4 -129.8,431.4 -129.8,378.6 -8.2,378.6 -8.2,436.9 38.3,436.9 38.3,356.7 109.2,356.7 109.2,476.5 
			113.3,476.5 113.3,315.1 175.8,315.1 175.8,356.7 228.8,356.7 228.8,436.9 300,436.9 300,336.2 356.2,336.2 356.2,378.6 
			385.5,378.6 410.8,349.1 439.6,349.1 439.6,251.5 520,251.5 520,396.4 602.4,396.4 602.4,431.4 634.3,431.4 634.3,378.6 
			698.3,378.6 698.3,436.9 802.3,436.9 802.3,356.7 		"/>
		<g>
			<g>
				<defs>
					<polygon id="SVGID_19_" points="1,1 2,1 1,2 					"/>
				</defs>
				<defs>
					<polygon id="SVGID_20_" points="-1,-1 -2,-1 -1,-2 					"/>
				</defs>
				<clipPath id="SVGID_21_">
					<use xlink:href="#SVGID_19_"  style="overflow:visible;"/>
				</clipPath>
				<clipPath id="SVGID_22_" class="st9">
					<use xlink:href="#SVGID_20_"  style="overflow:visible;"/>
				</clipPath>
				
					<linearGradient id="SVGID_23_" gradientUnits="userSpaceOnUse" x1="-4.4" y1="597.6724" x2="-4.4" y2="406.5873" gradientTransform="matrix(1 0 0 -1 0 1010)">
					<stop  offset="0" style="stop-color:#FFFFFF"/>
					<stop  offset="1" style="stop-color:#000000"/>
				</linearGradient>
				<polygon class="st10" points="-825.4,781.5 -825.4,453.1 -763.5,453.1 -763.5,513.1 -692.5,513.1 -670.8,534.8 -435,534.8 
					-398.3,498.1 -324.3,498.1 -324.3,436.5 -259.5,436.5 -259.5,519.6 -140.3,519.6 -94.3,473.6 53.2,473.6 53.2,551.1 
					118.7,551.1 150.6,519.2 231.3,519.2 254.1,542 354,542 354,456.2 425,456.2 425,484.5 481.3,484.5 481.3,424.5 533,424.5 
					533,515.2 677.9,515.2 691.4,528.8 816.6,528.8 816.6,781.5 				"/>
			</g>
		</g>
		
			<linearGradient id="SVGID_24_" gradientUnits="userSpaceOnUse" x1="-4.4" y1="597.6724" x2="-4.4" y2="406.5873" gradientTransform="matrix(1 0 0 -1 0 1010)">
			<stop  offset="0" style="stop-color:#D4D4D4"/>
			<stop  offset="1" style="stop-color:#FFFFFF"/>
		</linearGradient>
		<polygon class="st11" points="-825.4,781.5 -825.4,453.1 -763.5,453.1 -763.5,513.1 -692.5,513.1 -670.8,534.8 -435,534.8 
			-398.3,498.1 -324.3,498.1 -324.3,436.5 -259.5,436.5 -259.5,519.6 -140.3,519.6 -94.3,473.6 53.2,473.6 53.2,551.1 118.7,551.1 
			150.6,519.2 231.3,519.2 254.1,542 354,542 354,456.2 425,456.2 425,484.5 481.3,484.5 481.3,424.5 533,424.5 533,515.2 
			677.9,515.2 691.4,528.8 816.6,528.8 816.6,781.5 		"/>
	</g>
	<g>
		<g>
			<g>
				<defs>
					<polygon id="SVGID_25_" points="1,1 2,1 1,2 					"/>
				</defs>
				<defs>
					<polygon id="SVGID_26_" points="-1,-1 -2,-1 -1,-2 					"/>
				</defs>
				<clipPath id="SVGID_27_">
					<use xlink:href="#SVGID_25_"  style="overflow:visible;"/>
				</clipPath>
				<clipPath id="SVGID_28_" class="st12">
					<use xlink:href="#SVGID_26_"  style="overflow:visible;"/>
				</clipPath>
				
					<linearGradient id="SVGID_29_" gradientUnits="userSpaceOnUse" x1="2847.6001" y1="695.6232" x2="2847.6001" y2="467.1477" gradientTransform="matrix(1 0 0 -1 0 1010)">
					<stop  offset="0" style="stop-color:#FFFFFF"/>
					<stop  offset="1" style="stop-color:#000000"/>
				</linearGradient>
				<polygon class="st13" points="3668.6,356.7 3668.6,1013.2 2026.6,1013.2 2026.6,509.6 2026.6,509.6 2026.6,378.6 2079.7,378.6 
					2079.7,445.3 2147.4,445.3 2174.1,476.5 2201.3,476.5 2201.3,315.1 2263.8,315.1 2263.8,356.7 2316.8,356.7 2316.8,436.9 
					2388,436.9 2388,336.2 2444.2,336.2 2444.2,378.6 2473.5,378.6 2498.8,349.1 2527.6,349.1 2527.6,251.5 2608,251.5 2608,396.4 
					2690.3,396.4 2690.3,431.4 2722.2,431.4 2722.2,378.6 2843.8,378.6 2843.8,436.9 2890.3,436.9 2890.3,356.7 2961.2,356.7 
					2961.2,476.5 2965.3,476.5 2965.3,315.1 3027.8,315.1 3027.8,356.7 3080.8,356.7 3080.8,436.9 3152,436.9 3152,336.2 
					3208.2,336.2 3208.2,378.6 3237.5,378.6 3262.8,349.1 3291.6,349.1 3291.6,251.5 3372,251.5 3372,396.4 3454.4,396.4 
					3454.4,431.4 3486.3,431.4 3486.3,378.6 3550.3,378.6 3550.3,436.9 3654.3,436.9 3654.3,356.7 				"/>
			</g>
		</g>
		
			<linearGradient id="SVGID_30_" gradientUnits="userSpaceOnUse" x1="2847.6001" y1="695.6232" x2="2847.6001" y2="467.1477" gradientTransform="matrix(1 0 0 -1 0 1010)">
			<stop  offset="0" style="stop-color:#EDEDED"/>
			<stop  offset="1" style="stop-color:#FFFFFF"/>
		</linearGradient>
		<polygon class="st14" points="3668.6,356.7 3668.6,1013.2 2026.6,1013.2 2026.6,509.6 2026.6,509.6 2026.6,378.6 2079.7,378.6 
			2079.7,445.3 2147.4,445.3 2174.1,476.5 2201.3,476.5 2201.3,315.1 2263.8,315.1 2263.8,356.7 2316.8,356.7 2316.8,436.9 
			2388,436.9 2388,336.2 2444.2,336.2 2444.2,378.6 2473.5,378.6 2498.8,349.1 2527.6,349.1 2527.6,251.5 2608,251.5 2608,396.4 
			2690.3,396.4 2690.3,431.4 2722.2,431.4 2722.2,378.6 2843.8,378.6 2843.8,436.9 2890.3,436.9 2890.3,356.7 2961.2,356.7 
			2961.2,476.5 2965.3,476.5 2965.3,315.1 3027.8,315.1 3027.8,356.7 3080.8,356.7 3080.8,436.9 3152,436.9 3152,336.2 
			3208.2,336.2 3208.2,378.6 3237.5,378.6 3262.8,349.1 3291.6,349.1 3291.6,251.5 3372,251.5 3372,396.4 3454.4,396.4 
			3454.4,431.4 3486.3,431.4 3486.3,378.6 3550.3,378.6 3550.3,436.9 3654.3,436.9 3654.3,356.7 		"/>
		<g>
			<g>
				<defs>
					<polygon id="SVGID_31_" points="1,1 2,1 1,2 					"/>
				</defs>
				<defs>
					<polygon id="SVGID_32_" points="-1,-1 -2,-1 -1,-2 					"/>
				</defs>
				<clipPath id="SVGID_33_">
					<use xlink:href="#SVGID_31_"  style="overflow:visible;"/>
				</clipPath>
				<clipPath id="SVGID_34_" class="st15">
					<use xlink:href="#SVGID_32_"  style="overflow:visible;"/>
				</clipPath>
				
					<linearGradient id="SVGID_35_" gradientUnits="userSpaceOnUse" x1="2847.6001" y1="597.6724" x2="2847.6001" y2="406.5873" gradientTransform="matrix(1 0 0 -1 0 1010)">
					<stop  offset="0" style="stop-color:#FFFFFF"/>
					<stop  offset="1" style="stop-color:#000000"/>
				</linearGradient>
				<polygon class="st16" points="2026.6,781.5 2026.6,453.1 2088.5,453.1 2088.5,513.1 2159.5,513.1 2181.2,534.8 2417,534.8 
					2453.7,498.1 2527.7,498.1 2527.7,436.5 2592.5,436.5 2592.5,519.6 2711.7,519.6 2757.7,473.6 2905.2,473.6 2905.2,551.1 
					2970.7,551.1 3002.6,519.2 3083.3,519.2 3106.1,542 3206,542 3206,456.2 3277,456.2 3277,484.5 3333.3,484.5 3333.3,424.5 
					3385,424.5 3385,515.2 3529.9,515.2 3543.4,528.8 3668.6,528.8 3668.6,781.5 				"/>
			</g>
		</g>
		
			<linearGradient id="SVGID_36_" gradientUnits="userSpaceOnUse" x1="2847.6001" y1="597.6724" x2="2847.6001" y2="406.5873" gradientTransform="matrix(1 0 0 -1 0 1010)">
			<stop  offset="0" style="stop-color:#D4D4D4"/>
			<stop  offset="1" style="stop-color:#FFFFFF"/>
		</linearGradient>
		<polygon class="st17" points="2026.6,781.5 2026.6,453.1 2088.5,453.1 2088.5,513.1 2159.5,513.1 2181.2,534.8 2417,534.8 
			2453.7,498.1 2527.7,498.1 2527.7,436.5 2592.5,436.5 2592.5,519.6 2711.7,519.6 2757.7,473.6 2905.2,473.6 2905.2,551.1 
			2970.7,551.1 3002.6,519.2 3083.3,519.2 3106.1,542 3206,542 3206,456.2 3277,456.2 3277,484.5 3333.3,484.5 3333.3,424.5 
			3385,424.5 3385,515.2 3529.9,515.2 3543.4,528.8 3668.6,528.8 3668.6,781.5 		"/>
	</g>
</g>
<path class="st18" d="M809,134.8C808.8,134.8,808.8,134.6,809,134.8c-4.6-2.6-8.4-4.4-13.4-3.2l-104.4,23.6
	c-2.8,0.6-5.8,0.2-8.4-1.4c-4.4-2.6-10.4-6.4-13.4-9.2c-5.2-4.4-11-10.2-11-10.2l-9.6,2.8l12.4,24.6l-7,1.6c-1.8,0.4-1.8,3,0,3.4
	l15,3.6c12.4,3,25.4,3.2,38,0.6c1.8-0.4,3.6-0.8,5.6-1.2c-4.6,5.6-9.4,11.8-9.6,12.4c-0.2,1.2,18.6-3.6,20.2-4.2
	c0.6-0.4,5.4-4.6,10.8-9.6c2.2,0.2,4-0.2,5.4-1.2c1.6-1.4,2.4-2.4,2.6-3.4c19-4,38.4-8.2,49.2-11c6-1.6,22.8-7.2,24.2-13
	C816,137,811,135.8,809,134.8z M690.9,160.6c-0.6,0.2-1.2-0.2-1.4-1c-0.2-0.8,0.2-1.2,0.8-1.4c0.6-0.2,1.2,0.2,1.4,1
	C691.9,159.8,691.5,160.4,690.9,160.6z M695.7,159.6c-0.6,0.2-1.2-0.2-1.4-1c-0.2-0.6,0.2-1.2,0.8-1.4c0.6-0.2,1.2,0.2,1.4,1
	C696.7,159,696.3,159.4,695.7,159.6z M700.7,158.4c-0.6,0.2-1.2-0.2-1.4-1c-0.2-0.8,0.2-1.2,0.8-1.4c0.6-0.2,1.2,0.2,1.4,1
	C701.7,157.8,701.3,158.2,700.7,158.4z M705.7,157.2c-0.6,0.2-1.2-0.2-1.4-1c-0.2-0.6,0.2-1.2,0.8-1.4c0.6-0.2,1.2,0.2,1.4,1
	C706.7,156.4,706.3,157,705.7,157.2z M724.3,153c-0.6,0.2-1.2-0.2-1.4-1c-0.2-0.6,0.2-1.2,0.8-1.4c0.6-0.2,1.2,0.2,1.4,1
	C725.4,152.2,725,152.8,724.3,153z M729.2,151.8c-0.6,0.2-1.2-0.2-1.4-1c-0.2-0.6,0.2-1.2,0.8-1.4c0.6-0.2,1.2,0.2,1.4,1
	C730.2,151,729.8,151.8,729.2,151.8z M734.2,150.8c-0.6,0.2-1.2-0.2-1.4-1c-0.2-0.6,0.2-1.2,0.8-1.4c0.6-0.2,1.2,0.2,1.4,1
	C735.2,150,734.8,150.6,734.2,150.8z M739.2,149.6c-0.6,0.2-1.2-0.2-1.4-1c-0.2-0.6,0.2-1.2,0.8-1.4c0.6-0.2,1.2,0.2,1.4,1
	C740.2,149,739.8,149.4,739.2,149.6z M757.8,145.4c-0.6,0.2-1.2-0.2-1.4-1c-0.2-0.6,0.2-1.2,0.8-1.4c0.6-0.2,1.2,0.2,1.4,1
	C758.8,144.6,758.4,145.2,757.8,145.4z M762.6,144.2c-0.6,0.2-1.2-0.2-1.4-1c-0.2-0.6,0.2-1.2,0.8-1.4c0.6-0.2,1.2,0.2,1.4,1
	C763.6,143.4,763.2,144,762.6,144.2z M767.6,143c-0.6,0.2-1.2-0.2-1.4-1c-0.2-0.6,0.2-1.2,0.8-1.4c0.6-0.2,1.2,0.2,1.4,1
	C768.6,142.4,768.2,143,767.6,143z M772.6,142c-0.6,0.2-1.2-0.2-1.4-1c-0.2-0.6,0.2-1.2,0.8-1.4c0.6-0.2,1.2,0.2,1.4,1
	C773.6,141.2,773.2,141.8,772.6,142z M777.6,140.8c-0.6,0.2-1.2-0.2-1.4-1c-0.2-0.6,0.2-1.2,0.8-1.4c0.6-0.2,1.2,0.2,1.4,1
	C778.6,140,778.2,140.6,777.6,140.8z M782.4,139.6c-0.6,0.2-1.2-0.2-1.4-1c-0.2-0.6,0.2-1.2,0.8-1.4c0.6-0.2,1.2,0.2,1.4,1
	C783.6,139,783.2,139.6,782.4,139.6z M787.4,138.6c-0.6,0.2-1.2-0.2-1.4-1c-0.2-0.6,0.2-1.2,0.8-1.4c0.6-0.2,1.2,0.2,1.4,1
	C788.4,138,788,138.4,787.4,138.6z M801.6,137c-1.4,0.4-2.8-0.6-3-2c-0.2-0.8,0.2-1.4,1-1.6c1.4-0.4,2.8,0.6,3,2
	C802.8,136.2,802.4,136.8,801.6,137z"/>
</svg>
