<?xml version="1.0" encoding="utf-8"?>
<!-- Generator: Adobe Illustrator 23.0.6, SVG Export Plug-In . SVG Version: 6.00 Build 0)  -->
<svg version="1.1" id="Слой_1" xmlns="http://www.w3.org/2000/svg" xmlns:xlink="http://www.w3.org/1999/xlink" x="0px" y="0px"
	 viewBox="0 0 2864.3 1402.3" style="enable-background:new 0 0 2864.3 1402.3;" xml:space="preserve">
<style type="text/css">
	.st0{fill:#FFFFFF;}
	.st1{clip-path:url(#SVGID_3_);}
	.st2{clip-path:url(#SVGID_4_);fill:url(#SVGID_5_);}
	.st3{fill:url(#SVGID_6_);}
	.st4{clip-path:url(#SVGID_9_);}
	.st5{clip-path:url(#SVGID_10_);fill:url(#SVGID_11_);}
	.st6{fill:url(#SVGID_12_);}
	.st7{fill:url(#SVGID_13_);}
	.st8{fill:#1D3B54;}
	.st9{fill:#DE9673;}
	.st10{fill:#EEA886;}
	.st11{fill:#EB4747;}
	.st12{fill:#754836;}
	.st13{fill:#EDDAD3;}
	.st14{fill:#A77860;}
	.st15{fill:#353A3D;}
	.st16{fill:#FF9100;}
	.st17{fill:#0F1E2B;}
	.st18{fill:#3C4145;}
	.st19{fill:#616161;}
	.st20{fill:#E0CEC7;}
	.st21{fill:#81807E;}
	.st22{fill:#292C47;}
	.st23{fill:#F54242;}
	.st24{fill:#223247;}
	.st25{fill:#C98462;}
	.st26{fill:#E55353;}
	.st27{fill:#3B3B40;}
	.st28{fill:#2F4563;}
	.st29{fill:#525252;}
	.st30{fill:#0E1E2B;}
	.st31{fill:#665955;}
	.st32{fill:#877671;}
	.st33{fill:#34395C;}
	.st34{fill:#3C4169;}
	.st35{fill:#393D63;}
	.st36{fill:#2B2D4A;}
	.st37{fill:#E2D2CA;}
	.st38{fill:#706865;}
	.st39{fill:#CCBDB7;}
	.st40{fill:#999999;}
	.st41{fill:#B59074;}
	.st42{fill:#323657;}
	.st43{fill:#EAD8CF;}
	.st44{fill:#DA9B5B;}
	.st45{fill:#424773;}
	.st46{fill:#3A3F47;}
	.st47{fill:#918783;}
	.st48{fill:#5E5854;}
	.st49{fill:#BFB2AC;}
	.st50{fill:#5B5B5B;}
	.st51{fill:#F5F7FF;}
	.st52{fill:#CECFD6;}
	.st53{fill:#59524F;}
	.st54{fill:#314875;}
	.st55{fill:#EEF0F7;}
	.st56{fill:#D9C7C1;}
	.st57{fill:#EEA987;}
	.st58{fill:#E8734D;}
	.st59{fill:#C78D71;}
	.st60{fill:#BDAFAA;}
	.st61{fill:#D6D6D6;}
	.st62{fill:#DB9C7C;}
	.st63{fill:#EFAA88;}
	.st64{fill:#D88A51;}
	.st65{fill:#DFE1E8;}
	.st66{fill:#252840;}
	.st67{fill:#363A5E;}
	.st68{fill:#3F446E;}
	.st69{fill:#CFBEB8;}
	.st70{fill:#D6C5BE;}
	.st71{fill:#494F80;}
	.st72{fill:#FFA800;}
	.st73{fill:#FAE6DE;}
	.st74{fill:#252740;}
	.st75{fill:#3D426B;}
</style>
<rect y="1123.7" class="st0" width="2864.3" height="398.4"/>
<g>
	<g>
		<defs>
			<polygon id="SVGID_1_" points="1,202.3 2,202.3 1,203.3 			"/>
		</defs>
		<defs>
			<polygon id="SVGID_2_" points="-1,200.3 -2,200.3 -1,199.3 			"/>
		</defs>
		<clipPath id="SVGID_3_">
			<use xlink:href="#SVGID_1_"  style="overflow:visible;"/>
		</clipPath>
		<clipPath id="SVGID_4_" class="st1">
			<use xlink:href="#SVGID_2_"  style="overflow:visible;"/>
		</clipPath>
		
			<linearGradient id="SVGID_5_" gradientUnits="userSpaceOnUse" x1="1432.15" y1="1411.6858" x2="1432.15" y2="1014.4593" gradientTransform="matrix(1 0 0 -1 0 1722.506)">
			<stop  offset="0" style="stop-color:#FFFFFF"/>
			<stop  offset="1" style="stop-color:#000000"/>
		</linearGradient>
		<polygon class="st2" points="2859.5,384.4 2859.5,1525.8 4.8,1525.8 4.8,650.2 4.8,650.2 4.8,422.6 97.1,422.6 97.1,538.5 
			214.8,538.5 261.3,592.7 308.5,592.7 308.5,312.1 417.1,312.1 417.1,384.4 509.3,384.4 509.3,524 633.1,524 633.1,348.8 
			730.9,348.8 730.9,422.5 781.7,422.5 825.7,371.3 875.7,371.3 875.7,201.6 1015.6,201.6 1015.6,453.5 1158.7,453.5 1158.7,514.2 
			1214.1,514.2 1214.1,422.6 1425.5,422.6 1425.5,524 1506.3,524 1506.3,384.4 1629.6,384.4 1629.6,592.7 1636.8,592.7 
			1636.8,312.1 1745.5,312.1 1745.5,384.4 1837.6,384.4 1837.6,524 1961.4,524 1961.4,348.8 2059.2,348.8 2059.2,422.5 
			2110.1,422.5 2154,371.3 2204.1,371.3 2204.1,201.6 2344,201.6 2344,453.5 2487.1,453.5 2487.1,514.2 2542.5,514.2 2542.5,422.6 
			2653.8,422.6 2653.8,524 2834.6,524 2834.6,384.4 		"/>
	</g>
</g>
<linearGradient id="SVGID_6_" gradientUnits="userSpaceOnUse" x1="1432.15" y1="1411.6858" x2="1432.15" y2="1014.4593" gradientTransform="matrix(1 0 0 -1 0 1722.506)">
	<stop  offset="0" style="stop-color:#EDEDED"/>
	<stop  offset="1" style="stop-color:#FFFFFF"/>
</linearGradient>
<polygon class="st3" points="2859.5,384.4 2859.5,1525.8 4.8,1525.8 4.8,650.2 4.8,650.2 4.8,422.6 97.1,422.6 97.1,538.5 
	214.8,538.5 261.3,592.7 308.5,592.7 308.5,312.1 417.1,312.1 417.1,384.4 509.3,384.4 509.3,524 633.1,524 633.1,348.8 
	730.9,348.8 730.9,422.5 781.7,422.5 825.7,371.3 875.7,371.3 875.7,201.6 1015.6,201.6 1015.6,453.5 1158.7,453.5 1158.7,514.2 
	1214.1,514.2 1214.1,422.6 1425.5,422.6 1425.5,524 1506.3,524 1506.3,384.4 1629.6,384.4 1629.6,592.7 1636.8,592.7 1636.8,312.1 
	1745.5,312.1 1745.5,384.4 1837.6,384.4 1837.6,524 1961.4,524 1961.4,348.8 2059.2,348.8 2059.2,422.5 2110.1,422.5 2154,371.3 
	2204.1,371.3 2204.1,201.6 2344,201.6 2344,453.5 2487.1,453.5 2487.1,514.2 2542.5,514.2 2542.5,422.6 2653.8,422.6 2653.8,524 
	2834.6,524 2834.6,384.4 "/>
<g>
	<g>
		<defs>
			<polygon id="SVGID_7_" points="1,202.3 2,202.3 1,203.3 			"/>
		</defs>
		<defs>
			<polygon id="SVGID_8_" points="-1,200.3 -2,200.3 -1,199.3 			"/>
		</defs>
		<clipPath id="SVGID_9_">
			<use xlink:href="#SVGID_7_"  style="overflow:visible;"/>
		</clipPath>
		<clipPath id="SVGID_10_" class="st4">
			<use xlink:href="#SVGID_8_"  style="overflow:visible;"/>
		</clipPath>
		
			<linearGradient id="SVGID_11_" gradientUnits="userSpaceOnUse" x1="1432.15" y1="1241.3889" x2="1432.15" y2="909.1692" gradientTransform="matrix(1 0 0 -1 0 1722.506)">
			<stop  offset="0" style="stop-color:#FFFFFF"/>
			<stop  offset="1" style="stop-color:#000000"/>
		</linearGradient>
		<polygon class="st5" points="4.8,1122.9 4.8,552.1 112.3,552.1 112.3,656.4 235.9,656.4 273.6,694.1 683.5,694.1 747.3,630.3 
			876,630.3 876,523.3 988.6,523.3 988.6,667.7 1195.9,667.7 1275.8,587.8 1532.2,587.8 1532.2,722.4 1646.1,722.4 1701.6,666.9 
			1841.9,666.9 1881.6,706.7 2055.2,706.7 2055.2,557.4 2178.8,557.4 2178.8,606.7 2276.7,606.7 2276.7,502.2 2366.5,502.2 
			2366.5,660.1 2618.4,660.1 2641.9,683.6 2859.5,683.6 2859.5,1122.9 		"/>
	</g>
</g>
<linearGradient id="SVGID_12_" gradientUnits="userSpaceOnUse" x1="1432.15" y1="1241.3889" x2="1432.15" y2="909.1692" gradientTransform="matrix(1 0 0 -1 0 1722.506)">
	<stop  offset="0" style="stop-color:#D4D4D4"/>
	<stop  offset="1" style="stop-color:#FFFFFF"/>
</linearGradient>
<polygon class="st6" points="4.8,1122.9 4.8,552.1 112.3,552.1 112.3,656.4 235.9,656.4 273.6,694.1 683.5,694.1 747.3,630.3 
	876,630.3 876,523.3 988.6,523.3 988.6,667.7 1195.9,667.7 1275.8,587.8 1532.2,587.8 1532.2,722.4 1646.1,722.4 1701.6,666.9 
	1841.9,666.9 1881.6,706.7 2055.2,706.7 2055.2,557.4 2178.8,557.4 2178.8,606.7 2276.7,606.7 2276.7,502.2 2366.5,502.2 
	2366.5,660.1 2618.4,660.1 2641.9,683.6 2859.5,683.6 2859.5,1122.9 "/>
<linearGradient id="SVGID_13_" gradientUnits="userSpaceOnUse" x1="219.2" y1="434.453" x2="2645.2" y2="434.453" gradientTransform="matrix(1 0 0 -1 0 1722.506)">
	<stop  offset="0" style="stop-color:#FFAE70"/>
	<stop  offset="1" style="stop-color:#FFD970"/>
</linearGradient>
<path class="st7" d="M2645.2,1288.1c0,37.3-543.1,67.5-1213,67.5s-1213-30.2-1213-67.5s543.1-67.5,1213-67.5
	S2645.2,1250.8,2645.2,1288.1z"/>
<g>
	<path class="st8" d="M1027,1250.5c0,0-3-4.9-7.1-6.8s-12.6,4.8-13.3,8.5l-9.8,14.3l1.9,1.3l5.2-7.6c-3.6,8.6-8.6,18.8-5.1,24
		c4.8,6.9,15.7,13.9,18.5,12.7c2.9-1.2,2.3-21.3,2.3-21.3C1016.6,1257.6,1027,1250.5,1027,1250.5z"/>
	<g>
		<path class="st9" d="M1027,1250.5c0,0-3.6,6.9-5.4,12.2c-1.8,5.3-2.2,20.1-3.3,21.1c-1.2,1-10.3-3.6-11.5-9.1s2.5-16.5,6-22.3
			s7.1-8.7,7.1-8.7S1026.1,1244.8,1027,1250.5z"/>
	</g>
	<path class="st9" d="M1062.2,1121.3c0,0-5.6,29.6-5.6,36.7s-1.9,18.7-6.4,27.2c-4.5,8.6-24.3,67.2-26,74
		c-1.7,6.8-3.2,13.3-3.2,13.3s-9.9-4.5-9.9-10.9s8.6-59.6,10.1-70.1s13.9-64.3,13.9-64.3L1062.2,1121.3z"/>
	<path class="st10" d="M1030.7,1119.3c0,0,1.9,24.7,1.7,31.1c-0.2,6.4-3.2,21-3.2,24.9s0,83.8,3.2,93.5s-9,3-9,3
		s-21.2-52.6-21.2-74.6c0-21.9,2.6-32.9,1.1-46.8s-8.2-32.3-8.2-32.3L1030.7,1119.3z"/>
	<path class="st11" d="M998.5,1000.6c0,0-11.4,14-14.4,32.6c-3,18.7,3.6,53.8,5.9,64c2,8.9,6,37.5,6.2,40.5c0,0,38.4,4.3,67.5-4.9
		c0,0,2.7-39.9,4.4-56.9c1.7-16.9-6.7-74.2-6.7-74.2L998.5,1000.6z"/>
	<path class="st8" d="M1042.4,1293.1c-13.7-12-10.1-24.3-10.1-24.3s-5.5-2-10-0.8c-4.5,1.1-6.9,11.8-5.1,15.2l1.4,17.5l2.3-0.2
		l-0.7-9.3c2.7,9,5.2,20.3,11.3,22.1c8.2,2.4,21.2,1,22.7-1.8C1055.7,1308.6,1042.4,1293.1,1042.4,1293.1z"/>
	<path class="st12" d="M1050.5,869.9c0,0-3.4,20.2-0.5,27s-15.6-8-15.6-8S1042.1,866.7,1050.5,869.9z"/>
	<path class="st12" d="M1043.6,813.7c0,0-29.8-6.8-33.5,25s9.7,35.8,0.6,57.4c-9.1,21.6,22.1-7,22.1-7L1043.6,813.7z"/>
	<path class="st10" d="M1041.1,813.2c7.6-0.2,24.5,4.2,26.5,24.5c0,0-0.8,5.4-2.2,9.7c-1.4,4.2,2,17,1,17.6s-5.2,1.3-5.2,1.3
		s-4.8,13.7-9.7,13.4c-4.8-0.3-23.1-4.6-31.2-22C1012.1,840.3,1010.2,813.9,1041.1,813.2z"/>
	<g>
		<g>
			<path class="st8" d="M957.8,1065.1c0,0,0.7-12.2,4-14.1c3.2-1.9,1.4,1.9,1.4,1.9s-1.8,8.9-2.2,12.5
				C960.9,1065.5,957.8,1065.1,957.8,1065.1z"/>
		</g>
	</g>
	<g>
		<g>
			<path class="st10" d="M972.8,1037.5c0,0,0.9,5.5,2.6,10.8c1.7,5.3,3.2,7,2.5,10c-0.5,2.3-3.1,4-3.7,3.3c-0.7-0.7-1-9.6-4.7-9.6
				s1.1,11-1.1,10.2c-2.2-0.8-10.6-5.4-10.1-9.9s3.9-7.7,3.7-14.4c-0.2-6.1,1.7-8.6,1.7-8.6L972.8,1037.5z"/>
		</g>
	</g>
	<g>
		<g>
			<path class="st8" d="M969.9,1051.6c0,0,4.9,1.3,4.6,17.9l-5.6-0.9c0,0,0.1-9.2-1.6-14.2C967.4,1054.4,967.6,1051.1,969.9,1051.6z
				"/>
		</g>
	</g>
	<g>
		<g>
			<polygon class="st13" points="990.2,1073.2 947,1061 947.1,1114.3 990.2,1140.1 			"/>
		</g>
	</g>
	<g>
		<polygon class="st13" points="990.2,1140.1 984.7,1141.1 942.8,1115 943.4,1061.2 947,1061 		"/>
	</g>
	<path class="st11" d="M1045.2,888c0,0,11.5,4.7,13.6,6.2c2.1,1.4,6.2,18.1,7.2,19.6c1,1.4,11,13.8,9.6,23.9
		c-1.1,7.9-5.5,12.1-8.4,15.1c-2.9,3.1-5.6,19.7-6.5,22.2s2,34.9,2,34.9s-33.9,13.2-64.1-9.3c0,0,6-21.7,6-25.6s-3.9-31.5-14.4-47.8
		s1.9-33.6,9.9-35.6c8-2.1,23.5-7.8,23.5-7.8L1045.2,888z"/>
	<path class="st11" d="M1008.2,889.1c0,0-16.9-1-25.4,8.8c-8.5,9.9-8,21.6-10.2,26.7c-2.2,5.1-7.1,27-8.2,30.6
		c-1.1,3.6-2.1,23.5-3.7,39.6c-1.5,16.1-1.2,46.1-1.2,46.1l16.2-2.9c0,0,0.7-28.6,1.1-45.2c0.4-16.6,13.9-45.9,19-58.7
		C1000.9,921.2,1021.2,897.1,1008.2,889.1z"/>
	<path class="st11" d="M1057.1,893.3c0,0,7.5,0.5,11,7.9c3.6,7.4,4.9,13.6,5.8,15.4c0.9,1.9,13.8,26.3,14.6,31.7
		c0.8,5.4-0.5,15.3-7.3,17.9c-6.8,2.6-31.2,2.9-31.2,2.9s6.2-12.6,0.5-19.1c0,0,17.7-3.2,21.9-3.6
		C1076.8,946,1051.5,898.8,1057.1,893.3z"/>
	<g>
		<polygon class="st8" points="1016.5,914.2 1049.5,991.3 1090.7,972 1060.3,897.9 		"/>
	</g>
	<g>
		<path class="st10" d="M1035.5,952.1c0,0-4.5,1.2-5.9,1.4s0.3,2.8,2.1,2.9C1033.4,956.5,1035.5,952.1,1035.5,952.1z"/>
	</g>
	<g>
		<path class="st10" d="M1038.5,974.1c0,0,2.1-0.1,3-0.6c0,0,1.5-1,2.7-1.7c0.4-0.2,0.7-0.4,0.9-0.5c0.9-0.4,3-0.9,5-2.4
			c1.9-1.5,8.3-7.5,8.3-7.5l-4.2-6.3l-3.2-5c0,0-13.6,0.4-15.5,1.6c-0.2,0.1-0.4,0.2-0.5,0.4c-1.6,1.2-2.2,2.7-3,3.4
			c-0.3,0.3-2.8,3.1-2.7,4.2c0.2,1.6,1,2.5,2,3c0,0,0.6,3,2.1,4.4c0,0,0.4,2.8,2.9,3.9C1036,970.9,1036.8,973.7,1038.5,974.1z"/>
	</g>
	<path class="st11" d="M1050.5,950.1c0,0,20.1-3.6,25.7-4.2c0,0,0.4-7.1-0.6-13c-1-6-5.9-14-5.9-14l10.3,9.4c0,0,8.5,16.2,8.6,20
		c0.2,3.8,1.2,9.6-3.8,15.6c-5,5.9-28.6,3.2-28.6,3.2S1058.1,959.8,1050.5,950.1z"/>
	<path class="st10" d="M1044.3,876.4c0,0-0.7,1.9-1.4,4.8c-0.4,1.5-0.8,3.2-1.2,5c-1,5-1.7,10.9-0.5,14.8c0,0-10.8,3.4-18.9-12
		c0,0,4.1-16.2-0.4-26.2C1017.6,852.8,1044.3,876.4,1044.3,876.4z"/>
	<path class="st12" d="M1067.6,837.7c0,0-12.6,8.1-25,9.5c-12.3,1.4-19.2,20-19.2,20s-19.4-30.2-3.8-48.8
		C1035.2,799.8,1070.9,814.2,1067.6,837.7z"/>
	<path class="st10" d="M1037.5,846.4c0-2.4-2.5-6-6.5-2.9s0.9,14.6,4.2,13.6C1038.4,856.1,1037.5,848.9,1037.5,846.4z"/>
	<path class="st10" d="M1045.9,888.3c0,0,5.1,15-6.8,14.9s-17.1-9.4-20.5-17.7c0,0,5.5-2.7,8-3
		C1029.2,882.1,1045.9,888.3,1045.9,888.3z"/>
	<polygon class="st8" points="974.5,1068.8 968.9,1069.5 968.9,1066.9 	"/>
	<path class="st8" d="M960.9,1064.9l-3.1,0.4c0,0,0-0.9,0-1.2C957.9,1063.8,960.8,1064.7,960.9,1064.9z"/>
	<g>
		<path class="st10" d="M1032.4,1268.8c0,0,1.6,7.7,3.5,13s11.1,17.2,10.8,18.7c-0.3,1.5-10.4,3.7-14.8,0.2
			c-4.5-3.6-8.6-14.6-9.5-21.4s-0.4-11.2-0.4-11.2S1028.1,1265,1032.4,1268.8z"/>
	</g>
	<path class="st14" d="M1043.9,878c-0.4,1.5-1,3.2-1.4,4.9c-9.8-6.6-14.4-14.4-14.4-14.4C1033.5,873.8,1043.9,878,1043.9,878z"/>
</g>
<g>
	<g>
		<g>
			<path class="st10" d="M1535.3,1110.6c0,0,4.9,2.4,9.6,2.9c0,0,4.4-6.5,7-11.3c6.2-11.6,8-17,7.5-21.4c-0.9-8-16.6-39.9-16.6-39.9
				l-17.4,6.7l13.3,23.7c1.2,2.4,2.8,6.4,4.5,9.6c2.2,4.2-0.4,13.8-2,17.9C1541.2,1098.8,1538.4,1106.5,1535.3,1110.6z"/>
		</g>
	</g>
	<g>
		<g>
			<path class="st15" d="M1589.8,1242.1c0,0,0.5,2.9-1.5,6.7c-2,3.9-11,13.7-10.3,17.7c0.6,4,11,3.6,17.5-3.5s16.1-14.5,15.8-16.2
				c-0.4-1.7-10.1-10.6-13.5-11.8C1594.3,1233.9,1589.8,1242.1,1589.8,1242.1z"/>
		</g>
	</g>
	<g>
		<g>
			<polygon class="st10" points="1586.2,1238.3 1589.8,1242.2 1598.1,1235.2 1594.3,1230.8 			"/>
		</g>
	</g>
	<g>
		<path class="st8" d="M1597.5,1230.8c-4-4.6-36.4-37.7-36.4-37.7c-16.5-19-23-19.5-23-19.5s-4.2,0.1-9.8,0.9
			c-0.8,0.1-3.5,0.1-4.3,0.2c-10.5,1.7-10.8,0.5-7,9.1c6.3,14.2,69.7,55.1,69.7,55.1L1597.5,1230.8z"/>
	</g>
	<g>
		<g>
			<path class="st15" d="M1449.5,1248.1c0,0-5.2,2.3-9.8,2.9c-4.6,0.6-15.6-1.2-18.7,1.8s3.6,11.7,13.8,13
				c10.2,1.3,23.2,3.4,24.4,2.1c1.3-1.4,2.3-13.5,1.3-17.2C1459.4,1247,1449.5,1248.1,1449.5,1248.1z"/>
		</g>
	</g>
	<g>
		<g>
			<polygon class="st10" points="1451.7,1242.7 1449.5,1248.1 1460.5,1250.7 1462.1,1244.9 			"/>
		</g>
	</g>
	<g>
		<path class="st8" d="M1468.1,1174.6c0,0,4.5-17-6,23.1c0,0-11.1,42.8-12.3,45.2c-0.3,0.6,13.9,3.2,14.1,3.1c2.5-1,24.5-55.8,30-66
			C1498.7,1171.2,1468.1,1174.6,1468.1,1174.6z"/>
	</g>
	<g>
		<g>
			<path class="st8" d="M1468.1,1174.6l22,12.7c0,0,8.7-10.6,14.4-15c0.6-0.4,1.2-0.9,1.8-1.4c0.8-0.6,1.7-1.3,2.5-2
				c0.6-0.5,1.2-1,1.8-1.5c4.2-3.3,8.1-6.7,10.3-9.2c6.2-7.2-7.4-52.7-24.7-32.4C1496.3,1125.9,1473.2,1147.6,1468.1,1174.6z"/>
		</g>
	</g>
	<g>
		<g>
			<path class="st8" d="M1497.7,1120.5c0,0,10.8,49.8,21.5,66.8c0,0,18.2-6.1,26.5-9.4c0,0,0.8-36,0-45.4
				C1545,1123.7,1497.7,1120.5,1497.7,1120.5z"/>
		</g>
	</g>
	<g>
		<g>
			<path class="st16" d="M1547.9,1138c0,0-4.6-44.8-0.8-65.6c2.5-13.9-1.1-36.3-9.4-48.5c-1-1.5-2.1-2.8-3.1-3.9
				c0,0-16.8,4.4-18.4,5.6c-0.2,0.2-2.1,1.8-4.3,4.6l0,0c-4.8,5.9-11.8,16.4-12.5,26.7c-0.5,7.5-0.9,14.3-1.4,21.4
				c-0.1,2.2-0.3,4.3-0.4,6.6c-0.4,5.3-0.8,10.9-1.3,17.1c-0.3,3.4-2.6,14.3-4.1,24.3L1547.9,1138z"/>
		</g>
	</g>
	<path class="st17" d="M1506.3,1171c0.8-0.6,1.7-1.3,2.5-2c0.6-0.5,1.2-1,1.8-1.5c-0.9-2.8-5.7-15.6-7.5-24.8
		C1503.2,1142.8,1501.8,1157,1506.3,1171z"/>
	<path class="st16" d="M1497.5,1084.9c0,0,9.8,14.8,11.5-21.8l-11,15.2C1497.8,1080.5,1497.6,1082.7,1497.5,1084.9z"/>
	<g>
		<g>
			<path class="st10" d="M1534.6,1020c0,0-1.7-9.7,0.3-15.3s-16.7,9.5-16.7,9.5s0,0.8,0,2c0,0.9-0.1,2.1-0.2,3.3
				c-0.2,2.3-0.5,4.8-1,6.3C1515.7,1028.8,1534.6,1020,1534.6,1020z"/>
		</g>
	</g>
	<g>
		<path class="st10" d="M1507.5,986.1c0,0-3.9,7.4-2,8.6c1.6,0.9-1.9,8.2-2.3,9.4s3,2,3.7,2.8s3,10.1,5.8,10.4
			c2.8,0.3,15.5-4.2,19-7.9c3.4-3.6,6.2-19.9,3.8-26.8S1514.5,973.1,1507.5,986.1z"/>
	</g>
	<g>
		<path class="st18" d="M1506.7,987.7c0,0-4.1-8,3.2-14c7.4-6,21.1,4.3,22.6,4.7s10.7,3.3,6.1,16.9c-4.2,12.3-4.7,13.7-4.7,13.7
			s-2.5-8.2-4.1-9.4c-2.5-1.8-8-1.3-8-1.3s2.6-7-1.5-7.9S1510.8,986.1,1506.7,987.7z"/>
	</g>
	<g>
		<path class="st10" d="M1526.2,994.4c0.4-1,1.5-5.1,5-2.7c3.5,2.4-2.1,10.1-2.7,10.2C1527.8,1002.1,1523.2,1002.4,1526.2,994.4z"/>
	</g>
	<path class="st14" d="M1518,1019.4c5.8-1.6,10.8-7.9,10.8-7.9c-1.6,1.5-10.6,4.6-10.6,4.6C1518.1,1017,1518.1,1018.2,1518,1019.4z"
		/>
	<g>
		<polygon class="st19" points="1453.2,1072.1 1462.7,1120.7 1493.9,1114.7 1485.7,1065.8 		"/>
		<polygon class="st20" points="1455.6,1074.5 1463.9,1117.7 1491.7,1112.3 1484.4,1068.9 		"/>
		<polygon class="st19" points="1464.3,1073.9 1463.8,1070.8 1475,1068.7 1476,1071.6 		"/>
	</g>
	<g>
		<g>
			<g>
				<g>
					<g>
						<path class="st10" d="M1456.9,1106.2c0,0,1.4,0.6,2.1,0.5c0,0,1.3-0.2,2.2-0.2c0.3,0,0.6,0,0.7,0c0.7,0,2.2,0.3,4,0
							c1.7-0.4,8.7-3.9,8.7-3.9l-0.8-4.3l-0.2-4.2c0,0-10.2-3.5-11.9-3.3c-0.2,0-0.3,0-0.5,0.1c-1.4,0.3-2.3,1.1-3,1.3
							c-0.3,0.1-2.8,1.1-3,1.9c-0.3,1.1-0.1,2,0.3,2.6c0,0-0.6,2.1,0,3.5c0,0-0.6,1.9,0.6,3.4
							C1456.3,1103.5,1455.9,1105.5,1456.9,1106.2z"/>
					</g>
				</g>
			</g>
		</g>
	</g>
	<g>
		<g>
			<path class="st10" d="M1471.2,1093.1c0,0,1,5.4,3.4,9.4c0,0,7.8-0.3,13.3-1.1c13-1.9,18.4-3.7,21.6-6.8
				c5.8-5.5,22.1-37.1,22.1-37.1l-15.8-10l-11.1,24.8c-1.2,2.4-3.4,6.1-5,9.3c-2.1,4.3-11.4,7.9-15.5,9
				C1484.3,1090.8,1476.3,1093.1,1471.2,1093.1z"/>
		</g>
	</g>
	<g>
		<g>
			<path class="st16" d="M1508,1061.1l17.9,9.3c0,0,3.6-6.9,4.6-9.1c3-6.4,7.6-16.1,1.8-20.2c-12.5-8.8-17.9,5.8-21,13.9
				C1510.4,1057.4,1508,1061.1,1508,1061.1z"/>
		</g>
	</g>
</g>
<g>
	<path class="st10" d="M1353.8,1024.9c0,0,3.3,7.5,6.4,6.6c3.2-0.9,7.8-0.7,9.3-0.5c2,0.2,8.3-1.3,8,1.1c-0.4,2.4-10.4,2.9-12.5,3.5
		c-2.1,0.5,5.5,5.9,6,7.9c0.5,2.1-10,14-14.7,9.7c-4.7-4.3-6.7-11.9-7.7-12.5s-5.3-6.7-5.3-6.7L1353.8,1024.9z"/>
	<path class="st10" d="M1370.1,1042.2c0,0,13.5,14,13.5,15.7c0,1.7-0.8,2.4-2.1,1.1c-1.3-1.3-13.5-13.2-13.5-13.2
		s12.9,19.3,13.3,20.6c0.2,0.8-1.4,2.2-2.2,1.6c-0.8-0.6-14.8-19-14.8-19s12,18,12,19.3c-0.1,1.1-1.9,2.1-2.8,0.8
		c-0.9-1.3-13.2-17.3-13.2-17.3s7.9,13.7,7.2,14.7c-0.4,0.6-1.8,1.9-3.7-1.7c-1.9-3.6-7.4-11.6-7.4-11.6L1370.1,1042.2z"/>
	<g>
		<path class="st15" d="M1186.8,1288.1c0,0-5.2,3.7-8,6.3c-2.9,2.6-6.8,5.4-9.1,12c-2.4,6.7,1.4,11.5,7.9,11.9s16.4-4.5,17.3-10.4
			c1-5.9,8.5-5.2,9.5-9.3c1-4.2-0.3-9.3-0.3-9.3L1186.8,1288.1z"/>
	</g>
	<g>
		<path class="st21" d="M1187.6,1283.2l-0.9,4.8c0,0,2.7,4.9,17.2,1.1l-0.7-4.8L1187.6,1283.2z"/>
	</g>
	<path class="st15" d="M1204,1289.2c0,0-3.3,0.4-5.6,0.8c-2.3,0.4-7-2.6-11.6-1.9l1.4,5.9C1188.2,1294,1203.7,1291.1,1204,1289.2z"
		/>
	<g>
		<path class="st15" d="M1279.7,1287.1c0,0,5.2,3.7,8,6.3c2.9,2.6,6.8,5.4,9.1,12c2.4,6.7-1.4,11.5-7.9,11.9s-16.4-4.5-17.3-10.4
			c-1-5.9-8.5-5.2-9.5-9.3c-1-4.2,0.3-9.3,0.3-9.3L1279.7,1287.1z"/>
	</g>
	<g>
		<path class="st21" d="M1278.8,1282.3l0.9,4.8c0,0-2.7,4.9-17.2,1.1l0.7-4.8L1278.8,1282.3z"/>
	</g>
	<g>
		<path class="st22" d="M1285.8,1172.1c0,10.6-1.5,111.1-1.5,111.1c-1.1,3.5-21,4.7-24.5,2.9s-2.9-101.4-3.6-112.1
			c-0.7-10.7-9.3-89.7-12.4-89.4c-3.1,0.4-20.7,74.8-23.2,82.9c-2.5,8.2-12.3,118-12.3,118c-12.1,4.2-24.5,0.5-24.5,0.5
			s4.6-111.2,4.6-124.4c0-4.9,1.4-8.6,2.8-34.7c1.1-19.9,6.6-60.6,10.3-88.6c0.1-1,0.3-2,0.4-2.9c0.7-5.5,1.3-9.5,1.5-11.4
			c0.1-0.8,0.2-1.3,0.2-1.3c1-0.5,2-0.9,3.1-1.3c26-9.3,76.1,0.5,76.1,0.5s0,0.2,0.1,0.7c0.1,0.6,0.2,1.4,0.3,2.6
			c0.3,2.5,0.7,6.1,1.2,10.4v0.1c0,0.1,0,0.3,0,0.4c1.7,15.2,2.6,23.5,4,39.7C1288.8,1079.6,1285.8,1161.4,1285.8,1172.1z"/>
	</g>
	<g>
		<path class="st23" d="M1259.5,879c0,0,42.6,9,46.1,20.9s10.4,39.6,20,69.8c5.7,18.1,34.9,59.2,34.9,59.2s-16.7,12.3-16.7,10.6
			c0-1.7-39.3-54-39.7-60.4c-0.5-6.4-12.4-39.1-12.4-39.1s-5.6,62.8-5.6,72.5s2.4,39.5,2.4,39.5s-17.1,14.2-47.7,12.6
			c0,0-43.3,0.2-42.7-16.8c0.5-15,4.2-104.8,3.3-105.3c-0.9-0.5-17.9,20.8-16.3,24.9c1.7,4.1,45.6,18.8,45.6,18.8s1.3,4.7-5.5,15.5
			c0,0-65.7-19.2-65.9-23.2s27.3-82.1,36.3-86.2c13-5.9,47.3-13.7,47.3-13.7L1259.5,879z"/>
	</g>
	<path class="st15" d="M1262.5,1288.2c0,0,3.3,0.4,5.6,0.8s7-2.6,11.6-1.9l-1.4,5.9C1278.3,1293,1262.8,1290.1,1262.5,1288.2z"/>
	<g>
		<path class="st10" d="M1261,880c-0.2,10.4-24.1,21.3-24.1,21.3s-5.8-19.4-3.8-20.4c0.8-0.4,1-0.6,1.1-2.4c0.1-1.7,0-3.5-0.1-4.7
			c-0.1-0.7-0.1-1.2-0.1-1.2s2.9-3,6.5-6.7c6.4-6.3,15.5-15.7,15.6-12.5c0,0.2,0.2,0.3,0.2,0.5C1254.8,861.2,1261,880,1261,880z"/>
	</g>
	<g>
		<path class="st14" d="M1252.1,862.4L1252.1,862.4c0,0.1-0.9,1.3-2.4,3.2c-3.1,3.9-8.9,10.3-15.4,12.8c0.1-1.7,0-3.5-0.1-4.7
			c-0.7,0-1.3-0.1-2-0.2c1.8-3.1,4.4-6.4,4.4-6.4l4-1.2L1252.1,862.4z"/>
	</g>
	<g>
		<path class="st10" d="M1255.9,854.8c-1.7,3.8-3.4,6.5-3.9,7.6l0,0c-0.3,0.7-1.1,1.9-2.4,3.2c-3.3,3.6-9.5,8.3-15.5,8.1
			c-0.7,0-1.3-0.1-2-0.2c-2.4-0.5-5.3-1.7-6.9-4.8c-12.6-24.6-3.5-44.7-3.5-44.7s34.3-9.7,39.7,0.6
			C1265.3,831.9,1260,845.9,1255.9,854.8z"/>
	</g>
	<g>
		<path class="st24" d="M1221.8,824c0,0-3.2-0.2-4-6.2s6.9-10.1,6.9-10.1s6-3.3,13.1-4.2c5.1-0.7,17.6-1.5,20.5,1.8
			c0,0,7.1-1.7,9.1,10.2c3.1,18.8-10.5,37-10.5,37s0.1-12.3-2.6-13.9c-2.7-1.6-5,2.2-5,2.2l-5.5,1c0,0,7.8-15.2-2.2-15.8
			C1231.5,825.3,1227.5,825.1,1221.8,824z"/>
	</g>
	<g>
		<path class="st10" d="M1249.5,835.9c0.5-5.4,10.3-7.5,9.6-1.8c-0.7,5.7-5.5,11.1-7.7,10.9C1249.2,844.9,1249.1,840.1,1249.5,835.9
			z"/>
	</g>
	<g>
		<polygon class="st19" points="1252.6,947.7 1236.6,1030 1183.8,1019.8 1197.7,937 		"/>
		<polygon class="st20" points="1248.7,951.7 1234.5,1024.8 1187.5,1015.7 1199.9,942.2 		"/>
		<polygon class="st19" points="1233.8,950.7 1234.8,945.5 1215.8,941.9 1214.1,946.8 		"/>
	</g>
	<path class="st25" d="M1242.3,985.6c0,0,4-0.1,5.3-0.3c1.2-0.2,0.4,2.5-1,3C1245.1,988.7,1242.3,985.6,1242.3,985.6z"/>
	<path class="st10" d="M1244.7,1004.9c0,0-1.8,0.4-2.6,0.2c0,0-1.5-0.5-2.7-0.7c-0.4-0.1-0.7-0.1-0.9-0.2c-0.9-0.1-2.8,0-4.8-0.8
		s-8.8-4.3-8.8-4.3l1.9-6.3l1.5-5c0,0,11.5-3.1,13.4-2.5c0.2,0.1,0.4,0.1,0.5,0.2c1.6,0.6,2.6,1.7,3.4,2.1c0.3,0.2,3.1,1.9,3.3,2.8
		c0.2,1.4-0.2,2.4-0.9,3c0,0,0.3,2.7-0.7,4.2c0,0,0.3,2.5-1.4,4C1245.9,1001.6,1246,1004.2,1244.7,1004.9z"/>
	<path class="st23" d="M1230.8,986.2c0,0-2.1,11.5-8.3,18.9c0,0-45.5-18.5-51.3-20.8c-5.7-2.3,20.9-73,20.9-73l19.6,6.7l-10.5,19.9
		c0,0-5.2,11.1-16,29.5C1185.1,967.4,1191.8,973.8,1230.8,986.2z"/>
	<path class="st23" d="M1257.9,924.2c0,0-1.2,22,9.8,22s10-19.8,10.2-22H1257.9z"/>
	<polygon class="st0" points="1259.9,924.2 1276.3,924.2 1276.3,920.9 	"/>
</g>
<g>
	<g>
		<path class="st26" d="M2087.7,1282.3c0,0,9.2,15.7,13.1,18.2c5.3,3.5,2,7-0.5,7s-15.4,0.9-18.2-2.3c-2.8-3.2-4.2-12.8-6.9-15.4
			c-2.6-2.5-5-11.8,1.3-15C2083.4,1271.5,2087.7,1282.3,2087.7,1282.3z"/>
	</g>
	<g>
		<path class="st27" d="M2084.2,1274.1c0,0,10.1,19.7,11.9,22.4c1.8,2.7-3.4,2.7-6.7,1.4c-3.3-1.3-11.7-14.3-12.6-16.8
			c-0.9-2.5-0.3-6.1-0.3-6.1L2084.2,1274.1z"/>
	</g>
	<g>
		<polygon class="st26" points="2072.9,1285.3 2075.4,1304.1 2076.7,1304.2 2076.3,1290.6 		"/>
	</g>
	<g>
		<path class="st26" d="M2008.4,1267c0,0,2.2,18.1,4.8,22c3.5,5.3-1,7.2-3.3,6.2s-14.5-5.3-15.8-9.4s1.2-13.5-0.2-16.8
			c-1.4-3.4,0.1-12.8,7.2-13.2C2008.8,1255.4,2008.4,1267,2008.4,1267z"/>
	</g>
	<g>
		<path class="st27" d="M2008.5,1258.1c0,0,1.4,22.1,1.9,25.3c0.6,3.2-4.2,1.1-6.7-1.4s-5-17.8-4.9-20.5c0.2-2.7,2.2-5.7,2.2-5.7
			L2008.5,1258.1z"/>
	</g>
	<g>
		<polygon class="st26" points="1993.7,1263.9 1988.4,1282.1 1989.6,1282.7 1994.6,1270.1 		"/>
	</g>
	<g>
		<path class="st10" d="M2086.2,1106.6c-0.3-1.5-11.5-23.1-13.5-29.6s-3.7-12.5-4.8-15.1c-0.1-0.2-0.2-0.5-0.3-0.9
			c-0.7-1.9-2.2-6.2-3.7-10.2c-0.1-0.3-0.2-0.6-0.3-0.8l-0.2-1.5c-1.1-2.8,0-4.4,0-6.6c0-0.7-0.1-1.4-0.4-2.2v-0.1
			c-1.3-3.7-2.2-7-2.4-8.8c-0.6-6-3.9-33-3.9-33s10.6,5.5,11.8,9.7c1.8,6.4,3.6,16,4.1,18.9c0.5,2.9,5.1,27.4,6,32.3
			c1,5,2.1,9.2,3.4,12.5c1.4,3.3,10.6,32.6,11.1,35.2C2093.7,1109.1,2086.5,1108,2086.2,1106.6z"/>
		<path class="st10" d="M2086,1103.5c0,0-0.2,3.4-0.9,7c-0.4,1.7,1.1,12.6,1.4,14c0.2,1.2,0.9,0.3,1.2-0.5c0.2-0.5,0.2-4.3,0.6-6.4
			c0.3-1.8,0.7-2.5,1.1-2c0.4,0.5,2.1,7.3,1.9,10.4c-0.1,3.1,1.6,9.8,3,8.5c1.4-1.2,3-14.2,1.9-18.8s-3.7-10.1-3.7-10.1L2086,1103.5
			z"/>
	</g>
	<g>
		<path class="st27" d="M2047,1129.9c0.5,2.2,3.4,11.5,6.7,21.9l0,0c3,9.4,6.3,19.7,8.3,26.3c0.7,2.4,1.3,4.4,1.6,5.6
			c1.9,7.8-0.2,20-0.9,30.2c-0.7,10.2,14.1,67.3,14.1,67.3c2.6,1.2,7.5-7,7.5-7c-1.9-3.6-1.6-68-0.6-72s1.7-15,0.7-19.3
			c-0.2-0.9-0.3-2.1-0.3-3.5c-0.1-5.4,1-14.5,1.7-24.3c0.9-12.4-4-43.3-4.7-46.1c-0.1-0.3-0.2-0.6-0.3-1.1
			c-1.3-4.3-5.4-16.6-5.4-16.6c-8.3-2.5-14.6-2.9-19.2-2c-6.2,1.3-9.6,5-11.3,9.7C2040.8,1110.1,2046.4,1127,2047,1129.9z"/>
	</g>
	<g>
		<path class="st27" d="M2000.2,1257.3l8.4,3c1.4-6.9,35.6-55.2,37.7-60.6c2.1-5.4,4.3-15.7,4.3-19.5c0-0.7,0-1.8,0.1-3.3
			c0.4-5.8,1.4-16.6,2.9-25.1c0.3-1.6,0.6-3.1,0.9-4.4c1.7-7.3,2-32.2,2-46.8c0-6.5,0-11,0-11s-0.1-0.1-0.4-0.3
			c-3.1-2.4-23.3-16.9-30.4-3.3c-1.9,3.6-3.1,7.4-3.8,11.5c-2.3,12.3,0,26.2,1.8,38.8c1.6,10.8,4.5,26.1,5.4,37.4
			c0.5,6.2,0.3,11.3-1.1,13.7c-4,6.9-7.9,12.8-15.9,37.1C2009.5,1232.3,2000.2,1257.3,2000.2,1257.3z"/>
	</g>
	<g>
		<path class="st18" d="M2061.5,963.8c0,0,4.4-28.4-19.1-27.9c-23.5,0.5-23.2,14.6-22.8,28.5c0.4,13.9,9.4,12.9-0.7,32.3
			c-10.2,19.4,8.8,19.4,8.8,19.4l14.7-20.2L2061.5,963.8z"/>
	</g>
	<g>
		<path class="st10" d="M2044.9,938.6c0,0,15.9,2.5,16.6,25.2c0.6,22.7-4.3,27.5-18.2,22.8c-13.9-4.7-18.4-28.4-18.7-32.1
			C2024.3,950.8,2023.4,935.9,2044.9,938.6z"/>
	</g>
	<g>
		<path class="st23" d="M2016.9,1017.4c-0.1,7.8,8.9,26.4,10.3,32.2c1.4,5.8,3.6,7.6,1.7,15c-1.8,7.4-7.6,32.3-7.3,34.5
			c0.2,2.2,51.4,10.3,59.1,8.8c0,0-9.4-35.2-10.1-39.2c-0.7-4,0.8-19.1,1.2-23.4c0.3-4.3,4.7-13.4,4.5-17.7
			c-0.1-4.3-2.3-8.1-5.3-12.8c-0.9-1.4-1.9-2.9-2.9-4.3c-3.2-4.6-6.3-8.9-7.9-10.3c-1.2-1.1-2.2-1.9-3.2-2.5l0,0
			c-2-1.3-3.3-1.7-3.3-1.7l-13.7-2.2c0,0-8.5,3.1-13.5,4.2C2026.7,997.9,2017.1,999.3,2016.9,1017.4z"/>
	</g>
	<g>
		<path class="st23" d="M2057.1,997.5l7.9,12.5l7.3,11.6c0-0.1-0.5-1.8-1.3-6.9c-0.2-1-0.3-2-0.5-3.3c-0.1-0.4-0.1-0.7-0.2-1.1l0,0
			C2067.1,1003.2,2057.4,997.7,2057.1,997.5L2057.1,997.5z"/>
	</g>
	<g>
		<path class="st10" d="M2017.4,1010.8c0,0,2.2-14.8,13.1-12.4c10.5,2.4,0.7,21.8-0.1,24.1c-0.8,2.3-8.5,21.1-9.2,23.6
			c-2.1,7.8-0.1,8,3.1,9.8c9.4,5.4,28.8,5.1,31,6.6s2.1,6.1-1.7,6.3c-4.9,0.2-32.8-2.4-36.7-2.8c-3.8-0.4-11.3-0.7-9.3-14.1
			C2008.9,1042.9,2017.4,1010.8,2017.4,1010.8z"/>
	</g>
	<g>
		<path class="st10" d="M2034.3,976.3c1.4,2.6,2.8,18.8,2.8,18.8s19.5,7.4,17.5,3.2c-0.9-1.9-1.2-4.3-1.2-6.5c0-1.7,0.1-3.1,0.2-3.9
			c0.1-0.4,0.1-0.7,0.1-0.7S2032.9,973.7,2034.3,976.3z"/>
	</g>
	<g>
		<path class="st18" d="M2051.4,954.9c0,0-8.2,13.3-15.6,18.6c-7.4,5.2-3.7,9.4-3.7,9.4s-19.4-40.9-1-43.7
			c18.5-2.8,29.8-3,30.3,24.6C2061.5,963.8,2053.1,954.6,2051.4,954.9z"/>
	</g>
	<g>
		<path class="st14" d="M2042.5,986.3c3,4.4,10.9,5.6,10.9,5.6l0,0c0-1.7,0.1-3.1,0.2-3.9C2048.6,988.9,2042.5,986.3,2042.5,986.3z"
			/>
	</g>
	<path class="st23" d="M2070.2,1010.3L2070.2,1010.3c0,0,0.4,0.9,0.8,4.4l-2.9-4.3c0,0-5.1-7.4-6.9-9.3c-1.8-1.9-4.2-3.6-4.2-3.6
		S2067.2,1002.4,2070.2,1010.3z"/>
	<path class="st28" d="M2067.1,1026.2l-30.7-2.5c-1.3-0.1-2.5,0.9-2.6,2.2l-3.8,50.9c-0.1,1.3,0.8,2.4,2.1,2.5l29.5,3
		c1.3,0.1,2.5-0.8,2.6-2.1l5-51.4C2069.4,1027.5,2068.5,1026.3,2067.1,1026.2z"/>
	<path class="st10" d="M2038.1,1060.4c0,0,5.8,1,6.4,0.9c0.5-0.1,2.8-3.9,5.5-4.5c2.7-0.7,6-1.2,6.8-1.7s1,2.1-1.5,3.2
		c-2.6,1.1-3.2,2.5,1.6,3.5c2.7,0.5,12.6-0.6,11.7,1.1c-0.5,1-10,1.7-10,1.7s10.3,0,10.7,0.6c0.7,1.2-9.7,1.7-10.1,1.6
		c0,0,8.9,0.5,8.9,1.3c0.1,1-8.9,0.6-8.8,0.7c0,0,7,0.5,7,1.1c-0.1,0.8-6.3,0.9-7.5,0.7c-1.2-0.1-13.3-1.5-15.4-1.9
		s-5.5-0.6-5.5-0.6L2038.1,1060.4z"/>
	<path class="st10" d="M2027,1057.3c0,0,5.8,2,11.1,3.2c5.4,1.1-0.2,7.5-0.2,7.5s-9.3-0.9-13.7-1.3
		C2022.1,1066.5,2027,1057.3,2027,1057.3z"/>
	<path class="st23" d="M2031.4,1021.3c0,0-12.5-4.9-16.2-5.2c0,0,2.5-20.1,14.8-18C2042.3,1000.3,2031.4,1021.3,2031.4,1021.3z"/>
	<path class="st23" d="M2023.7,1136.1c1.6,10.8,4.5,26.1,5.4,37.4c0,0,8.8,1.8,21.7,3.3c3.5,0.4,7.3,0.8,11.2,1.2
		c6.9,0.6,14.4,1.1,22,1.2c-0.1-5.4,1-14.5,1.7-24.3c0.9-12.4-4-43.3-4.7-46.1c-0.1-0.3-0.2-0.6-0.3-1.1c-6.2-3.4-15.1-5.7-24.1-7.3
		c-4-0.7-7.9-1.2-11.7-1.6c-11.8-1.3-21.7-1.5-22.9-1.6C2019.6,1109.6,2021.9,1123.5,2023.7,1136.1z"/>
	<path class="st10" d="M2053.8,995.8c0,0,9.2,14.1,6.1,15.4c-3.1,1.2-19.9-1.6-27.1-15.1C2032.8,996.1,2043.5,990.6,2053.8,995.8z"
		/>
</g>
<g>
	<path class="st29" d="M1777.1,1141.9l-2.4-4.1c-0.7-1.2-0.3-2.8,0.9-3.4l13.6-7.8c1.2-0.7,2.8-0.3,3.4,0.9l2.4,4.1
		c0.7,1.2,0.3,2.8-0.9,3.4l-13.6,7.8C1779.3,1143.5,1777.8,1143.1,1777.1,1141.9z"/>
	<g>
		<g>
			<g>
				<g>
					<g>
						<path class="st10" d="M1779.3,1140c0,0-0.9-0.5-1.2-1c0,0-0.5-0.8-0.9-1.4c-0.1-0.2-0.2-0.3-0.3-0.4c-0.3-0.4-1.2-1.1-1.8-2.3
							c-0.6-1.2-1.7-6.8-1.7-6.8l2.9-1.5l2.5-1.8c0,0,6.6,4.3,7.2,5.4c0.1,0.1,0.1,0.2,0.2,0.3c0.5,0.9,0.4,1.8,0.6,2.3
							c0.1,0.2,0.6,2.1,0.3,2.6c-0.5,0.7-1.1,1-1.6,1c0,0-1,1.3-2,1.6c0,0-0.9,1.2-2.3,1.2C1781.1,1139.1,1780.1,1140.2,1779.3,1140
							z"/>
					</g>
				</g>
			</g>
		</g>
	</g>
	<g>
		<path class="st30" d="M1725.5,1153.8l-13-2.9c-1.3-0.3-2.2-1.6-1.9-2.9l1.8-8.2c0.3-1.3,1.6-2.2,2.9-1.9l13,2.9
			c1.3,0.3,2.2,1.6,1.9,2.9l-1.8,8.2C1728.1,1153.3,1726.8,1154.1,1725.5,1153.8z M1715,1139.5c-0.4-0.1-0.9,0.2-1,0.6l-1.8,8.2
			c-0.1,0.4,0.2,0.9,0.6,1l13,2.9c0.4,0.1,0.9-0.2,1-0.6l1.8-8.2c0.1-0.4-0.2-0.9-0.6-1L1715,1139.5z"/>
	</g>
	<g>
		<g>
			<g>
				<g>
					<g>
						<path class="st10" d="M1716.3,1142.7c0,0-0.3-1-0.3-1.5c0,0,0.2-0.9,0.3-1.6c0-0.2,0-0.4,0-0.5c0-0.5-0.1-1.6,0.2-2.8
							c0.3-1.2,3.1-6,3.1-6l3,0.8l2.9,0.3c0,0,2,7.4,1.8,8.5c0,0.1,0,0.2-0.1,0.3c-0.3,1-0.8,1.6-1,2.1c-0.1,0.2-0.9,1.9-1.5,2
							c-0.8,0.2-1.4,0-1.8-0.4c0,0-1.5,0.3-2.5-0.2c0,0-1.4,0.3-2.4-0.6C1718.2,1143.2,1716.8,1143.4,1716.3,1142.7z"/>
					</g>
				</g>
			</g>
		</g>
	</g>
	<g>
		<path class="st16" d="M1747.5,1075.3c-0.6,0.7-2.9,5-5.3,9.6l0,0c-0.4,0.8-0.8,1.5-1.2,2.3c-0.3,0.6-0.6,1.2-1,1.8
			c-0.3,0.6-0.7,1.3-1,1.9c-1.4,2.5-2.5,4.7-3.1,5.6c-1.6,2.7-4.3,12.7-5,14.6c-0.6,2-3.9,21.4-3.9,21.4s-10.3,0-9.9-0.7
			c0.3-0.8,4.2-21.8,5-24.9c1-4.2,5-15.3,5.4-16.1c0.4-0.8,8.7-18.2,9.9-21.2c1.2-3.2,1.8-6,6.8-12c5-5.9,10.7-2.8,10.7-2.8
			C1759.6,1058,1748.7,1073.8,1747.5,1075.3z"/>
	</g>
	<g>
		
			<rect x="1698" y="1141.3" transform="matrix(0.2178 -0.976 0.976 0.2178 203.9258 2586.9817)" class="st31" width="35.8" height="50"/>
	</g>
	<g>
		
			<rect x="1707.1" y="1134" transform="matrix(0.2178 -0.976 0.976 0.2178 212.3038 2582.8152)" class="st32" width="20.8" height="50"/>
	</g>
	<path class="st10" d="M1750.2,1050.9c0.6-3.3,0-8.2,0-8.2s12.2,5.7,10.1,7.2c-0.6,0.4-0.9,1.2-1.2,2.1c-0.7,2.6-0.5,6.6-0.5,6.6
		l4,4.7C1766.2,1068.2,1749.9,1052.5,1750.2,1050.9z"/>
	<g>
		<g>
			<path class="st33" d="M1709.7,1235.1c0,0,1.1,4.5,2.2,10.1c1,5.6,5.8,9.7,6.5,10.7s3.8,5,1.1,5.4c-2.7,0.5-13.8-6.9-16.8-11.2
				c0,0-1.8-4-2.1-4.3s-1.8,1-1.8,1l-2.8-2c0,0-1.2-0.9-1.6-1.4s0.6-3.4,0.7-3.6c0.2-0.3,5.1-7.1,8.3-8.6
				C1706.5,1229.8,1709.7,1235.1,1709.7,1235.1z"/>
		</g>
	</g>
	<g>
		<g>
			<path class="st34" d="M1802.3,1247.5c0,0,3.9,2.4,8.5,5.5c4.6,3.2,10.6,2.8,11.8,3c1.1,0.2,6,0.9,4.5,3
				c-1.5,2.2-14.1,4.6-19.1,3.7c0,0-4-1.5-4.3-1.5s-0.6,1.9-0.6,1.9l-3.3,0.6c0,0-1.4,0.2-2.1,0.1c-0.6-0.1-1.9-2.7-2-3
				s-1.4-8.4-0.3-11.6S1802.3,1247.5,1802.3,1247.5z"/>
		</g>
	</g>
	<g>
		<g>
			<path class="st10" d="M1713.3,1227.9c0,0-3.5,6.5-3.8,7.7c-0.2,1.2-5.5,1.2-6.5-3.7c0,0,4.1-8.3,4-8.5
				C1706.8,1223.2,1713.3,1227.9,1713.3,1227.9z"/>
		</g>
	</g>
	<g>
		<g>
			<path class="st33" d="M1750.1,1156.5c0,0-0.4,1.4-1,3.5c-0.4,1.4-0.9,3.1-1.5,5c-2.6,8.7-6.3,21.2-7,23c-1.1,2.7-6,10.8-6.7,11.3
				s-20,33.7-20.6,35.2c0,0-7.9-3.6-9.4-6.2c0,0,13.2-36.6,18.5-43c5.1-6.2,4.9-43.1,9.5-54.3
				C1736.6,1119.8,1752.9,1146.8,1750.1,1156.5z"/>
		</g>
	</g>
	<g>
		<g>
			<path class="st10" d="M1799.8,1240.2c0,0,2.1,6.9,2.8,7.8c0.6,0.9-2.9,4.5-7,1.8c0,0-2.9-8.5-3.2-8.5
				C1792.1,1241.2,1799.8,1240.2,1799.8,1240.2z"/>
		</g>
	</g>
	<g>
		<g>
			<path class="st35" d="M1764.2,1131.2c0,0,16.5,38.1,18.4,43.8c1.9,5.7,1,10.6,2,13s16.2,55.5,16.2,55.5s-8,4.4-11.7,2.6
				c0,0-13.7-35-16.6-40.7c-2.7-5.4-4.2-16.2-7.7-23.1c-2.4-4.9-32.5-42-32.8-55.7S1764.2,1131.2,1764.2,1131.2z"/>
		</g>
	</g>
	<g>
		<path class="st10" d="M1750.3,1051.3c0,0,4.7,1.9,6.3,6.2c1.6,4.3,0.9,10,1,12s3.3,21.3,3.7,21.9c0.4,0.6,6.9,12.5,9.6,18.6
			s8.4,13.8,8.4,13.8l-4.4,2.6c0,0-20.2-23.8-21.4-30.3c-1.2-6.5-9-26.1-9-26.1S1740.6,1055.7,1750.3,1051.3z"/>
	</g>
	<path class="st10" d="M1759.2,1015.5c4.1-0.1,13,2.2,14.1,13c0,0-0.4,2.9-1.2,5.2c-0.8,2.3,1.1,9,0.5,9.4c-0.5,0.3-2.8,0.7-2.8,0.7
		s-2.6,7.3-5.2,7.1c-2.6-0.1-12.3-2.4-16.6-11.7C1743.8,1029.9,1742.7,1015.8,1759.2,1015.5z"/>
	<path class="st27" d="M1773.3,1028.5c0,0-6.7,4.3-13.3,5c-6.6,0.7-10.9,7.4-10.9,7.4s-9.6-12.8-1.3-22.7
		C1756.1,1008.4,1775.1,1016,1773.3,1028.5z"/>
	<path class="st16" d="M1768.7,1088.9c-2,2.1-0.4,7.1-0.6,9.9c-0.1,0.7-0.3,3.2-0.6,6.5c-0.3,3.4-0.8,7.6-1.2,11.6l0,0
		c-0.2,1.6-0.4,3.2-0.5,4.7c-0.6,4.8-1.1,8.7-1.5,9.7c-1,2.8-23.2,2.9-31.9-6.6c0,0-1.5-3.1,8.5-21.3c2-3.6,0-21.7-1.6-26.5
		c-1.6-4.8-2.2-21.1,11-26c0,0,8,6.9,10.7,9.9c2.7,3.1,11.6,14.2,12.4,17.5C1774.1,1081.7,1770.9,1086.5,1768.7,1088.9z"/>
	<path class="st14" d="M1760.3,1049.9c-0.6,0.4-0.9,1.2-1.2,2.1c-4.7-2.8-7.1-7.1-7.2-7.2
		C1754.6,1047.9,1760.3,1049.9,1760.3,1049.9z"/>
	<path class="st16" d="M1768,1098.7c-0.1,0.7-0.3,3.2-0.6,6.5l0,0c-2,1.9-15.8-24.7-9.3-32.3c0,0,4.6,17.9,5.1,18.8
		C1763.7,1092.6,1768,1098.7,1768,1098.7z"/>
	<g>
		<path class="st16" d="M1750.4,1052c0,0,5.3,2.4,6.9,7c1.7,4.5,1,10.5,1,12.6c0.1,2.1,3.4,22.3,3.9,22.9c0.4,0.6,6.4,9.8,9.2,16.2
			c2.8,6.3,9.1,15,9.1,15l-7.6,4.2c0,0-18-22.8-19.8-29.5c-1.8-7.1-8.6-28.2-8.6-28.2S1738.9,1054.1,1750.4,1052z"/>
	</g>
	<path class="st16" d="M1741,1087.1c-0.3,0.6-0.6,1.2-1,1.8c-0.3,0.6-0.7,1.3-1,1.9c-0.5-5.4-0.7-18.7-0.7-18.7s0.6,3.9,1.2,6
		C1740.1,1080.1,1740.9,1086.2,1741,1087.1z"/>
	<path class="st27" d="M1757.3,1013.8c0,0-17.1-1.3-16.3,19.4c0.8,20.8-2.7,26.2-10.3,35.6c-7.5,9.4-0.9,21.1,6.4,15.1
		s15.7-19.7,15.9-34.3C1753.2,1035.1,1757.3,1013.8,1757.3,1013.8z"/>
	<path class="st10" d="M1757.3,1033.2c0-1.3-1.4-3.2-3.5-1.5c-2.1,1.7,0.5,7.8,2.2,7.2C1757.7,1038.4,1757.3,1034.5,1757.3,1033.2z"
		/>
	<path class="st36" d="M1749,1160c-0.4,1.4-0.9,3.1-1.5,5c-1.9-4-6.4-16.9-6.5-17.3C1742.1,1149.5,1748.9,1159.7,1749,1160z"/>
</g>
<g>
	<g>
		<rect x="2217.3" y="1076.6" class="st37" width="74.7" height="4.4"/>
	</g>
	<g>
		<rect x="2275.4" y="1092.6" class="st38" width="6.5" height="201.7"/>
	</g>
	<g>
		<rect x="2177" y="1075.4" class="st39" width="51.9" height="6.3"/>
	</g>
	<g>
		<rect x="2193.1" y="1021.3" class="st40" width="19.7" height="59.7"/>
	</g>
	<g>
		<rect x="2030.9" y="1081" class="st41" width="287.8" height="11.5"/>
	</g>
	<g>
		<path class="st42" d="M2374,1011.7c0,0,3.1,44.1-5.5,49.4c-5.4,3.3-26.9,14.5-26.3,16.6c0.6,2.1,12.2,18.6,12.2,18.6
			s41.4-27.2,42.7-35.8c1.3-8.4-2-64.6-7.7-67.2c-4.3-1.9-6.5-0.3-11.9,3.7C2370,1002.5,2374,1011.7,2374,1011.7z"/>
	</g>
	<g>
		<g>
			<g>
				<path class="st43" d="M2298.6,1024.3l-3.6-1.3c0,0,4.5-10.7,6.5-10.4c2.3,0.3,5.1,1.1,5.1,1.1L2298.6,1024.3z"/>
			</g>
		</g>
	</g>
	<g>
		<g>
			<g>
				<path class="st44" d="M2297.8,1026.1c0.5-0.3,7.8-14.3,7.8-14.3l15.6,2.1l-8.4,16.6L2297.8,1026.1z"/>
			</g>
		</g>
	</g>
	<g>
		<g>
			<g>
				<path class="st45" d="M2323.1,1266.8c0,0,1.3,8.9,1.4,10.3c0.2,1.3,14.3-0.8,14.3-0.8l1.1-10.6
					C2340,1265.6,2324.9,1265.5,2323.1,1266.8z"/>
			</g>
		</g>
	</g>
	<g>
		<g>
			<g>
				<path class="st22" d="M2324.4,1275.9c0,0-4.5,5.4-8.8,7.7c-4.3,2.3-11.2,3.3-13.7,5.7c-1.9,1.8-6.7,9.3,11.3,9.1
					c18-0.2,26.7,1.1,28.6-1.8c1.9-2.9-2.8-21.4-2.8-21.4S2334.7,1276.8,2324.4,1275.9z"/>
			</g>
		</g>
	</g>
	<g>
		<g>
			<g>
				<path class="st45" d="M2232.4,1266.8c0,0,1.3,8.9,1.4,10.3c0.2,1.3,14.3-0.8,14.3-0.8l1.1-10.6
					C2249.3,1265.7,2234.2,1265.6,2232.4,1266.8z"/>
			</g>
		</g>
	</g>
	<g>
		<g>
			<g>
				<path class="st22" d="M2233.7,1276c0,0-4.5,5.4-8.8,7.7c-4.3,2.3-20.3,4.3-22.9,6.7c-1.8,1.8-4.9,8.8,20.4,8.1
					c18-0.5,26.7,1.1,28.6-1.8c1.9-2.9-2.8-21.4-2.8-21.4S2244.3,1277,2233.7,1276z"/>
			</g>
		</g>
	</g>
	<g>
		<g>
			<g>
				<path class="st22" d="M2368.7,1112.5c0,0-51.5,8.7-63.1,10.5c-11.6,1.8-74.6,17.5-82.5,22.3c-6.3,3.8,3.3,95.1,5.5,130h24.8
					l1.8-104.5c29.8,0.7,51-7,72.7-3.7c21.7,3.3,39.8,8,53.6-10.5C2381.6,1156.6,2382.1,1116.5,2368.7,1112.5z"/>
			</g>
		</g>
	</g>
	<g>
		<g>
			<g>
				<path class="st22" d="M2318,1275.4l24.2-1.5l2.4-103.1c12.8,0.3,17.2-0.5,27.6-1.8l19.5-45.4c-17.1,3.4-71.9,17.3-79.3,21.7
					C2306.2,1149.1,2315.8,1240.5,2318,1275.4z"/>
			</g>
		</g>
	</g>
	<g>
		<g>
			<g>
				<path class="st10" d="M2345,919.6c0,0-18.9-5.2-26.1,9.4c-7.2,14.6-3.9,42.4,5.6,45s23.2-0.4,27.1-9.5
					c3.9-9.1,7.1-22.1,6.1-30.4C2356.9,925.7,2350.1,921.6,2345,919.6z"/>
			</g>
		</g>
	</g>
	<g>
		<g>
			<g>
				<path class="st10" d="M2329.5,971.1c0,0,0.2,11.1-1,13.5s26.3,1.8,26.3,1.8s-4.3-13.4-1.9-24.8
					C2355.3,950.4,2329.5,971.1,2329.5,971.1z"/>
			</g>
		</g>
	</g>
	<g>
		<g>
			<g>
				<path class="st46" d="M2354.3,957.4c0,0-1.5,3-8.6,2.5s-16.5-9.1-19.5-9.8c-3-0.8-3.2-2.5-3.2-2.5l-1.6,2.8l-3.1,0.5
					c0,0,2.1-8.6-2.5-11.6s2.1-27.4,25.3-21.5c0,0,17.7,3.2,17.9,13.1C2359.3,940.8,2357.8,952.2,2354.3,957.4z"/>
			</g>
		</g>
	</g>
	<g>
		<g>
			<g>
				<path class="st37" d="M2327,984.4c0,0,0.1-4.5,2.1-5c2.1-0.4,21.6-3.1,24.1-2.1l1.1,6C2354.4,983.2,2349.5,986.2,2327,984.4z"/>
			</g>
		</g>
	</g>
	<g>
		<g>
			<g>
				<path class="st10" d="M2321.4,945.6c0.5-3.7,4.8-8,7.2-2.2s-1.6,14.2-4.3,13.8C2321.5,956.7,2320.7,950.6,2321.4,945.6z"/>
			</g>
		</g>
	</g>
	<g>
		<g>
			<g>
				<path class="st42" d="M2245.1,1038C2245.1,1037.9,2245.1,1037.9,2245.1,1038C2245,1038,2245,1038,2245.1,1038z"/>
			</g>
		</g>
	</g>
	<g>
		<g>
			<g>
				<path class="st46" d="M2350.5,922.3c0,0,23-1.1,4,34.8L2350.5,922.3z"/>
			</g>
		</g>
	</g>
	<g>
		<g>
			<polygon class="st47" points="2401.8,1287.6 2400.1,1292.4 2327.8,1270 2331.3,1260.3 			"/>
		</g>
	</g>
	<g>
		<g>
			<rect x="2325.3" y="1188" class="st47" width="8.2" height="78.6"/>
		</g>
	</g>
	<g>
		<g>
			<rect x="2305.1" y="1183.8" class="st48" width="48.5" height="4.6"/>
		</g>
	</g>
	<g>
		<g>
			<polygon class="st47" points="2256.4,1287.6 2258.1,1292.4 2330.4,1270 2327.2,1259.7 			"/>
		</g>
	</g>
	<g>
		<g>
			<polygon class="st47" points="2307.4,1291.9 2307.4,1297.5 2330.4,1270 2327.2,1259.7 			"/>
		</g>
	</g>
	<g>
		<g>
			<path class="st49" d="M2249.7,1294.3c0,3.7,3,6.8,6.8,6.8c3.7,0,6.8-3,6.8-6.8s-3-6.8-6.8-6.8S2249.7,1290.6,2249.7,1294.3z"/>
		</g>
	</g>
	<g>
		<g>
			<path class="st49" d="M2306.8,1294.3c0,3.7,3,6.8,6.8,6.8s6.8-3,6.8-6.8s-3-6.8-6.8-6.8S2306.8,1290.6,2306.8,1294.3z"/>
		</g>
	</g>
	<g>
		<g>
			<path class="st49" d="M2395,1294.3c0,3.7,3,6.8,6.8,6.8c3.7,0,6.8-3,6.8-6.8s-3-6.8-6.8-6.8
				C2398.1,1287.5,2395,1290.6,2395,1294.3z"/>
		</g>
	</g>
	<g>
		<path class="st37" d="M2275.3,1183.8h107.6c2,0,3.6-1.6,3.6-3.6v-10.3c0-2-1.6-3.6-3.6-3.6h-107.6c-2,0-3.6,1.6-3.6,3.6v10.3
			C2271.7,1182.2,2273.3,1183.8,2275.3,1183.8z"/>
	</g>
	<g>
		<rect x="2067.9" y="1092.5" class="st38" width="6.5" height="201.7"/>
	</g>
	<g>
		<path class="st50" d="M2121.6,1050.1h162.6c2,0,3.6-1.6,3.6-3.6V933.9c0-2-1.6-3.6-3.6-3.6h-162.6c-2,0-3.6,1.6-3.6,3.6v112.6
			C2118,1048.5,2119.7,1050.1,2121.6,1050.1z"/>
	</g>
	<g>
		<rect x="2124.7" y="936.7" class="st51" width="156.5" height="94.6"/>
	</g>
	<g>
		<rect x="2124.7" y="936.7" class="st52" width="156.5" height="7.5"/>
	</g>
	<g>
		<path class="st52" d="M2132.7,1025.5h14.4c1.2,0,2.2-1,2.2-2.2v-71.1c0-1.2-1-2.2-2.2-2.2h-14.4c-1.2,0-2.2,1-2.2,2.2v71.1
			C2130.5,1024.5,2131.5,1025.5,2132.7,1025.5z"/>
	</g>
	<g>
		<path class="st52" d="M2243.6,956.9h32c0.7,0,1.2-0.5,1.2-1.2v-4.6c0-0.7-0.5-1.2-1.2-1.2h-32c-0.7,0-1.2,0.5-1.2,1.2v4.6
			C2242.4,956.4,2242.9,956.9,2243.6,956.9z"/>
	</g>
	<g>
		<path class="st52" d="M2244.9,1027.4h29.4c1.4,0,2.5-1.1,2.5-2.5v-60.8c0-1.4-1.1-2.5-2.5-2.5h-29.4c-1.4,0-2.5,1.1-2.5,2.5v60.8
			C2242.4,1026.3,2243.5,1027.4,2244.9,1027.4z"/>
	</g>
	<g>
		<path class="st53" d="M2197.5,1040.4c0,3,2.5,5.5,5.5,5.5s5.5-2.5,5.5-5.5s-2.5-5.5-5.5-5.5
			C2199.9,1034.9,2197.5,1037.3,2197.5,1040.4z"/>
	</g>
	<g>
		<path class="st54" d="M2167.8,1081.3v-2.1c0,0,3-13.3,24.2-13.3s20.8,15.4,20.8,15.4H2167.8L2167.8,1081.3z"/>
	</g>
	<g>
		<g>
			<path class="st10" d="M2213,1067.8c0,0-4.6-0.4-6.3-1.4s-11.8-7.8-14.2-6.7s-18.2,5.9-17.6,8.2c0.5,2.3,2,2.1,3.1,1.7
				s12.6-2.8,13.6-2.4c0,0-11.3,4.1-11.3,7.1s2.4,3.7,3.4,4.9c1.1,1.1,2.3,3.9,5.3,4.2c2.9,0.2,17.1-4.7,20-4.9
				c2.9-0.2,8.3,0.2,8.7-0.3C2218.1,1077.7,2213,1067.8,2213,1067.8z"/>
		</g>
	</g>
	<g>
		<g>
			<g>
				<path class="st42" d="M2296.9,990.6c14.7-2.6,30.1-6.3,30.1-6.3l27.4-1.1c0,0,25.1,5.5,35,10c0.9,0.4,0.9,22.4,3.5,28.2
					l-8.2,17.3c0,0-4.7,34.3-5.7,49.5c-0.5,7,1.3,67.6,1.3,67.6s-2.5,1.2-21.1,3.3c-18.7,2.1-65.3-0.7-65.6-2.9
					c-0.3-2.2,9-82.1,9.4-86.2c0.6-6.4-1.8-35.7-1.8-35.7c-3.5,4.7-12.5,26.1-21.8,36.2c-5.5,6-32.7,9.6-37.8,9.8
					c-11.2,0.4-31.5,2.6-32.1,1.5c-0.5-0.7-1.8-18.1-0.5-18.5c1.1-0.4,39-2.6,48.6-7.7c3.5-1.9,14.1-25,14.1-25
					S2288.8,994.3,2296.9,990.6z"/>
			</g>
		</g>
	</g>
	<g>
		<path class="st37" d="M2341.1,1154h65.3c3.8,0,6.9-3.1,6.9-6.9v-95.8c0-3.8-3.1-6.9-6.9-6.9h-65.3c-3.8,0-6.9,3.1-6.9,6.9v95.8
			C2334.2,1150.9,2337.3,1154,2341.1,1154z"/>
	</g>
	<g>
		<path class="st37" d="M2348.2,1179.5c11.7,0,21.1-3.9,28.1-11.7c15.8-17.5,13-48.2,12.9-49.5c-0.2-2.4-2.4-4.2-4.8-3.9
			c-2.4,0.2-4.2,2.4-3.9,4.8c0,0.4,2.6,28.2-10.6,42.7c-5.3,5.9-12.4,8.7-21.6,8.7c-2.4,0-4.4,2-4.4,4.4
			C2343.8,1177.5,2345.8,1179.5,2348.2,1179.5z"/>
	</g>
	<g>
		<path class="st55" d="M2205.2,975.4c0,12.2-9.8,22.1-22.1,22.1c-12.2,0-22.1-9.9-22.1-22.1c0-12.2,9.9-22.1,22.1-22.1
			S2205.2,963.2,2205.2,975.4z"/>
		<g>
			<g>
				<path class="st56" d="M2197.5,987.6l-1.6,5.8c-2.9,2.1-6.3,3.4-10.1,3.9c-0.7,0.1-1.3,0.1-2,0.2c-0.2,0-0.5,0-0.7,0
					c-0.7,0-1.4,0-2.1-0.1c-0.8-0.1-1.5-0.2-2.3-0.3c-3.4-0.7-6.4-2.1-9-4.1c-0.3-1.9-0.7-4.1-0.9-6.1c1.6-0.6,6.8-2.4,10.1-3.5h0.1
					c0.1,0,0.1-0.1,0.2-0.1c0.2-0.1,0.4-0.1,0.6-0.2c0.2-0.1,0.3-0.1,0.5-0.2c0.7-0.2,1.1-0.4,1.3-0.4l0,0h0.1l0,0l4.4,0.3l0.7,0.1
					h0.2c0,0,0,0,0.1,0c0.3,0.1,1,0.3,2.1,0.6l0,0C2191.7,984.2,2195.9,985.8,2197.5,987.6z"/>
			</g>
			<g>
				<path class="st57" d="M2184.3,964.4c0,0,5.3,0.9,4.4,9.1c-0.9,8.2-5.5,7.5-5.9,7.5c-0.3,0-4.7,0.1-4.9-10
					C2177.9,971.1,2177.8,963.6,2184.3,964.4z"/>
			</g>
			<g>
				<path class="st57" d="M2186.6,978.6c0,0-0.2,3.4,0.1,4.1c0.3,0.7-4.2,3.1-7.1,0.4c0,0,0.6-3.7,0.4-5
					C2179.9,976.9,2186.6,978.6,2186.6,978.6z"/>
			</g>
			<g>
				<path class="st57" d="M2188.8,971.2c0,0,0.6-0.6,0.8,0s-0.9,3.4-0.9,3.5c0,0-0.1,0.2-0.2,0.1
					C2188.3,974.7,2188.8,971.2,2188.8,971.2z"/>
			</g>
			<g>
				<path class="st57" d="M2178,971c0,0-0.6-0.6-0.8,0s0.6,3.4,0.7,3.6c0,0,0.2,0.3,0.3,0.2C2178.3,974.6,2178,971,2178,971z"/>
			</g>
			<g>
				<path class="st58" d="M2189.1,970.5c-0.2,1.1-0.4,2-0.4,2l-0.8,1c0,0,0-2.2-0.1-2.6c0-0.1-0.1-0.4-0.1-0.6
					c-0.1-0.4-0.2-0.9-0.2-1c-0.1-0.2-4.5-1.5-8.4,0.3c0,0,0,0.3,0,0.7s-0.1,0.9-0.3,1c-0.4,0.1-0.2,2.6-0.2,2.6l-0.6-0.7
					c0,0-0.2-1.3-0.4-2.8l0,0c0-0.3-0.1-0.7-0.1-1c-0.1-1.5,0.1-4.2,2-5.7c1.3-0.6,3.4-1,6.8,0c0,0,0.8,0.1,1,0.3
					C2189.5,966.2,2189.1,970.5,2189.1,970.5z"/>
			</g>
			<path class="st59" d="M2180.4,979.9c0,0,0.8,1.2,2.8,1.1c1.9,0,2.8-1.1,2.8-1.1s-0.9,1.9-2.8,1.9
				C2181.3,981.9,2180.4,979.9,2180.4,979.9z"/>
			<path class="st57" d="M2179.1,983.3c0,0,1.4,2.5,4.1,2.7c1.7,0.1,3.2-2,3.9-3.1C2187.1,982.9,2183.3,981.3,2179.1,983.3z"/>
			<path class="st13" d="M2186.6,982.1c0,0-1.1,1.4-3.4,2.9l1.4,2.2l2.4-4.3L2186.6,982.1z"/>
			<path class="st13" d="M2179.8,982.4c0,0,1.4,1.7,3.4,2.6l-1.6,2.3l-2.7-4L2179.8,982.4z"/>
			<path class="st16" d="M2183.2,985l1.2,1.9c0,0-1.3,0.7-2.5,0L2183.2,985z"/>
			<path class="st42" d="M2198.9,987.2C2198.9,987.2,2198.9,987.2,2198.9,987.2c-0.1,0.6-0.6,2.4-1.3,4.9c-0.3,0.2-0.5,0.4-0.8,0.6
				c-0.3,0.2-0.6,0.5-0.9,0.7c-2.9,2.1-6.3,3.4-10.1,3.9c0.3-7.7,1.2-14.4,1.2-14.4c0.7,0.2,1.4,0.4,2,0.6l0,0
				c5.6,1.6,8.5,3,9.4,3.6l0,0C2198.8,987.2,2198.9,987.2,2198.9,987.2z"/>
			<path class="st42" d="M2178.7,997.1c-3.4-0.7-6.4-2.1-9-4.1c-0.8-0.6-1.5-1.3-2.2-2c-0.1-0.1-0.3-0.3-0.4-0.4
				c-0.4-1.6-0.6-2.7-0.7-2.8l0,0c0,0,2.7-1.8,12.4-4.4l0,0C2178.8,983.6,2178.8,989.8,2178.7,997.1z"/>
			<path class="st16" d="M2183.9,987.1c-0.1,2-0.1,5.9-0.1,10.4c-0.2,0-0.5,0-0.7,0c-0.7,0-1.4,0-2.1-0.1c0.4-5.5,1.1-8.9,1.5-10.3
				c0.1-0.4,0.2-0.7,0.2-0.7l1.3,0.2C2183.9,986.8,2183.9,986.9,2183.9,987.1z"/>
			<g>
				<path class="st42" d="M2200.1,989.6c-0.8,0.9-1.6,1.7-2.5,2.5c-0.3,0.2-0.5,0.4-0.8,0.6c0,0,1.3-3.7,2.1-5.5
					C2199.5,987.6,2199.8,989,2200.1,989.6z"/>
			</g>
			<g>
				<path class="st42" d="M2167.4,991c-0.1-0.1-0.3-0.3-0.4-0.4c-0.5-0.5-1-1.1-1.4-1.6c0.2-0.6,0.5-1,0.7-1.1l0,0L2167.4,991z"/>
			</g>
		</g>
	</g>
</g>
<g>
	<path class="st60" d="M738.3,1238.8H569.2c-5.3,0-9.6-4.3-9.6-9.6V922.5c0-5.3,4.3-9.6,9.6-9.6h169.1c5.3,0,9.6,4.3,9.6,9.6v306.7
		C747.9,1234.5,743.6,1238.8,738.3,1238.8z"/>
	<path class="st0" d="M733.2,1226.1h-159c-5.3,0-9.5-4.3-9.5-9.5v-289c0-5.3,4.3-9.5,9.5-9.5h159c5.3,0,9.5,4.3,9.5,9.5v289
		C742.7,1221.9,738.5,1226.1,733.2,1226.1z"/>
	<rect x="625.7" y="910.4" class="st38" width="56.1" height="12.7"/>
	<g>
		<g>
			<g>
				<g>
					<path class="st61" d="M708.5,1213.8h-114c-9.2,0-16.7-7.5-16.7-16.7v-64.9c0-9.2,7.5-16.7,16.7-16.7h114
						c9.2,0,16.7,7.5,16.7,16.7v64.9C725.2,1206.3,717.7,1213.8,708.5,1213.8z M594.5,1117.6c-8,0-14.6,6.5-14.6,14.6v64.9
						c0,8,6.5,14.6,14.6,14.6h114c8,0,14.6-6.5,14.6-14.6v-64.9c0-8-6.5-14.6-14.6-14.6H594.5z"/>
				</g>
			</g>
		</g>
	</g>
	<g>
		<g>
			<path class="st42" d="M606.2,1056.9L606.2,1056.9C606.3,1056.9,606.3,1056.9,606.2,1056.9z"/>
		</g>
	</g>
	<g>
		<path class="st61" d="M705.2,1049.9c-10.2,0-18.6-8.3-18.6-18.6c0-10.2,8.3-18.6,18.6-18.6c10.2,0,18.6,8.3,18.6,18.6
			C723.8,1041.5,715.4,1049.9,705.2,1049.9z M705.2,1014.9c-9.1,0-16.4,7.4-16.4,16.4c0,9,7.4,16.4,16.4,16.4s16.4-7.4,16.4-16.4
			C721.6,1022.3,714.2,1014.9,705.2,1014.9z"/>
	</g>
	<g>
		<path class="st61" d="M705.2,1092.7c-10.2,0-18.6-8.3-18.6-18.6c0-10.2,8.3-18.6,18.6-18.6c10.2,0,18.6,8.3,18.6,18.6
			C723.8,1084.3,715.4,1092.7,705.2,1092.7z M705.2,1057.7c-9.1,0-16.4,7.4-16.4,16.4s7.4,16.4,16.4,16.4s16.4-7.4,16.4-16.4
			C721.6,1065,714.2,1057.7,705.2,1057.7z"/>
	</g>
	<g>
		<path class="st61" d="M621.5,1032.1c-1.5,0-3.1-0.1-4.6-0.2c-1.7-0.2-3.4-0.4-5-0.7c-7.1-1.4-13.9-4.5-19.7-9
			c-1.7-1.3-3.3-2.7-4.9-4.3c-0.3-0.3-0.6-0.6-0.9-0.9c-1.1-1.1-2.1-2.3-3.1-3.6c-6.6-8.5-10-18.7-10-29.4
			c0-26.5,21.6-48.1,48.1-48.1v2.2c-25.3,0-45.9,20.6-45.9,45.9c0,10.3,3.3,20,9.6,28.1c0.9,1.2,1.9,2.3,2.9,3.4
			c0.3,0.3,0.5,0.6,0.8,0.9c1.4,1.5,3,2.8,4.6,4.1c5.5,4.2,12,7.2,18.8,8.6c1.6,0.3,3.2,0.6,4.8,0.7c1.5,0.1,2.9,0.2,4.4,0.2
			c0.5,0,1,0,1.5,0c1.4,0,2.8-0.2,4.1-0.3c7.5-0.9,14.7-3.7,20.9-8.1c0.7-0.5,1.3-0.9,1.9-1.4c0.5-0.4,1.1-0.9,1.6-1.3
			c1.8-1.6,3.6-3.3,5.1-5.2c6.9-8.3,10.8-18.8,10.8-29.6c0-2.3-0.2-4.5-0.5-6.7l2.1-0.3c0.3,2.3,0.5,4.7,0.5,7.1
			c0,11.3-4,22.3-11.3,30.9c-1.6,1.9-3.4,3.8-5.4,5.5c-0.6,0.5-1.1,1-1.7,1.4c-0.6,0.5-1.3,1-2,1.5c-6.5,4.6-14,7.5-21.9,8.5
			c-1.4,0.2-2.9,0.3-4.3,0.3C622.6,1032.1,622,1032.1,621.5,1032.1z"/>
	</g>
	<path class="st61" d="M655.1,1009.5c-0.2-0.2-0.3-0.4-0.5-0.5c0-0.1-0.1-0.1-0.2-0.2l0,0l0,0c-9-5-25.2-9-25.2-9
		c-0.5-1.1-0.4-4.8-0.4-7.1c1.7-1.9,3.2-5,4.1-9.8c0.3,0.2,0.5-0.3,0.5-0.3c-0.1-0.3,2.3-6.2,1.8-7.5c-0.2-0.8-0.7-0.7-1.1-0.4
		c0.1-0.3,0.1-0.7,0.2-1.1c0,0,1-9.1-3.6-14.1c-0.5-0.5-2.2-0.6-2.2-0.6c-7.4-2.3-11.8-1.2-14.5-0.1c-4.1,3.4-4.4,9.1-4.2,12.2
		c0.1,0.7,0.2,1.5,0.3,2.2l0,0c0,0.3,0.1,0.6,0.1,0.8c-0.4-0.2-0.9-0.3-1.2,0.4c-0.5,1.3,1.3,7.2,1.5,7.6c0,0,0.4,0.6,0.7,0.3l0,0
		c0.8,5.2,2.4,8.4,4,10.3c-0.2,2.9-0.7,6.5-0.8,7.5l0,0c-3.8,1.2-22.6,6.2-28.3,10c-0.5,0.3-1,1.2-1.6,2.4c0.9,1.2,1.9,2.4,3,3.5
		c0.3,0.3,0.6,0.6,0.9,0.9c1.5,1.5,3.1,2.9,4.7,4.2c5.6,4.3,12.1,7.3,19.2,8.8c1.6,0.3,3.2,0.6,4.9,0.7c1.5,0.1,3,0.2,4.5,0.2
		c0.5,0,1,0,1.5,0c1.4,0,2.8-0.2,4.2-0.3c7.9-1,15.2-3.9,21.4-8.3c0.7-0.5,1.3-1,1.9-1.5c0.6-0.4,1.1-0.9,1.6-1.4
		c1.9-1.6,3.6-3.4,5.3-5.3C656.6,1012.1,655.8,1010.4,655.1,1009.5z"/>
	<g>
		<g>
			<path class="st42" d="M632.8,1064.6C632.8,1064.6,632.8,1064.5,632.8,1064.6C632.9,1064.6,632.9,1064.6,632.8,1064.6z"/>
		</g>
	</g>
	<g>
		<g>
			<g>
				<path class="st61" d="M580.4,1055.4h82.3c1.2,0,2.2-1,2.2-2.2v-5.9c0-1.2-1-2.2-2.2-2.2h-82.3c-1.2,0-2.2,1-2.2,2.2v5.9
					C578.1,1054.4,579.1,1055.4,580.4,1055.4z"/>
			</g>
		</g>
	</g>
	<g>
		<g>
			<g>
				<path class="st61" d="M580.4,1074.1h82.3c1.2,0,2.2-1,2.2-2.2v-5.9c0-1.2-1-2.2-2.2-2.2h-82.3c-1.2,0-2.2,1-2.2,2.2v5.9
					C578.1,1073.1,579.1,1074.1,580.4,1074.1z"/>
			</g>
		</g>
	</g>
	<g>
		<g>
			<g>
				<path class="st61" d="M580.4,1092.8h82.3c1.2,0,2.2-1,2.2-2.2v-5.9c0-1.2-1-2.2-2.2-2.2h-82.3c-1.2,0-2.2,1-2.2,2.2v5.9
					C578.1,1091.8,579.1,1092.8,580.4,1092.8z"/>
			</g>
		</g>
	</g>
	<path class="st61" d="M717.9,1005h-25.3c-2.3,0-4.1-1.9-4.1-4.1v-64.7c0-2.3,1.9-4.1,4.1-4.1h25.3c2.3,0,4.1,1.9,4.1,4.1v64.7
		C722,1003.2,720.1,1005,717.9,1005z"/>
</g>
<g>
	<g>
		<g>
			<g>
				<path class="st10" d="M485.3,1124.8c0,0,1,1.6,1.1,3c0.1,1.1,1,2.6,1.4,3.5s1.6,4.8,1.7,5.9c0,0.4-0.9,3.1-0.8,3.9
					c0.1,0.9,0.6,2.5-0.1,2.6c-0.8,0.1-1.6-1.3-1.6-1.3s0.1,0.8-0.6,1.1c-1.3,0.6-1.9,0.1-1.9,0.1s-0.5,0.9-1,1
					c-1.3,0.3-1.9-0.3-1.9-0.3s-0.6,0.5-1.5,0.5c-1.1,0-1.6-1-1.6-1s-1.4,0.3-1.9-0.4c-0.4-0.7-0.3-1.4-0.5-2s0-6.1,1.8-10
					c1.9-4-0.5-7.8-0.5-7.8L485.3,1124.8z"/>
			</g>
		</g>
	</g>
	<g>
		<g>
			<path class="st62" d="M487.1,1142c0,0,0.1-4.9-1.2-6c-1.3-1-1.4,0.7-1.4,0.7s0.2-1.8-1.2-2c-1.4-0.2-1.5,1.8-1.5,1.8
				s-0.2-1.4-1.7-1.1s-1.1,2-1.1,2s-1.4-1.7-2.3-0.1c-1.6,2.7-0.1,6-0.1,6s0.4,0.7,1.9,0.4c0,0,0.9,1.9,3.1,0.5c0,0,2.2,1.2,3-0.7
				C484.4,1143.6,486.8,1144.8,487.1,1142z"/>
		</g>
	</g>
	<path class="st42" d="M502,1053.9c0,0-8.4,28.1-11.3,38.5c-0.9,3.2-3.1,34.3-3.4,35.5c-0.4,1.2-11.1,3-11.1,3s1.3-38.8,1.4-40.9
		s11.8-45.5,15.2-47c2.5-1.2,3.9-0.2,7.1,2.2C504.4,1048.4,502,1053.9,502,1053.9z"/>
	<g>
		
			<rect x="582.8" y="1008" transform="matrix(0.8369 -0.5474 0.5474 0.8369 -455.2956 489.9218)" class="st16" width="23.1" height="1.7"/>
	</g>
	<path class="st63" d="M606.5,1009.2c0,0-0.2,1.1-0.5,1.5c0,0-0.6,0.8-1,1.3c-0.1,0.2-0.2,0.3-0.3,0.4c-0.3,0.5-0.7,1.5-1.6,2.5
		c-0.9,0.9-4.5,3.9-4.5,3.9l-3.1-2.6l-3.2-1.4c0,0,1.8-7.7,2.5-8.7c0.1-0.1,0.2-0.2,0.2-0.3c0.7-0.8,1.6-1,2-1.4
		c0.2-0.1,1.8-1.3,2.4-1.2c0.8,0.2,1.3,0.7,1.5,1.2c0,0,1.6,0.5,2.2,1.4c0,0,1.5,0.4,1.9,1.8C605,1007.7,606.4,1008.2,606.5,1009.2z
		"/>
	<g>
		<g>
			<path class="st45" d="M495.2,1245.7c0,0-0.8,5.3-0.9,6.1c-0.1,0.8-8.5-0.5-8.5-0.5l-0.7-6.3
				C485.1,1245,494.1,1244.9,495.2,1245.7z"/>
		</g>
	</g>
	<g>
		<g>
			<path class="st22" d="M494.4,1251.1c0,0,2.7,3.2,5.3,4.6c2.6,1.4,6.7,2,8.2,3.4c1.1,1,4,5.6-6.7,5.5c-10.8-0.1-15.9,0.6-17.1-1.1
				s1.7-12.8,1.7-12.8S488.2,1251.7,494.4,1251.1z"/>
		</g>
	</g>
	<g>
		<g>
			<path class="st45" d="M555.7,1245.7c0,0-0.8,5.3-0.9,6.1c-0.1,0.8-8.5-0.5-8.5-0.5l-0.7-6.3
				C545.6,1245,554.6,1244.9,555.7,1245.7z"/>
		</g>
	</g>
	<g>
		<g>
			<path class="st22" d="M554.9,1251.1c0,0,2.7,3.2,5.3,4.6s12.1,2.6,13.6,4c1.1,1,2.9,5.3-12.2,4.9c-10.8-0.3-15.9,0.6-17.1-1.1
				c-1.2-1.7,1.7-12.8,1.7-12.8S548.6,1251.7,554.9,1251.1z"/>
		</g>
	</g>
	<g>
		<g>
			<path class="st22" d="M502.2,1108.6c0,0-7.9,12.6-7.3,24s-2.9,23.9-4.1,35.8c-1.3,13.3-6.8,44.7-7,51.8
				c-0.2,7.1,0.8,29.8,0.8,29.8l10.9,0.2c0,0,9.1-55,11.5-60.6s14.1-45.6,14.5-50.1C521.9,1135.1,502.2,1108.6,502.2,1108.6z"/>
		</g>
	</g>
	<g>
		<g>
			<path class="st22" d="M544,1110.4c0,0,6,31.3,6.8,38.2c0.8,7,1.3,33.8,1.7,38.1c0.4,4.4,3.7,56.9,4.7,63.6h-13.9
				c0,0-10.7-38.3-10.7-56.5c0-18.1-8.3-39.4-13.6-51.4s-17.5-12.2-20.8-34.4C498.2,1108,539.5,1103.3,544,1110.4z"/>
		</g>
	</g>
	<g>
		<g>
			<path class="st10" d="M515.4,1002.6c0,0,10.7-4,15.6,4.1c4.9,8.1,4.4,24.4-0.9,26.3c-5.4,2-13.4,1-16.2-4.1
				c-2.7-5.1-5.2-12.4-5.1-17.3C508.9,1006.7,512.6,1004,515.4,1002.6z"/>
		</g>
	</g>
	<g>
		<g>
			<path class="st10" d="M528.9,1033.4c0,0-0.4,2.9,0.3,4.3c0.7,1.4-13.8,1.5-13.8,1.5s-1.2-7.7-3.4-14.2
				C509.7,1018.5,528.9,1033.4,528.9,1033.4z"/>
		</g>
	</g>
	<g>
		<g>
			<path class="st64" d="M512,1025c0,0,1,1.7,5.1,1c4.1-0.6,9.1-6.1,10.8-6.7c1.7-0.6,1.7-1.6,1.7-1.6l1.1,1.6l1.8,0.1
				c0,0-1.7-4.9,0.8-6.9s-2.6-15.8-15.7-11.2c0,0-10.1,2.8-9.7,8.5C508.2,1015.6,509.7,1022.1,512,1025z"/>
		</g>
	</g>
	<g>
		<g>
			<path class="st37" d="M530,1037.6c0,0,0-2.7-1.3-3c-1.2-0.3-13.5-1.4-15.1-0.9v3.2C513.7,1036.9,516.6,1038.7,530,1037.6z"/>
		</g>
	</g>
	<g>
		<g>
			<path class="st10" d="M529.3,1015.6c-0.2-1-2.7-3.7-3.6-0.8c-0.9,2.9,1.4,6.9,2.7,6.6C529.7,1021.1,529.9,1018,529.3,1015.6z"/>
		</g>
	</g>
	<g>
		<g>
			<path class="st42" d="M550.4,1041.7c-8.4-1.1-20.4-4.1-20.4-4.1l-16.3-0.7c0,0-15,3.3-20.9,6c-0.6,0.3-0.6,13.4-2.1,16.8
				l4.9,10.3c0,0,2.8,20.5,3.4,29.5c0.3,4.2-5.8,39.2-5.8,39.2s6.5,1.9,17.7,3.2c11.1,1.2,39-0.4,39.2-1.8c0.2-1.3-5.4-49-5.6-51.5
				c-0.4-3.8,1.3-23.9,1.3-23.9c2.6-2,25.2-12.5,31.3-17.9c1.7-1.5,8.6-8.2,10.6-10.6c7-8.3,12.8-15.4,13.5-16.9
				c0.8-0.9-7.6-5.4-8.4-5.7c-0.7-0.2-10.1,12.1-13.8,16c-1.6,1.8-8.4,6.7-8.4,6.7S555.7,1042,550.4,1041.7z"/>
		</g>
	</g>
	<g>
		<g>
			<path class="st64" d="M512.4,1003.5c0,0-13.6,1.1-0.4,21.4L512.4,1003.5z"/>
		</g>
	</g>
	<polygon class="st65" points="604.4,1003.3 605.5,1001.6 603.5,1001.9 	"/>
</g>
<g>
	<g>
		<polygon class="st22" points="738.4,1050.6 708.9,1066.8 679.4,1020.3 715.1,1007.8 		"/>
	</g>
	<g>
		<polygon class="st37" points="736.5,1049.2 709,1064.3 681.4,1020.8 714.8,1009.2 		"/>
	</g>
	<g>
		<path class="st10" d="M746.6,1041.1c0,0-5.1-2.5-7.4-3.7c-2.2-1.3-8-3-8.5-3.5c-0.5-0.4-17.1-1.4-18.2-2.3c-1-0.9-2,2,2.3,3
			c4.3,0.9,10.3,3.3,10.7,5c0.3,1.7-4.4,2.1-4.9,3.5s0.1,1.1,0.8,1.4s5.7-2.5,7.9-1.7c2.2,0.8,5.5-0.3,7.2,0.3s9.9,3.3,9.9,3.3
			L746.6,1041.1z"/>
	</g>
	<g>
		<path class="st10" d="M707.5,1060.9c0,0-4.3-3.9-6.4-5.5c-2.1-1.6-6-6.4-6.6-6.7c-0.6-0.3-8-15.6-9.3-16.2c-1.2-0.6,1.2-2.7,3.7,1
			c2.6,3.7,7.1,8.5,8.8,8.1s0.2-5,1.4-6c1.1-1,1.1-0.3,1.6,0.2s-0.1,6.3,1.5,8.1c1.6,1.8,1.9,5.3,3.1,6.7c1.2,1.4,7,8,7,8
			L707.5,1060.9z"/>
	</g>
	<g>
		<path class="st45" d="M800.2,1267.9c0,0,0.9,6.5,1,7.4c0.1,1,10.4-0.6,10.4-0.6l0.8-7.7C812.4,1267.1,801.5,1267,800.2,1267.9z"/>
	</g>
	<g>
		<path class="st22" d="M801.1,1274.5c0,0-3.2,3.9-6.4,5.6c-3.1,1.7-8.1,2.4-9.9,4.1c-1.3,1.3-4.9,6.7,8.2,6.6
			c13-0.1,19.3,0.8,20.7-1.3c1.4-2.1-2-15.4-2-15.4S808.6,1275.2,801.1,1274.5z"/>
	</g>
	<g>
		<path class="st45" d="M726.8,1267.9c0,0,0.9,6.5,1,7.4c0.1,1,10.4-0.6,10.4-0.6l0.8-7.7C739.1,1267.1,728.1,1267,726.8,1267.9z"/>
	</g>
	<g>
		<path class="st22" d="M727.8,1274.5c0,0-3.2,3.9-6.4,5.6c-3.1,1.7-14.7,3.1-16.5,4.8c-1.3,1.3-3.6,6.4,14.8,5.9
			c13-0.3,19.3,0.8,20.7-1.3c1.4-2.1-2-15.4-2-15.4S735.4,1275.3,727.8,1274.5z"/>
	</g>
	<g>
		<path class="st22" d="M791.7,1101.9c0,0,9.6,15.3,8.9,29.1c-0.7,13.8,3.5,28.9,4.9,43.3c1.6,16.1,8.2,54.2,8.4,62.8
			s-1,36.1-1,36.1l-13.2,0.3c0,0-11.1-66.6-14-73.4s-17.1-55.2-17.6-60.7C767.7,1134,791.7,1101.9,791.7,1101.9z"/>
	</g>
	<g>
		<path class="st22" d="M741.1,1104c0,0-7.2,37.9-8.2,46.3c-1,8.4-1.6,40.9-2.1,46.2c-0.5,5.3-3.2,69.2-5.7,77H742
			c0,0,13-46.4,13-68.4s10-47.8,16.5-62.3s21.2-14.8,25.2-41.7C796.5,1101.1,746.4,1095.5,741.1,1104z"/>
	</g>
	<g>
		<path class="st10" d="M775.7,973.4c0,0-12.9-4.8-18.9,5s-5.4,29.5,1.1,31.9s16.3,1.2,19.6-5s6.3-15,6.2-21
			C783.6,978.4,779,975.1,775.7,973.4z"/>
	</g>
	<g>
		<path class="st10" d="M759.3,1010.8c0,0,0.5,3.5-0.4,5.2s16.7,1.8,16.7,1.8s1.4-9.3,4.1-17.2
			C782.5,992.6,759.3,1010.8,759.3,1010.8z"/>
	</g>
	<g>
		<path class="st46" d="M779.8,1000.5c0,0-1.2,2-6.2,1.2s-11-7.4-13.1-8.1c-2.1-0.7-2.1-1.9-2.1-1.9l-1.3,1.9l-2.2,0.1
			c0,0,2-5.9-1-8.3c-3-2.4,3.1-19.1,19.1-13.6c0,0,12.2,3.4,11.8,10.3C784.4,989.1,782.6,997.1,779.8,1000.5z"/>
	</g>
	<g>
		<path class="st37" d="M757.9,1015.8c0,0,0.1-3.3,1.5-3.6c1.5-0.3,16.4-1.8,18.2-1v3.8C777.7,1015,774.2,1017.2,757.9,1015.8z"/>
	</g>
	<g>
		<path class="st10" d="M758.8,989.2c0.3-1.2,3.2-4.5,4.4-0.9c1.1,3.6-1.7,8.4-3.3,8C758.3,995.8,758.1,992.1,758.8,989.2z"/>
	</g>
	<g>
		<path class="st42" d="M698.7,1054.6L698.7,1054.6C698.6,1054.6,698.6,1054.6,698.7,1054.6z"/>
	</g>
	<g>
		<path class="st42" d="M802.6,1138.3c0,0-7.9,2.3-21.4,3.8s-47.2-0.5-47.5-2.1c-0.2-1.6,7.3-59.4,6.8-62.4
			c-0.4-3-0.7-13.6-0.7-13.6c-0.2,2.9-3.1,14.8-6.7,21.3c-1.3,2.3-5.6,9.7-7.7,8c-10.1-8.1-25.8-38.5-26.8-38.7
			c0.8-0.4,7.4-3.4,8.3-3.7c0.8-0.3,8.1,7.5,12.5,12.2c2,2.1,3.4,3.7,3.4,3.7c1.3-2.9,5.9-21,7.4-27.2c3.3-14.1,2.8-14.7,2.8-14.7
			c9.9-3,24.9-9.1,24.9-9.1l19.8-0.8c0,0,18.2,4,25.3,7.2c0.7,0.3,0.7,16.2,2.5,20.4l-5.9,12.5c0,0-3.4,24.8-4.1,35.8
			C795.2,1095.9,802.6,1138.3,802.6,1138.3z"/>
	</g>
	<g>
		<path class="st42" d="M806.4,1063.2c-0.5,1.7-2.9,3.1-4.4,3.7c-1,0.4-2.1,0.5-3.2,0.3l-0.8-0.1l0,0l-13.6-2.5
			c0,0-3-34.2,18.5-42.4C803.6,1022.4,811.1,1047.9,806.4,1063.2z"/>
	</g>
	<g>
		<path class="st66" d="M802,1066.9L802,1066.9c-1,0.4-2.1,0.5-3.2,0.3l-0.8-0.1l0,0l1.3-17.5L802,1066.9z"/>
	</g>
	<g>
		<path class="st66" d="M722.9,1066.8l-1.7,7c0,0-1.8-7-1.7-10.7C721.5,1065.2,722.9,1066.8,722.9,1066.8z"/>
	</g>
	<g>
		<path class="st46" d="M779.3,974.6c0,0,16.9-2,0.3,26.3L779.3,974.6z"/>
	</g>
	<g>
		<polygon class="st22" points="693,1017.8 691.3,1014.8 704.8,1010.1 706.5,1013.1 		"/>
	</g>
</g>
<g>
	<g>
		<path class="st67" d="M1974.8,1263.6c0,0,7,9.8,6,11.4s-8.3,1.8-12.8,0s-4.6-13.3-6.6-18.3c-0.8-2.1,1-8.2,3.5-8.6
			s5.3,0.9,5.3,0.9S1967.6,1256,1974.8,1263.6z"/>
	</g>
	<g>
		<g>
			<path class="st10" d="M1970.3,1248.9c0,0,1.5,4.2,2,8.2c0.4,3.3,5,10.4,4.8,11.3s-6,1.7-8.3-0.6c-2.3-2.3-3.9-9-4.4-13
				c-0.5-3.7-1.1-5.6-1.1-5.6S1968.1,1246.5,1970.3,1248.9z"/>
		</g>
	</g>
	<g>
		<path class="st67" d="M1913.9,1263.8c0,0,6.7,9.7,5.8,11.2c-1,1.6-8.3,1.8-12.8,0s-4.6-13.3-6.6-18.3c-0.8-2.1,1-8.2,3.5-8.6
			c2.6-0.4,5.5,1,5.5,1S1906.7,1256.1,1913.9,1263.8z"/>
	</g>
	<g>
		<g>
			<path class="st10" d="M1909.3,1249.1c0,0,0.5,4.6,1.4,7.8c0.9,3.2,5.4,10.6,5.2,11.5c-0.2,0.9-6,1.7-8.3-0.6
				c-2.3-2.3-4.2-8.9-4.4-13c-0.2-4,0.5-6.6,0.5-6.6S1907.1,1246.6,1909.3,1249.1z"/>
		</g>
	</g>
	<g>
		<g>
			<path class="st10" d="M1943,1089c0,0,6,29.2,7.4,36.5c1.4,7.3,5.2,42.9,5.7,49c0.4,6,6.3,28.8,6,31c-0.3,2.2,8.7,45.5,8.7,45.5
				s-3.1,2.6-6.3,0.2c-1.7-1.2-19.7-40.6-19.7-51.4c0-14.9-10.6-34.4-11.9-37.8c-12.7-31-10.2-40.5-11.8-42.5
				c-1.7-2-1.8,1.2-2.8,5.7s-3,43.1-4.3,47.9c-1.2,4.9-0.3,21.5-1,29.8c-0.7,8.4-3.7,46.1-3.7,46.1s-2.3,3.8-5.6,0.1
				c-0.7-0.8-5.7-42.1-5.8-52c-0.1-9.9-0.3-23.6-0.6-27.9c-2.6-41.2-8.8-47.1,1.1-76.2C1916.9,1038.5,1943,1089,1943,1089z"/>
		</g>
	</g>
	<g>
		<path class="st68" d="M1902.7,1080.8c0,0-17.1,25-9.7,78.2c0,0,40.6,5.8,62.3-6.7c0,0-9-54.8-12.3-63.4
			C1939.8,1080.4,1902.7,1080.8,1902.7,1080.8z"/>
	</g>
	<g>
		<polygon class="st67" points="1961.2,1255.9 1961.2,1266.2 1962.5,1266.2 1962.5,1258.2 		"/>
	</g>
	<g>
		<polygon class="st67" points="1900,1255.9 1900,1266.2 1901.3,1266.2 1901.3,1258.2 		"/>
	</g>
	<path class="st10" d="M1923,970c0,0,11.5,11.5,7.6,26.4s-10.2,15-17.1,8.6s-11-13.1-11.9-20.6C1900.6,976.9,1912.5,959.7,1923,970z
		"/>
	<path class="st10" d="M1925.2,1019.6c0,0-1.7-3.9-2.9-8.3c-0.2-0.8-0.4-1.6-0.6-2.3c-0.6-2.8-0.8-5.5-0.2-7.3
		c1.8-5.4-11.5-1.7-11.5-1.7s2.6,14.3,0,19.1C1907.5,1023.9,1925.2,1019.6,1925.2,1019.6z"/>
	<path class="st13" d="M1884.8,1065.9c0.2,1.8,8.6,1.4,17.5,0.5v0.1c0.2,0.8,0.4,1.5,0.5,2s0.3,1.1,0.4,1.7
		c0.9,5.1,0.8,12.3-0.9,18.5c0,0,22.5,8.4,36.5,0.7c0,0-1.5-12.2,0.7-20.1c2.2-7.9,14-35.4,14-35.4s-8.5-12.3-15-14.5
		s-14.8-3.6-14.8-3.6l-12.1,0.4c0,0-10.1,2.6-12.4,3.3c-4,1.3-5.6,2.6-7.7,6.8C1888.6,1032.1,1883.8,1057.8,1884.8,1065.9z
		 M1897.5,1052.4c0,0,1.1,2.4,2.1,5.2c-0.8,0.1-1.6,0.1-1.9,0.1C1894.5,1058.2,1896.9,1054.1,1897.5,1052.4z"/>
	<path class="st58" d="M1919.2,978.3c0,0-5.5,10-8.9,13.5c-3.4,3.6-3,6.4-3,6.4s-13.3-16.4-3.8-26.3c9.5-9.9,21.7-5.9,25.3,2.7
		c3.6,8.6,2.3,19.2,2.3,19.2S1930.9,983.7,1919.2,978.3z"/>
	<path class="st58" d="M1915.6,967.8c0,0,1.3-7.3-10.1-10.2s-16.6,10.3-15.2,18.3s11.2,28.4,5.9,31.1c-5.3,2.7-7.4-3.1-7.4-3.1
		s1.7,10,9,7.7c7.4-2.3,6.4-18.6,5.3-25.1C1902,980.1,1915.6,967.8,1915.6,967.8z"/>
	<path class="st14" d="M1911.9,1003.5c0,0.1,2.9,6.8,10.4,7.8c-0.2-0.8-0.4-1.6-0.6-2.3C1921.7,1008.9,1917.7,1009.8,1911.9,1003.5z
		"/>
	<path class="st69" d="M1897.7,1052.5c0,0,0.5,1.2,2,5.7c1.5-12.7,0.7-19.4,0.7-19.4C1900.3,1045.6,1897.7,1052.5,1897.7,1052.5z"/>
	<path class="st13" d="M1913.8,966.3c0,0-8.1,1.6-12.2,8.2c0,0,0.8-6,4.9-7.7C1910.6,965,1913.8,966.3,1913.8,966.3z"/>
	<path class="st69" d="M1902.3,1066.5c0.2,0.8,0.4,1.5,0.5,2s0.3,1.1,0.4,1.7c5-2.7,8.6-4.9,8.6-4.9
		C1910.5,1065.6,1902.3,1066.5,1902.3,1066.5z"/>
	<path class="st10" d="M1910.9,1016.4l14.3,11.7l-1.5-12.3C1923.7,1015.8,1915.4,1014,1910.9,1016.4z"/>
	<polygon class="st70" points="1921.1,1026.1 1925.2,1028 1911.2,1014.1 	"/>
	<path class="st71" d="M1901.5,1065.5c2,8.2-5.3,26.5-5.3,26.5l14.4,4.5c2.1,0.6,4.3-0.6,4.7-2.7c1.9-9,6.5-31.1,7-43.4
		c0.7-15.7-10.7-34.2-10.7-34.2c-20.3,3.5-14.7,34.2-14.7,34.2s0.7,1.9,1.7,5l0,0c0.2,0.8,0.5,1.6,0.8,2.5
		C1900.1,1060.1,1900.8,1062.7,1901.5,1065.5z"/>
	<path class="st71" d="M1925.2,1016.4l-0.3-0.7c0,0,10.4,1.6,15.7,4.2c5.3,2.6,15.4,16.3,15.4,16.3l-13.2,17.5
		c0,13.4,2.2,37.3,2.2,37.3l-6,3.5c-1.6,0.9-3.7-0.2-3.7-2.1c-0.2-9.1-0.6-30.6-0.8-41c-0.3-13.4-9.8-35.1-9.8-35.1
		C1924.8,1016.3,1925,1016.4,1925.2,1016.4z"/>
	<path class="st10" d="M1944,1079.3c0,0-10,0.4-11.5,0c-1.6-0.4-11.9-4.9-12.5-9.3s24,4,24,4V1079.3z"/>
	<polygon class="st72" points="1913.1,1065.5 1953.5,1060.8 1935.3,1075.6 	"/>
	<polygon class="st42" points="1935.3,1075.6 1913.1,1068.1 1913.1,1065.5 1936,1072.8 	"/>
	<g>
		<path class="st10" d="M1924.8,1058.1c0,0,3.3,0,5.2-0.4c1.4-0.3,5.1,0.1,6,0.9s3.8,6.5,4.4,6.8c0.6,0.3-0.3,1.1-1.3,0.7
			c0,0-0.9,2.5-3.1,1.6s-3.7-3-4.8-3.3c-1.2-0.4-7.9-2.2-7.9-2.2S1923.1,1057.5,1924.8,1058.1z"/>
	</g>
	<polygon class="st73" points="1923,1013.5 1930.7,1025.7 1934.4,1028 1925.7,1015.9 	"/>
	<polygon class="st70" points="1930.7,1025.7 1925.2,1028 1923.7,1015.8 1923,1013.5 	"/>
	<path class="st71" d="M1942.8,1073.6c0,0,0.4,5.2,0,6.2c0,0,24.9-2.5,27.3-6c2.3-3.5,2.2-7.7,2.2-7.7L1942.8,1073.6z"/>
	<polygon class="st74" points="1935.3,1075.6 1947.1,1031.8 1991.9,1027 1979.6,1067.4 	"/>
	<polygon class="st73" points="1911.2,1014.1 1921.1,1026.1 1915.7,1030.9 1909.8,1016.6 	"/>
	<path class="st75" d="M1898.3,1054.3l0.3,1c0.2,0.8,0.5,1.6,0.8,2.5c1.9,0.6,18.5-0.6,18.5-0.6S1904,1053.9,1898.3,1054.3z"/>
	<path class="st71" d="M1899.2,1057.5c2.7-0.2,7-0.5,10.6-0.5c5.6,0,15.1,0.6,15.1,0.6l-1.1,5.9c0,0-16.9,2.7-26.1,3.4l0,0
		c0,0-12.2,1.4-13.1-0.4c-0.9-1.8,0.3-13.5,2.3-24s4-16.5,6.4-19.8c2.4-3.2,15.2-5.8,15.2-5.8l-10.8,35.5c0,0-1.6,3.2-1.5,4.5
		c0,0.4,0.3,0.6,0.7,0.7c0.3,0,0.9-0.1,1.7-0.1L1899.2,1057.5z"/>
</g>
</svg>
