<?xml version="1.0" encoding="UTF-8"?>
<svg id="Layer_1" data-name="Layer 1" xmlns="http://www.w3.org/2000/svg" viewBox="0 0 478.63 447.38">
  <defs>
    <style>
      .cls-1, .cls-2 {
        fill: #c2c2c2;
      }

      .cls-1, .cls-3, .cls-4, .cls-5, .cls-6, .cls-7, .cls-8 {
        stroke-width: 0px;
      }

      .cls-9, .cls-2, .cls-10, .cls-11, .cls-12, .cls-13, .cls-14, .cls-15, .cls-16, .cls-17, .cls-18, .cls-19, .cls-20, .cls-21, .cls-22, .cls-23, .cls-24 {
        stroke: #263238;
      }

      .cls-9, .cls-2, .cls-10, .cls-11, .cls-12, .cls-14, .cls-15, .cls-25, .cls-16, .cls-17, .cls-26, .cls-18, .cls-19, .cls-27, .cls-20, .cls-21, .cls-23, .cls-24 {
        stroke-linecap: round;
        stroke-linejoin: round;
      }

      .cls-9, .cls-4, .cls-6 {
        fill: #fff;
      }

      .cls-10 {
        fill: #f2f2f2;
      }

      .cls-11, .cls-3, .cls-15 {
        fill: #263238;
      }

      .cls-11, .cls-12 {
        stroke-width: 1px;
      }

      .cls-4, .cls-6, .cls-27 {
        isolation: isolate;
      }

      .cls-4, .cls-28 {
        opacity: .2;
      }

      .cls-5, .cls-20 {
        fill: #0027a0;
      }

      .cls-12, .cls-16, .cls-26, .cls-8 {
        fill: #ff8a00;
      }

      .cls-13 {
        stroke-width: 3px;
      }

      .cls-13, .cls-25, .cls-17, .cls-18, .cls-19, .cls-27, .cls-22, .cls-24 {
        fill: none;
      }

      .cls-13, .cls-22 {
        stroke-miterlimit: 10;
      }

      .cls-14 {
        fill: #004efb;
      }

      .cls-6 {
        opacity: .7;
      }

      .cls-7 {
        fill: #000;
      }

      .cls-25, .cls-26 {
        stroke: #878787;
      }

      .cls-17, .cls-22 {
        stroke-width: 2px;
      }

      .cls-18 {
        stroke-width: 4px;
      }

      .cls-27 {
        opacity: .3;
        stroke: #000;
      }

      .cls-21 {
        fill: #878787;
      }

      .cls-23 {
        fill: #ffbe9d;
      }

      .cls-24 {
        stroke-dasharray: 0 0 0 0 0 0 0 0 0 0 0 0;
      }
    </style>
  </defs>
  <g id="freepik--background-simple--inject-159">
    <g>
      <path class="cls-5" d="M465,255c-13.49,40.9-42.56,85.72-85.35,100.32-64.64,22.05-70.42,75.07-187.74,74.71-18.29-.05-35.27-1.97-50.94-5.47-8.42-1.88-16.47-4.23-24.12-7C47.36,392.48,9.31,332.86,3.88,269.15c-7.16-83.79,49.87-126.07,87.03-150.97C128.07,93.28,170.44.73,285.77.18c17.58-.08,35.2,1.65,52.36,5.59,39.16,8.99,79.46,30.67,103.66,63.7,1.82,2.48,3.56,5.03,5.23,7.62,32.65,50.8,36.37,122.14,17.97,177.9h0Z"/>
      <path class="cls-6" d="M465.16,254.82c-13.49,40.9-42.56,85.72-85.35,100.32-64.64,22.05-70.42,75.07-187.74,74.71-18.29-.05-35.27-1.97-50.94-5.47-8.42-1.88-16.47-4.23-24.12-7C47.52,392.3,9.47,332.68,4.04,268.97c-7.16-83.79,49.87-126.07,87.03-150.97C128.23,93.1,170.6.55,285.93,0c17.58-.08,35.2,1.65,52.36,5.59,39.16,8.99,79.46,30.67,103.66,63.7,1.82,2.48,3.56,5.03,5.23,7.62,32.65,50.8,36.37,122.14,17.97,177.9h.01Z"/>
    </g>
  </g>
  <g id="freepik--Floor--inject-159">
    <g>
      <line class="cls-19" x1="456.69" y1="432.91" x2="471.65" y2="432.91"/>
      <line class="cls-19" x1="3.85" y1="432.91" x2="447.81" y2="432.91"/>
    </g>
  </g>
  <g id="freepik--Locators--inject-159">
    <path class="cls-27" d="M43.18,55.1c-15.17,0-27.46,12.29-27.46,27.46s27.46,42.82,27.46,42.82c0,0,27.46-27.66,27.46-42.82s-12.29-27.46-27.46-27.46ZM43.18,92.29c-5.38,0-9.73-4.36-9.73-9.73s4.36-9.73,9.73-9.73,9.73,4.36,9.73,9.73-4.36,9.73-9.73,9.73Z"/>
    <path class="cls-27" d="M415.63,346.46c-9.7,0-17.56,7.86-17.56,17.56s17.56,27.38,17.56,27.38c0,0,17.56-17.68,17.56-27.38s-7.86-17.56-17.56-17.56ZM415.63,370.24c-3.44,0-6.22-2.79-6.22-6.22s2.79-6.22,6.22-6.22,6.22,2.79,6.22,6.22-2.79,6.22-6.22,6.22Z"/>
    <path class="cls-27" d="M436.77,22.46c-9.7,0-17.56,7.86-17.56,17.56s17.56,27.38,17.56,27.38c0,0,17.56-17.68,17.56-27.38s-7.86-17.56-17.56-17.56h0ZM436.77,46.24c-3.44,0-6.22-2.79-6.22-6.22s2.79-6.22,6.22-6.22,6.22,2.79,6.22,6.22-2.79,6.22-6.22,6.22Z"/>
  </g>
  <g id="freepik--Plants--inject-159">
    <g>
      <g class="cls-28">
        <path class="cls-7" d="M431.55,277.67c-3.53-1.92-8.89-9.16-8.89-9.16-.06-.08,5.84-2.08,6.23-2.17,4.48-.97,13.7-.22,16.27,4.22,1.85,3.2.21,7.05-3.02,8.51-3.3,1.49-7.58.24-10.58-1.39h-.01Z"/>
        <path class="cls-7" d="M409.04,291.2c-2.78-2.68-5.87-10.45-6.11-11.07-4.33,1.76-8.92,3.21-13.64,4.42-2.7.7-5.44,1.31-8.19,1.9,1.3-.08,2.46-.14,2.62-.13,4.57.24,13.27,3.4,14.58,8.36.95,3.57-1.66,6.86-5.16,7.41-3.58.57-7.38-1.77-9.84-4.14-2.5-2.41-5.26-8.98-5.97-10.73-1.06.21-2.11.44-3.17.65-5.09,1-10.17,1.98-15.12,3.09-1.75.39-3.45.84-5.16,1.28,1.15-.07,2.12-.12,2.27-.11,4.57.24,13.27,3.4,14.58,8.36.94,3.57-1.66,6.86-5.16,7.41-3.58.57-7.38-1.77-9.84-4.14-2.39-2.3-4.99-8.34-5.84-10.42-1.73.51-3.47,1.01-5.13,1.58-1.12.41-2.23.73-3.34,1.21-1.1.45-2.2.9-3.28,1.34-2.05.93-4.18,1.87-6.16,2.83-1.38.65-2.69,1.3-4.01,1.95,1.73-.41,5.14-1.14,5.44-1.17,4.56-.45,13.63,1.35,15.68,6.06,1.47,3.39-.6,7.03-3.98,8.11-3.45,1.1-7.56-.63-10.35-2.6-3.08-2.17-7.17-9.09-7.68-9.95-2.18,1.08-4.28,2.16-6.25,3.2-4.36,2.3-8.19,4.45-11.39,6.32l-2.06-2.66c3.37-1.87,7.42-4.05,12.07-6.37,2.2-1.11,4.58-2.25,7.03-3.4-.18-.62-1.18-4.15-1.7-7.56-3.85-.33-10.61-3.6-11.48-4.03-1.22,2.1-2.38,4.16-3.45,6.12-2.24,4.09-4.16,7.82-5.75,11.03l-2.23-2.87c1.53-2.88,3.3-6.13,5.33-9.64,1.23-2.14,2.58-4.4,3.99-6.72-.75-.64-6.86-5.89-8.46-9.31-1.45-3.1-2.44-7.45-.75-10.65,1.65-3.13,5.6-4.54,8.68-2.5,4.27,2.84,4.46,12.09,3.21,16.49-.07.26-1.18,2.99-1.91,4.7.58-.94,1.14-1.86,1.75-2.82,1.19-1.91,2.44-3.78,3.78-5.8.68-.95,1.37-1.91,2.06-2.88.67-.98,1.5-1.92,2.25-2.9,1.79-2.23,3.71-4.39,5.69-6.53-1.67-1.05-7.54-4.87-9.46-7.72-1.9-2.84-3.54-6.99-2.35-10.41,1.16-3.35,4.85-5.34,8.2-3.78,4.65,2.16,6.24,11.27,5.68,15.82-.03.28-.8,3.5-1.26,5.26,1.2-1.28,2.4-2.56,3.65-3.81,3.63-3.62,7.42-7.16,11.18-10.72,1.15-1.09,2.29-2.19,3.43-3.28-.6-.37-7.68-4.75-9.82-7.95-1.9-2.84-3.54-6.99-2.35-10.41,1.16-3.35,4.85-5.34,8.2-3.78,4.65,2.16,6.24,11.27,5.68,15.82-.04.34-1.16,4.97-1.5,6.13,2.51-2.41,4.99-4.84,7.34-7.33,3.25-3.43,6.24-6.99,8.89-10.64-.28-.17-7.69-4.71-9.88-7.99-1.9-2.84-3.54-6.99-2.35-10.41,1.16-3.35,4.85-5.34,8.2-3.78,4.65,2.16,6.24,11.27,5.68,15.82-.04.36-1.25,5.33-1.53,6.22.16-.22.34-.43.5-.65,2.78-3.94,4.97-8.1,6.84-12.1,1.09-2.32,2-4.6,2.83-6.84-1.47-.71-8.14-4-10.44-6.73-2.2-2.62-4.28-6.56-3.48-10.09.79-3.46,4.23-5.84,7.74-4.66,4.86,1.64,7.44,10.52,7.38,15.1,0,.25-.32,2.78-.57,4.61.36-1.02.75-2.06,1.08-3.04,1.24-3.68,2.14-7.12,2.92-10.17.43-1.74.78-3.32,1.1-4.81-1.08-1.44-5.35-7.31-6.12-10.73-.75-3.34-.78-7.8,1.56-10.56,2.29-2.71,6.45-3.23,9.01-.57,3.56,3.69,1.76,12.76-.41,16.8-.19.35-3.74,5.47-3.79,5.39l-.07-.09c-.27,1.43-.58,2.97-.96,4.64-.71,3.08-1.55,6.55-2.71,10.27-1.15,3.72-2.51,7.72-4.32,11.82-1.81,4.1-3.92,8.33-6.66,12.4-.03.05-.07.09-.1.14,1.17-.94,4.53-3.47,4.81-3.63,3.95-2.32,12.94-4.48,16.77-1.07,2.76,2.46,2.4,6.63-.22,9.03-2.67,2.45-7.13,2.59-10.49,1.97-3.79-.7-10.66-5.48-11.2-5.86-2.64,3.85-5.67,7.59-8.94,11.21-1.87,2.07-3.81,4.1-5.79,6.1,1.04-.78,1.97-1.47,2.11-1.56,3.95-2.32,12.94-4.48,16.77-1.07,2.76,2.46,2.4,6.64-.22,9.03-2.67,2.45-7.13,2.59-10.49,1.98-3.41-.63-9.35-4.59-10.9-5.66-.77.76-1.52,1.53-2.29,2.29-3.69,3.64-7.39,7.26-10.9,10.92-1.24,1.29-2.41,2.6-3.59,3.92.92-.69,1.71-1.27,1.83-1.34,3.95-2.32,12.94-4.48,16.77-1.07,2.76,2.46,2.4,6.64-.22,9.03-2.67,2.45-7.13,2.59-10.49,1.97-3.26-.6-8.77-4.2-10.62-5.47-1.17,1.38-2.34,2.76-3.41,4.15-.71.97-1.46,1.85-2.11,2.85-.67.98-1.34,1.96-2,2.93-1.2,1.91-2.45,3.87-3.58,5.76-.79,1.31-1.52,2.57-2.26,3.84,1.22-1.3,3.66-3.79,3.89-3.97,2.36-1.92,6.93-4.1,11-4.53.35-.29.72-.54,1.11-.76,3.11-1.7,7.18-.7,8.62,2.71,2,4.72-2.95,12.54-6.42,15.53-.2.18-2.64,1.84-4.19,2.87,1.01-.46,1.97-.93,3.01-1.39,2.05-.93,4.12-1.8,6.35-2.75,1.09-.42,2.19-.84,3.31-1.27,1.09-.45,2.31-.78,3.47-1.18,2.72-.87,5.52-1.62,8.35-2.31-.81-1.8-3.61-8.22-3.63-11.66-.02-3.42.91-7.78,3.78-9.98,2.82-2.15,6.99-1.78,8.93,1.37,2.69,4.37-1.02,12.84-3.99,16.33-.19.22-2.6,2.47-3.95,3.69,1.71-.4,3.41-.81,5.15-1.16,5.02-1.01,10.14-1.88,15.24-2.77,1.56-.27,3.12-.56,4.67-.84-.3-.64-3.78-8.2-3.8-12.05-.02-3.42.91-7.78,3.78-9.98,2.82-2.15,6.99-1.78,8.93,1.37,2.69,4.37-1.01,12.84-3.99,16.32-.22.26-3.71,3.51-4.63,4.29,3.43-.63,6.84-1.28,10.17-2.07,4.6-1.08,9.06-2.38,13.28-3.97-.14-.3-3.81-8.17-3.84-12.12-.02-3.42.91-7.78,3.78-9.98,2.82-2.15,6.99-1.78,8.93,1.37,2.69,4.37-1.02,12.84-3.99,16.32-.23.27-3.98,3.76-4.71,4.34.25-.09.52-.16.77-.26,4.49-1.75,8.61-4.01,12.38-6.32,2.19-1.34,4.2-2.73,6.13-4.14-.83-1.4-4.58-7.83-4.99-11.37-.39-3.4.05-7.84,2.66-10.34,2.56-2.45,6.75-2.53,9.02.38,3.15,4.05.4,12.88-2.17,16.66-.14.21-1.8,2.14-3.02,3.53.86-.65,1.76-1.3,2.58-1.94,3.06-2.38,5.72-4.75,8.05-6.87,1.32-1.22,2.49-2.34,3.57-3.41-.1-1.8-.43-9.05.81-12.33,1.22-3.2,3.65-6.93,7.13-7.95,3.4-.99,7.16.86,7.83,4.5.93,5.04-5.58,11.61-9.61,13.79-.35.19-6.13,2.5-6.14,2.41v-.11c-1.02,1.05-2.13,2.15-3.36,3.34-2.29,2.17-4.9,4.61-7.92,7.07-3.01,2.47-6.35,5.06-10.12,7.47-3.77,2.42-7.86,4.78-12.39,6.67-.05.02-.11.04-.16.06,1.5-.14,5.69-.39,6.02-.37,4.57.24,13.27,3.4,14.58,8.36.94,3.57-1.66,6.86-5.16,7.41-3.58.57-7.38-1.77-9.84-4.14h0v-.03h0Z"/>
        <path class="cls-7" d="M374.16,206.94c-.09-.03,3.72-4.96,4-5.25,3.2-3.28,11.3-7.74,15.9-5.46,3.31,1.64,4.06,5.77,2.17,8.77-1.93,3.06-6.19,4.38-9.6,4.68-4,.34-12.46-2.74-12.47-2.74h0Z"/>
      </g>
      <g class="cls-28">
        <path class="cls-7" d="M21.69,277.67c3.53-1.92,8.89-9.16,8.89-9.16.06-.08-5.84-2.08-6.23-2.17-4.48-.97-13.7-.22-16.27,4.22-1.85,3.2-.21,7.05,3.02,8.51,3.3,1.49,7.58.24,10.58-1.39h.01,0Z"/>
        <path class="cls-7" d="M44.2,291.2c2.78-2.68,5.87-10.45,6.11-11.07,4.33,1.76,8.92,3.21,13.64,4.42,2.7.7,5.44,1.31,8.19,1.9-1.3-.08-2.46-.14-2.62-.13-4.57.24-13.27,3.4-14.58,8.36-.95,3.57,1.66,6.86,5.16,7.41,3.58.57,7.38-1.77,9.84-4.14,2.5-2.41,5.26-8.98,5.97-10.73,1.06.21,2.11.44,3.17.65,5.09,1,10.17,1.98,15.12,3.09,1.75.39,3.45.84,5.16,1.28-1.15-.07-2.12-.12-2.27-.11-4.57.24-13.27,3.4-14.58,8.36-.94,3.57,1.66,6.86,5.16,7.41,3.58.57,7.38-1.77,9.84-4.14,2.39-2.3,4.99-8.34,5.84-10.42,1.74.51,3.47,1.01,5.13,1.58,1.12.41,2.23.73,3.34,1.21,1.1.45,2.2.9,3.28,1.34,2.05.93,4.18,1.87,6.16,2.83,1.38.65,2.69,1.3,4.01,1.95-1.73-.41-5.14-1.14-5.44-1.17-4.56-.45-13.63,1.35-15.68,6.06-1.47,3.39.6,7.03,3.98,8.11,3.45,1.1,7.56-.63,10.35-2.6,3.08-2.17,7.17-9.09,7.68-9.95,2.18,1.08,4.28,2.16,6.25,3.2,4.36,2.3,8.19,4.45,11.39,6.32l2.06-2.66c-3.37-1.87-7.42-4.05-12.07-6.37-2.2-1.11-4.58-2.25-7.03-3.4.18-.62,1.18-4.15,1.7-7.56,3.85-.33,10.61-3.6,11.48-4.03,1.22,2.1,2.38,4.16,3.45,6.12,2.24,4.09,4.16,7.82,5.75,11.03l2.23-2.87c-1.53-2.88-3.3-6.13-5.33-9.64-1.23-2.14-2.58-4.4-3.99-6.72.75-.64,6.86-5.89,8.46-9.31,1.45-3.1,2.44-7.45.75-10.65-1.65-3.13-5.6-4.54-8.68-2.5-4.27,2.84-4.46,12.09-3.21,16.49.07.26,1.18,2.99,1.91,4.7-.58-.94-1.14-1.86-1.75-2.82-1.19-1.91-2.44-3.78-3.78-5.8-.68-.95-1.37-1.91-2.06-2.88-.67-.98-1.5-1.92-2.25-2.9-1.79-2.23-3.71-4.39-5.69-6.53,1.67-1.05,7.54-4.87,9.46-7.72,1.9-2.84,3.54-6.99,2.35-10.41-1.16-3.35-4.85-5.34-8.2-3.78-4.65,2.16-6.24,11.27-5.68,15.82.03.28.8,3.5,1.26,5.26-1.2-1.28-2.4-2.56-3.65-3.81-3.63-3.62-7.42-7.16-11.18-10.72-1.15-1.09-2.29-2.19-3.43-3.28.6-.37,7.68-4.75,9.82-7.95,1.9-2.84,3.54-6.99,2.35-10.41-1.16-3.35-4.85-5.34-8.2-3.78-4.65,2.16-6.24,11.27-5.68,15.82.04.34,1.16,4.97,1.5,6.13-2.51-2.41-4.99-4.84-7.34-7.33-3.25-3.43-6.24-6.99-8.89-10.64.28-.17,7.69-4.71,9.88-7.99,1.9-2.84,3.54-6.99,2.35-10.41-1.16-3.35-4.85-5.34-8.2-3.78-4.65,2.16-6.24,11.27-5.68,15.82.04.36,1.25,5.33,1.53,6.22-.16-.22-.34-.43-.5-.65-2.78-3.94-4.97-8.1-6.84-12.1-1.09-2.32-2-4.6-2.83-6.84,1.47-.71,8.14-4,10.44-6.73,2.2-2.62,4.28-6.56,3.48-10.09-.79-3.46-4.23-5.84-7.74-4.66-4.86,1.64-7.44,10.52-7.38,15.1,0,.25.32,2.78.57,4.61-.36-1.02-.75-2.06-1.08-3.04-1.24-3.68-2.14-7.12-2.92-10.17-.43-1.74-.78-3.32-1.1-4.81,1.08-1.44,5.35-7.31,6.12-10.73.75-3.34.78-7.8-1.56-10.56-2.29-2.71-6.45-3.23-9.01-.57-3.56,3.69-1.76,12.76.41,16.8.19.35,3.74,5.47,3.79,5.39l.07-.09c.27,1.43.58,2.97.96,4.64.71,3.08,1.55,6.55,2.71,10.27,1.15,3.72,2.51,7.72,4.32,11.82,1.81,4.1,3.92,8.33,6.66,12.4.03.05.07.09.1.14-1.17-.94-4.53-3.47-4.81-3.63-3.95-2.32-12.94-4.48-16.77-1.07-2.76,2.46-2.4,6.63.22,9.03,2.67,2.45,7.13,2.59,10.49,1.97,3.79-.7,10.66-5.48,11.2-5.86,2.64,3.85,5.67,7.59,8.94,11.21,1.87,2.07,3.81,4.1,5.79,6.1-1.04-.78-1.97-1.47-2.11-1.56-3.95-2.32-12.94-4.48-16.77-1.07-2.76,2.46-2.4,6.64.22,9.03,2.67,2.45,7.13,2.59,10.49,1.98,3.41-.63,9.35-4.59,10.9-5.66.77.76,1.52,1.53,2.29,2.29,3.69,3.64,7.39,7.26,10.9,10.92,1.24,1.29,2.41,2.6,3.59,3.92-.92-.69-1.71-1.27-1.83-1.34-3.95-2.32-12.94-4.48-16.77-1.07-2.76,2.46-2.4,6.64.22,9.03,2.67,2.45,7.13,2.59,10.49,1.97,3.26-.6,8.77-4.2,10.62-5.47,1.17,1.38,2.34,2.76,3.41,4.15.71.97,1.46,1.85,2.11,2.85.67.98,1.34,1.96,2,2.93,1.2,1.91,2.45,3.87,3.58,5.76.79,1.31,1.52,2.57,2.26,3.84-1.22-1.3-3.66-3.79-3.89-3.97-2.36-1.92-6.93-4.1-11-4.53-.35-.29-.72-.54-1.11-.76-3.11-1.7-7.18-.7-8.62,2.71-2,4.72,2.95,12.54,6.42,15.53.2.18,2.64,1.84,4.19,2.87-1.01-.46-1.97-.93-3.01-1.39-2.05-.93-4.12-1.8-6.35-2.75-1.09-.42-2.19-.84-3.31-1.27-1.09-.45-2.31-.78-3.47-1.18-2.72-.87-5.52-1.62-8.35-2.31.81-1.8,3.61-8.22,3.63-11.66.02-3.42-.91-7.78-3.78-9.98-2.82-2.15-6.99-1.78-8.93,1.37-2.69,4.37,1.02,12.84,3.99,16.33.19.22,2.6,2.47,3.95,3.69-1.71-.4-3.41-.81-5.15-1.16-5.02-1.01-10.14-1.88-15.24-2.77-1.56-.27-3.12-.56-4.67-.84.3-.64,3.78-8.2,3.8-12.05.02-3.42-.91-7.78-3.78-9.98-2.82-2.15-6.99-1.78-8.93,1.37-2.69,4.37,1.01,12.84,3.99,16.32.22.26,3.71,3.51,4.63,4.29-3.43-.63-6.84-1.28-10.17-2.07-4.6-1.08-9.06-2.38-13.28-3.97.14-.3,3.81-8.17,3.84-12.12.02-3.42-.91-7.78-3.78-9.98-2.82-2.15-6.99-1.78-8.93,1.37-2.69,4.37,1.02,12.84,3.99,16.32.23.27,3.98,3.76,4.71,4.34-.25-.09-.52-.16-.77-.26-4.49-1.75-8.61-4.01-12.38-6.32-2.19-1.34-4.2-2.73-6.13-4.14.83-1.4,4.58-7.83,4.99-11.37.39-3.4-.05-7.84-2.66-10.34-2.56-2.45-6.75-2.53-9.02.38-3.15,4.05-.4,12.88,2.17,16.66.14.21,1.8,2.14,3.02,3.53-.86-.65-1.76-1.3-2.58-1.94-3.06-2.38-5.72-4.75-8.05-6.87-1.32-1.22-2.49-2.34-3.57-3.41.1-1.8.43-9.05-.81-12.33-1.22-3.2-3.65-6.93-7.13-7.95-3.4-.99-7.16.86-7.83,4.5-.93,5.04,5.58,11.61,9.61,13.79.35.19,6.13,2.5,6.14,2.41v-.11c1.02,1.05,2.13,2.15,3.36,3.34,2.29,2.17,4.9,4.61,7.92,7.07,3.01,2.47,6.35,5.06,10.12,7.47,3.77,2.42,7.86,4.78,12.39,6.67.05.02.11.04.16.06-1.5-.14-5.69-.39-6.02-.37-4.57.24-13.27,3.4-14.58,8.36-.94,3.57,1.66,6.86,5.16,7.41,3.58.57,7.38-1.77,9.84-4.14h0v-.03h.01Z"/>
        <path class="cls-7" d="M79.08,206.94c.09-.03-3.72-4.96-4-5.25-3.2-3.28-11.3-7.74-15.9-5.46-3.31,1.64-4.06,5.77-2.17,8.77,1.93,3.06,6.19,4.38,9.6,4.68,4,.34,12.46-2.74,12.47-2.74h0Z"/>
      </g>
    </g>
  </g>
  <g id="freepik--Device--inject-159">
    <g>
      <rect class="cls-3" x="101.04" y="10.85" width="280.72" height="371.6" rx="10.21" ry="10.21"/>
      <rect class="cls-10" x="118.66" y="34.18" width="245.46" height="324.93"/>
      <g>
        <rect class="cls-1" x="127.64" y="235.53" width="228.6" height="10.53"/>
        <line class="cls-19" x1="127.64" y1="246.06" x2="355.33" y2="246.06"/>
        <line class="cls-19" x1="128.15" y1="235.44" x2="355.75" y2="235.44"/>
        <line class="cls-19" x1="355.75" y1="218.49" x2="128.15" y2="218.49"/>
        <line class="cls-19" x1="355.75" y1="261.83" x2="128.15" y2="261.83"/>
        <line class="cls-19" x1="355.75" y1="282.15" x2="128.15" y2="282.15"/>
        <rect class="cls-1" x="127.64" y="140.39" width="228.6" height="10.53"/>
        <rect class="cls-1" x="127.64" y="81.73" width="228.6" height="10.53"/>
        <rect class="cls-19" x="127.64" y="81.73" width="228.3" height="222.42"/>
        <line class="cls-19" x1="127.64" y1="92.26" x2="355.33" y2="92.26"/>
        <line class="cls-19" x1="127.64" y1="150.92" x2="355.33" y2="150.92"/>
        <line class="cls-19" x1="128.15" y1="110.06" x2="355.75" y2="110.06"/>
        <line class="cls-19" x1="237.11" y1="109.64" x2="237.11" y2="92.7"/>
        <line class="cls-19" x1="128.15" y1="126.35" x2="355.75" y2="126.35"/>
        <line class="cls-19" x1="128.15" y1="140.3" x2="355.75" y2="140.3"/>
        <g>
          <line class="cls-19" x1="191.72" y1="125.93" x2="191.72" y2="110.37"/>
          <line class="cls-19" x1="203.84" y1="125.93" x2="203.84" y2="110.37"/>
          <line class="cls-19" x1="215.97" y1="125.93" x2="215.97" y2="110.37"/>
          <line class="cls-19" x1="335.87" y1="125.93" x2="335.87" y2="110.37"/>
        </g>
        <line class="cls-19" x1="301.5" y1="109.64" x2="301.5" y2="92.7"/>
        <line class="cls-19" x1="355.75" y1="168.45" x2="128.15" y2="168.45"/>
        <line class="cls-19" x1="246.79" y1="168.03" x2="246.79" y2="151.08"/>
        <line class="cls-19" x1="265.12" y1="234.92" x2="265.12" y2="217.98"/>
        <line class="cls-19" x1="355.75" y1="184.74" x2="128.15" y2="184.74"/>
        <line class="cls-19" x1="355.75" y1="201.61" x2="128.15" y2="201.61"/>
        <g>
          <line class="cls-19" x1="292.18" y1="184.32" x2="292.18" y2="168.75"/>
          <line class="cls-19" x1="280.05" y1="184.32" x2="280.05" y2="168.75"/>
          <line class="cls-19" x1="267.92" y1="184.32" x2="267.92" y2="168.75"/>
          <line class="cls-19" x1="148.03" y1="184.32" x2="148.03" y2="168.75"/>
        </g>
        <g>
          <line class="cls-19" x1="245.01" y1="218.38" x2="245.01" y2="201.26"/>
          <line class="cls-19" x1="232.89" y1="218.38" x2="232.89" y2="201.26"/>
          <line class="cls-19" x1="220.76" y1="218.38" x2="220.76" y2="201.26"/>
          <line class="cls-19" x1="142.2" y1="218.38" x2="142.2" y2="201.26"/>
        </g>
        <line class="cls-19" x1="182.39" y1="168.03" x2="182.39" y2="151.08"/>
      </g>
      <rect class="cls-9" x="118.66" y="34.18" width="245.46" height="36.02"/>
      <g>
        <polygon class="cls-4" points="101.04 67.81 101.04 171.78 261.97 10.85 158 10.85 101.04 67.81"/>
        <path class="cls-4" d="M381.75,23.18v-3.26c0-5.01-4.06-9.07-9.07-9.07h-5.12L101.04,277.37v26.52L381.75,23.18Z"/>
        <polygon class="cls-4" points="381.75 363.42 381.75 259.45 258.76 382.44 362.72 382.44 381.75 363.42"/>
      </g>
    </g>
  </g>
  <g id="freepik--Suitcase--inject-159">
    <g>
      <g>
        <path class="cls-15" d="M374.21,438.86c-1.35-1.99-4.05-2.51-6.04-1.16-1.99,1.35-2.51,4.05-1.16,6.04,1.35,1.99,4.05,2.51,6.04,1.16,1.99-1.35,2.51-4.05,1.16-6.04Z"/>
        <polygon class="cls-9" points="367.63 433.64 369.99 442.83 371.83 442.68 372.77 433.47 367.63 433.64"/>
      </g>
      <g>
        <path class="cls-15" d="M348.62,438.86c-1.35-1.99-4.05-2.51-6.04-1.16-1.99,1.35-2.51,4.05-1.16,6.04s4.05,2.51,6.04,1.16,2.51-4.05,1.16-6.04Z"/>
        <polygon class="cls-9" points="342.04 433.64 344.4 442.83 346.24 442.68 347.18 433.47 342.04 433.64"/>
      </g>
      <line class="cls-17" x1="374.78" y1="331.7" x2="374.71" y2="437.14"/>
      <line class="cls-18" x1="374.91" y1="313.6" x2="374.78" y2="331.7"/>
      <g>
        <rect class="cls-11" x="322.1" y="388.13" width="66.62" height="31.59" rx="3.47" ry="3.47" transform="translate(-52.09 755.23) rotate(-89.42)"/>
        <path class="cls-15" d="M335.67,433.77l7.09.14.52-51.5-8.66-.16c-2.47-.03-4.49,1.96-4.52,4.43l-.42,40.99c-.03,3.34,2.64,6.07,5.98,6.1h.01Z"/>
        <path class="cls-16" d="M338.87,433.8l7.09.14.52-51.5-8.66-.16c-2.47-.03-4.49,1.96-4.52,4.43l-.42,40.99c-.03,3.34,2.64,6.07,5.98,6.1h.01Z"/>
        <rect class="cls-12" x="325.77" y="388.18" width="66.61" height="31.59" rx="3.47" ry="3.47" transform="translate(-48.51 758.95) rotate(-89.42)"/>
        <path class="cls-3" d="M356.03,370.63l-1.12,24.71c-.04.86.63,1.59,1.49,1.63l3.81.17c.86.04,1.59-.63,1.63-1.49l1.13-24.95-6.94-.07h0Z"/>
        <path class="cls-15" d="M350.17,405.39l17.18.46c1.67.04,2.99,1.44,2.95,3.11l-.48,18.21c-.04,1.67-1.44,2.99-3.11,2.95l-17.18-.46c-1.67-.04-2.99-1.44-2.95-3.11l.48-18.21c.04-1.67,1.44-2.99,3.11-2.95Z"/>
        <path class="cls-16" d="M352.18,405.78l17.18.46c1.67.04,2.99,1.44,2.95,3.11l-.48,18.21c-.04,1.67-1.44,2.99-3.11,2.95l-17.18-.46c-1.67-.04-2.99-1.44-2.95-3.11l.48-18.21c.04-1.67,1.44-2.99,3.11-2.95h0Z"/>
      </g>
    </g>
  </g>
  <g id="freepik--Character_2--inject-159" data-name="freepik--Character 2--inject-159">
    <g>
      <g>
        <path class="cls-23" d="M281.28,222.54s-.97,7.68-.61,8.77,2.56,5.48,2.68,5.85c.12.37-2.56,2.68-2.07,3.78s3.17,2.44,3.17,2.44c0,0,6.58,7.55,7.43,7.43.85-.12,4.02-1.83,4.02-1.83l1.83,4.26,18.15-7.68-5.48-9.02s-5.73-14.5-11.09-19.13-15.84-.12-18.03,5.12h0Z"/>
        <polygon class="cls-15" points="291.88 250.81 296.48 245.87 295.9 248.98 291.88 250.81"/>
        <path class="cls-19" d="M286.15,242.89s1.83-.85,1.1-3.17"/>
        <path class="cls-19" d="M281.89,231.93s0-1.58,1.83-.85"/>
        <line class="cls-19" x1="283.71" y1="235.46" x2="285.18" y2="238.02"/>
      </g>
      <path class="cls-15" d="M304.43,209.63c-4.26-2.68-10.6-2.07-13.65,0-2.85,1.94-7.72,6.86-8.34,7.49v-.03s-.05.07-.07.1c0,0-1.71,4.24-1.1,5.36,1.22-.12,5.12-2.56,4.87-1.1-.24,1.46-1.83,4.02-.85,4.51.97.49,3.34,2.66,3.34,2.66,0,0,.44,2.34,1.9,2.1,1.46-.24,2.56-2.56,3.66-1.1,1.1,1.46,8.65,8.89,9.14,8.89s7.07-1.95,7.07-1.95c0,0,.49-7.55.85-12.55s-2.56-11.7-6.82-14.38h0Z"/>
      <path class="cls-23" d="M291.27,233.02s-.97-6.95,1.46-5.73c2.44,1.22,4.39,7.68,3.78,9.14-.61,1.46-2.07.49-2.07.49"/>
      <path class="cls-16" d="M295.44,252.69l-2.67,7.57s8.16-4.45,16.03-7.12,13.06-3.41,13.06-3.41l-4.01-5.94s-16.47,1.63-22.41,8.91h0Z"/>
      <path class="cls-15" d="M253.61,270.41l16.83,28.24c.13.21.37.32.61.26l15.8-3.88c.36-.09.54-.5.35-.82l-14.6-25.33c-.11-.18-.3-.29-.51-.28l-18.03.97c-.42.02-.67.48-.45.84h0Z"/>
      <polygon class="cls-21" points="255.48 271.53 270.62 296.94 285.25 293.34 272.16 270.63 255.48 271.53"/>
      <path class="cls-23" d="M283.12,276.14s-4.45,2.37-6.09,3.12c-1.63.74-2.52,1.34-1.48,2.23,1.04.89,4.6-1.19,4.6-1.19l2.82-1.19.15-2.97h0Z"/>
      <g>
        <path class="cls-2" d="M319.33,435.75l1.01,7.72s-1.01,1.68-4.19,2.01c-3.19.34-5.54.84-5.54.84l.88-7.5,7.85-3.06h-.01Z"/>
        <path class="cls-2" d="M320.33,443.47l-.15-1.12c-3,1.17-6.63,1.54-9.31,1.64l-.27,2.33s2.35-.5,5.54-.84,4.19-2.01,4.19-2.01h0Z"/>
      </g>
      <g>
        <path class="cls-2" d="M296.51,432.57l-8.72,5.37s-3.86,1.01-6.04,1.17-2.18,2.52-1.17,3.36c1.01.84,4.34,2.26,8.56,3.19,8.39,1.85,20.47,1.17,21.47.67s1.85-1.34,2.01-2.01c.17-.67,0-7.21,0-7.21,0,0-12.75-1.51-16.11-4.53h0Z"/>
        <path class="cls-2" d="M287.95,443.47c-4.92-1.49-6.94-2.71-7.75-3.53-.51.81-.29,1.98.37,2.52,1.01.84,4.34,2.26,8.56,3.19,8.39,1.85,20.47,1.17,21.47.67.94-.47,1.73-1.23,1.96-1.88-5.61.48-17.59,1.16-24.61-.97h0Z"/>
      </g>
      <path class="cls-16" d="M323.89,326.22s0,8.27-2.76,12.72c-2.76,4.44-6.59,8.43-6.59,9.04s-3.68,29.26-3.68,30.79-.15,5.97.77,8.27c.92,2.3,4.44,16.85,6.59,29.87,2.14,13.02,1.23,16.24,1.23,16.24,0,0,.92,2.3.92,2.91s-.46,2.3-.46,2.3c0,0-2.45.77-4.75.77s-3.68-.31-3.68-.31c0,0-.15-2.45.31-3.68.46-1.23.15-4.6.15-5.36s-5.82-40.44-5.82-43.51-.15-35.54-.15-35.54l-1.38-22.52s7.97-.31,19.3-1.99h0Z"/>
      <g>
        <path class="cls-16" d="M313.01,343.53s-3.68,6.74-3.98,7.35-.31,5.97-.31,7.2-.77,24.51-.61,27.73c.15,3.22,2.6,13.17,3.37,19.15.77,5.97,2.14,23.44,2.3,23.9.15.46.77,2.6.46,3.98s-1.07,2.91-1.07,2.91c0,0,.46,2.6.15,3.37s-4.44,1.53-10.26-.15c-5.82-1.69-8.27-5.36-8.27-5.36,0,0,.31-.77.31-2.3s1.53-1.84,1.53-1.84l-2.91-20.53s-2.76-6.43-2.91-7.51.61-3.68.46-4.75-1.99-3.37-2.14-4.44c-.15-1.07-5.21-18.23-5.52-33.4-.31-15.17.27-29.27.27-29.27,0,0,3.87,2,15.82,1.24,11.95-.77,16.7-.92,22.37-3.37"/>
        <g>
          <path class="cls-19" d="M300.39,420.01l.98,10.21s-1.34.84-.84,2.52.84,2.68.84,2.68"/>
          <path class="cls-19" d="M291.6,368.84c.12.74.24,1.46.38,2.16,2.68,13.76,5.7,24.16,5.87,24.66.17.5-2.01,2.35-1.17,3.36.84,1.01,1.85,1.51,1.85,1.51l1.54,16.05"/>
          <path class="cls-19" d="M290.64,333.75s-.98,17.08.4,30.64"/>
          <path class="cls-19" d="M286.78,333.41s-.5,6.04,2.85,9.06"/>
          <path class="cls-19" d="M312.45,334.25c-3.86,1.68-12.25,1.85-12.25,1.85l1.01,2.52s5.87-.34,8.22-1.17"/>
        </g>
      </g>
      <g>
        <g>
          <path class="cls-2" d="M283.86,329.58s2.08,3.86,18.26,2.97c16.18-.89,22.41-3.56,22.56-4.9s-.3-4.45-.3-4.45c0,0-30.57,2.23-40.52,6.38h0Z"/>
          <path class="cls-2" d="M292.77,260.26s-9.05,4.16-9.2,5.49-4.9,37.25-4.9,37.25l-7.12-8.31s.15-2.97-.3-4.16c-.45-1.19-.59-2.08-1.63-2.52s-4.45-1.34-5.34-2.08c-.89-.74-3.41-3.12-4.01-2.23-.59.89-1.78,2.37-1.48,3.41s1.48,3.12,1.48,3.71,0,5.05,1.93,7.12c1.93,2.08,4.75,2.97,4.75,2.97,0,0,4.6,12.17,6.23,14.55,1.63,2.37,8.46,7.87,8.46,7.87,0,0-1.63,3.86-1.19,4.16.45.3,2.52,3.41,3.12,3.41s18.4-2.97,19.74-3.12,14.69,0,15.73-.45,4.45-1.93,5.19-2.52,1.93-1.63,1.34-4.01c-.59-2.37-1.19-19.15-1.19-20.63s3.66-13.06,4.3-17.81c2.31-17.11,2.05-18.11,2.1-20.34.12-5.27-4.06-7.99-4.65-8.29-.59-.3-4.28-4.02-4.28-4.02,0,0-13.21,1.04-29.09,10.54h.01Z"/>
          <path class="cls-19" d="M281.64,323.34s5.19-.89,6.09-1.63,8.76-23.75,9.05-25.08c.3-1.34.74-17.51.74-17.51"/>
          <line class="cls-19" x1="297.37" y1="289.2" x2="299.89" y2="280.15"/>
          <path class="cls-19" d="M278.07,311.91c-.45-2.52.59-8.91.59-8.91,0,0,1.04,6.23,2.97,8.76"/>
          <path class="cls-23" d="M271.54,294.7s.15-2.97-.3-4.16c-.45-1.19-.59-2.08-1.63-2.52s-4.45-1.34-5.34-2.08c-.89-.74-3.41-3.12-4.01-2.23-.59.89-1.78,2.37-1.48,3.41s1.48,3.12,1.48,3.71,0,5.05,1.93,7.12c1.93,2.08,4.75,2.97,4.75,2.97,0,0,.26.68.67,1.75.9-2.19,2.74-4.87,6.33-5.19l-2.39-2.79h0Z"/>
          <path class="cls-19" d="M269.17,305.53s1.04-3.71,5.34-5.19"/>
          <line class="cls-19" x1="303.31" y1="327.79" x2="318.3" y2="323.34"/>
        </g>
        <path class="cls-19" d="M321.11,288.42s-9.49,10.26-17.18,15.9"/>
        <path class="cls-19" d="M316.24,296.11s-7.18,7.18-10.26,9.49"/>
      </g>
      <g>
        <path class="cls-15" d="M321.86,249.72s7.02,9.18,7.35,11.97c.33,2.79.66,4.43.66,4.43l4.11-2.96s-1.97-7.06-4.27-9.36-7.84-4.09-7.84-4.09h-.01Z"/>
        <path class="cls-15" d="M333.48,259.97s-5.86-.29-9.67,2.64c-3.81,2.93-5.57,12.6-6.45,17.87s-1.76,29.01-1.76,32.81,3.52,5.57,4.98,6.15c1.46.59,9.96-1.46,11.13-1.76,1.17-.29,9.67-.29,12.01-5.57,2.34-5.27,2.64-14.65,2.34-18.17-.29-3.52-2.93-8.79-2.93-8.79,0,0,.59-13.77-.59-18.46-1.17-4.69-6.45-7.32-9.08-6.74h0l.02.02h0Z"/>
        <path class="cls-26" d="M343.15,285.17s-21.34,4.72-20.84,6.72-.25,6.25,0,6.99c.25.75,23.77-4.93,23.77-4.93,0,0-.57-7.77-2.93-8.79h0Z"/>
        <path class="cls-25" d="M340.04,263.16s-10.74.75-14.24,4-4.3,15.21-4.5,18.24"/>
        <path class="cls-25" d="M322.31,302.63s-.75,10.74,0,13.24,12.54,1.25,16.99-1.25"/>
      </g>
    </g>
  </g>
  <g id="freepik--Character_1--inject-159" data-name="freepik--Character 1--inject-159">
    <g>
      <path class="cls-23" d="M130.7,405.64s-2.7,25.42-3.08,26.39c-.39.96-7.51.96-7.9,3.85s.77,4.04,1.93,4.62,5.59,2.7,6.93,3.08c1.35.39,5.01.77,5.97-.96s.19-7.9.19-7.9l6.93-28.7-10.98-.39h.01Z"/>
      <path class="cls-23" d="M164.52,401.09s-1.23,31.06-2,34.14-.96,5.39-.19,7.13c.77,1.73,3.66,1.73,4.81,1.35,1.16-.39,8.86-4.04,9.63-5.2s-1.54-2.31-2.5-2.7-4.04-3.27-4.24-3.85c-.19-.58,4.12-26.24,4.12-26.24l-9.63-4.62h0Z"/>
      <path class="cls-14" d="M167.14,443.7c1.16-.39,8.86-4.04,9.63-5.2s-1.54-2.31-2.5-2.7-4.04-3.27-4.24-3.85c-.05-.14.38-1.79,1.05-4.19l-7.99-.28c-.6,3.82-.35,6.89-.56,7.74-.77,3.08-.96,5.39-.19,7.13.77,1.73,3.66,1.73,4.81,1.35h0Z"/>
      <path class="cls-14" d="M128.64,424.35c-.48,4.11-.89,7.35-1.02,7.68-.39.96-7.51.96-7.9,3.85s.77,4.04,1.93,4.62,5.59,2.7,6.93,3.08c1.35.39,5.01.77,5.97-.96.96-1.73.19-7.9.19-7.9l2.35-9.72-8.46-.66h0Z"/>
      <path class="cls-9" d="M134.85,441.7c-1.53.3-3.93.5-6.27-.43-2.66-1.06-6.68-3.13-8.93-4.31,0,2.11,1,3.04,2,3.54,1.16.58,5.59,2.7,6.93,3.08,1.35.39,5.01.77,5.97-.96.13-.23.23-.55.3-.91h0Z"/>
      <path class="cls-9" d="M176.77,438.5c.46-.69-.18-1.37-.97-1.9-2.23,1.57-5.78,4.02-7.31,4.79-1.59.79-4.62.59-6.37.38.06.2.13.4.21.58.77,1.73,3.66,1.73,4.81,1.35,1.16-.39,8.86-4.04,9.63-5.2h0Z"/>
      <path class="cls-15" d="M142.47,315.89s-2.31,5.2-3.47,20.61-1.93,33.7-3.85,41.21c-1.93,7.51-5.97,27.93-5.97,27.93l13.87,2.5,6.74-29.85,15.6-50.65-3.55,82.6,13.29,1.16,8.95-57.56s6.36-22.92,6.55-30.81c.19-7.9-2.12-10.01-2.12-10.01l-23.11-4.62-22.92,7.51h0v-.02h0Z"/>
      <path class="cls-20" d="M143.81,310.83l-1.34,5.06s17.91-2.7,25.61-3.27c7.7-.58,21.38,1.93,21.38,1.93l-2.76-6.24s-8.41-2.24-17.84-2.43-17.14,1.16-18.68,1.54c-1.54.39-6.37,3.41-6.37,3.41h0Z"/>
      <g>
        <path class="cls-2" d="M147.45,245.51s-14.3,6.73-17.38,11.77c-3.08,5.05-16.54,34.76-15.42,37.57,1.12,2.8,7.57,8.97,7.57,8.97l7.29-4.49-1.96-8.41,9.25-19.62s4.77,22.15,5.05,24.67c.28,2.52-1.4,10.09-.56,12.33s1.68,2.8,2.52,2.52,12.62-3.64,17.66-3.64,23.55,3.08,25.23,1.12.56-3.64,0-4.49c-.56-.84-7.57-25.79-7.57-25.79,0,0,3.64-21.31,1.96-23.55s-17.38-8.13-17.38-8.13l-16.26-.84h0Z"/>
        <line class="cls-19" x1="155.09" y1="297.78" x2="170.27" y2="292.17"/>
        <line class="cls-19" x1="150.07" y1="299.64" x2="153.13" y2="298.51"/>
        <line class="cls-19" x1="146.75" y1="298.26" x2="156.16" y2="294.38"/>
        <polyline class="cls-19" points="132.06 262.09 136.8 271.3 132.21 267.12"/>
      </g>
      <path class="cls-2" d="M181.09,254.48l12.34,39.25,5.89,4.77-5.89,7.57s-9.53-7.85-10.93-9.25-7.85-23.27-7.85-23.27"/>
      <polyline class="cls-13" points="225.09 316.47 225.09 310.69 205.83 310.69 205.83 315.89"/>
      <polyline class="cls-22" points="205.83 315.89 205.83 369.05 225.09 369.05 225.09 316.47"/>
      <path class="cls-23" d="M199.31,298.49l15.67,6.38s2.75,1,3.25,1.38,2,1.75,2,1.75h-1.38s3.5,4.63,3.13,5.13c-.38.5-.13.75-1.25.75s-2.13-.63-2.13-.63c0,0-2,.38-3.75-.13-1.75-.5-5.88-4.5-5.88-4.5l-15.56-2.56,5.89-7.57h.01Z"/>
      <rect class="cls-15" x="199.73" y="431.06" width="3.17" height="7" rx=".85" ry=".85"/>
      <rect class="cls-9" x="199.7" y="427.31" width="3.27" height="7.7"/>
      <rect class="cls-15" x="228.95" y="431.06" width="3.17" height="7" rx=".85" ry=".85"/>
      <rect class="cls-9" x="228.79" y="427.21" width="3.27" height="7.7"/>
      <rect class="cls-2" x="195.63" y="367.89" width="40.25" height="62.01" rx="6.85" ry="6.85"/>
      <rect class="cls-21" x="195.63" y="372.05" width="40.25" height="57.85" rx="7.53" ry="7.53"/>
      <g>
        <line class="cls-19" x1="200.69" y1="380.58" x2="200.69" y2="421.35"/>
        <line class="cls-19" x1="208.22" y1="380.58" x2="208.22" y2="421.35"/>
        <line class="cls-19" x1="215.75" y1="380.58" x2="215.75" y2="421.35"/>
        <line class="cls-19" x1="223.28" y1="380.58" x2="223.28" y2="421.35"/>
        <line class="cls-19" x1="230.81" y1="380.58" x2="230.81" y2="421.35"/>
      </g>
      <path class="cls-23" d="M129.51,299.34l10,16.36,2.31,1.03-1.41,6.41s-4.62-2.31-5.26-3.59-12.93-15.72-12.93-15.72l7.29-4.49h0Z"/>
      <g>
        <path class="cls-15" d="M145.36,243.28l-5.37,30.45s6.45,8.6,17.2,8.6,16.12-5.37,16.12-5.37l-4.66-35.82-23.29,2.15h0Z"/>
        <g>
          <ellipse class="cls-9" cx="158.06" cy="228.38" rx="22.52" ry="22.89"/>
          <ellipse class="cls-14" cx="157.94" cy="225.64" rx="10.7" ry="10.45"/>
          <polygon class="cls-14" points="156.82 234.29 155.46 246.57 158.38 246.96 156.82 234.29"/>
          <polygon class="cls-14" points="157.94 234.34 160.14 243.45 158.38 243.26 156.82 234.29 157.94 234.34"/>
          <ellipse class="cls-9" cx="157.94" cy="223.89" rx="10.7" ry="10.45"/>
        </g>
      </g>
    </g>
  </g>
  <g id="freepik--Airplane--inject-159">
    <g>
      <polygon class="cls-20" points="326.68 107.94 315.83 127.48 320.41 127.24 335.85 110.6 331.75 106.74 326.68 107.94"/>
      <path class="cls-9" d="M472.16,75.86l-10.98-.76c-2-.14-4.01.03-5.96.5l-113.58,27.28-23.16-8.2-6.27,1.93,20.02,15.44,27.74-1.45,103.93-23.35c3.7-.83,7.21-2.35,10.36-4.47l2.77-1.87c.85-.57,1.26-1.6,1.04-2.6h0c-.22-1.04-1.07-1.82-2.12-1.96l-3.8-.5h.01Z"/>
      <path class="cls-16" d="M354.68,110.87c5.06-4.59,12.27-10.81,19.28-15.76l-32.32,7.76-23.16-8.2-6.27,1.93,20.02,15.44,22.45-1.17h0Z"/>
      <polygon class="cls-20" points="326.68 107.94 321.62 89.37 326.2 89.37 337.78 107.22 326.68 107.94"/>
      <polygon class="cls-9" points="326.68 107.94 322.2 108.37 322.54 111.03 332.23 112.04 326.68 107.94"/>
      <polygon class="cls-20" points="395.08 95.21 393.74 82.97 380.15 40.55 388.71 43.73 421.74 90.02 395.08 95.21"/>
      <g>
        <path class="cls-9" d="M404.49,67.28c-1.24-.95-1.62-4.34-.62-5.55,1.45-1.75,8.36-2.38,10.35-1.16,1.37.84,1.77,4.43.62,5.55-1.67,1.63-8.55,2.54-10.35,1.16Z"/>
        <path class="cls-9" d="M403.32,62.36l-5.26,1.45.76,3.05h4.96s-.69-2.13-.46-4.5Z"/>
      </g>
      <g>
        <path class="cls-9" d="M416.85,82.38c-1.24-.95-1.62-4.34-.62-5.55,1.45-1.75,8.36-2.38,10.35-1.16,1.37.84,1.77,4.43.62,5.55-1.67,1.63-8.55,2.54-10.35,1.16Z"/>
        <path class="cls-9" d="M415.68,77.46l-5.26,1.45.76,3.05h4.96s-.69-2.14-.46-4.5h0Z"/>
      </g>
      <polygon class="cls-20" points="381.63 106.04 393.15 107.5 363.24 145.29 359.59 145.73 367.62 146.6 419.13 99.47 424.96 96.12 381.63 106.04"/>
      <g>
        <path class="cls-9" d="M408.62,114.75c-1.24-.95-1.62-4.34-.62-5.55,1.45-1.75,8.36-2.38,10.35-1.16,1.37.84,1.77,4.43.62,5.55-1.67,1.63-8.55,2.54-10.35,1.16h0Z"/>
        <path class="cls-9" d="M407.45,109.83l-5.26,1.45.76,3.05h4.96s-.69-2.13-.46-4.5Z"/>
      </g>
      <g>
        <path class="cls-9" d="M387.76,132.41c-1.24-.95-1.62-4.34-.62-5.55,1.45-1.75,8.36-2.38,10.35-1.16,1.37.84,1.77,4.43.62,5.55-1.67,1.63-8.55,2.54-10.35,1.16Z"/>
        <path class="cls-9" d="M386.59,127.49l-5.26,1.45.76,3.05h4.96s-.69-2.13-.46-4.5Z"/>
      </g>
    </g>
    <path class="cls-24" d="M315.75,111.43S123.7,143.28,30,195.1s70.99,18.46,70.99,18.46"/>
  </g>
  <g>
    <path class="cls-5" d="M280.66,53.25c0-1.26.86-2.11,2.17-2.11s2.19.84,2.19,2.11-.86,1.92-2.19,1.92-2.17-.69-2.17-1.92ZM282.83,47.65c-4.31,0-6.9,2.08-6.9,5.6s2.59,5.5,6.9,5.5,6.9-2.04,6.9-5.5c0-3.52-2.55-5.6-6.9-5.6h0Z"/>
    <path class="cls-5" d="M237.02,52.51l2.04-4.49,1.22,3.81c-.08.11-.32.34-.65.34-.21,0-.78-.13-1.22-.13-.4,0-.97.13-1.39.46ZM244.8,58.36h3.01c-.42-.48-.82-1.47-1.07-2.21l-3.18-9.5c-.51-1.54-1.62-3.03-4.02-3.03h-3.45c.08.29.13.65.13,1.05,0,.63-.32,1.33-.53,1.92-1.01,2.72-4.55,6.82-4.55,9.29,0,1.35.69,2.48,2.02,2.48h2.99c-.22-.4-.34-.85-.34-1.31,0-.48.29-1.26.4-1.45.29-.15.63-.32,1.09-.32s1.41.34,2.19.34,1.3-.61,1.45-.78l.63,1.66c.67,1.75,1.89,1.85,3.22,1.85h0Z"/>
    <path class="cls-5" d="M275.64,48.09c.02,2-1.26,3.92-2.63,3.92-.95,0-1.26-.17-2-.17-.63,0-1.16.27-1.45.69v5.83h-4.96v-10.53h4.96v2.02c.53-1.22,1.81-2.17,2.93-2.17,1.52,0,1.83.74,3.15.4Z"/>
    <path class="cls-5" d="M304.13,56.51v-3.92c0-3.22-2.46-4.97-5.66-4.97-2.93,0-4.73,1.05-6.12.48.19,2.11.69,3.07,2.06,3.07,1.05,0,2.1-.46,3.03-.46,1.11,0,1.94.78,1.94,1.79v.19c-.65-.44-2.27-.91-3.83-.91-2.08,0-4.65.97-4.65,3.58s2.57,3.33,4.65,3.33c1.56,0,3.05-.53,3.91-1.54.34,1.01.9,1.2,2.99,1.2h2.1c-.27-.51-.42-1.05-.42-1.85ZM299.29,55.32v.06c-.57.63-1.52.78-2.19.78s-1.45-.08-1.45-.78c0-.65.78-.88,1.45-.88s1.62.17,2.19.82Z"/>
    <path class="cls-5" d="M320,56.51v-11.77h-5.01v4.3c-.8-.88-2.42-1.41-3.91-1.41-3.18,0-5.43,2.11-5.43,5.66s2.25,5.41,5.43,5.41c1.49,0,3.11-.34,4.12-1.54.36,1.01.86,1.2,3.09,1.2h2.1c-.29-.51-.4-1.05-.4-1.86ZM314.99,52.38v1.83c-.8.91-1.68,1.16-2.36,1.16-1.56,0-2.19-.82-2.19-2.04s.63-2.11,2.19-2.11c.67,0,1.56.4,2.36,1.16Z"/>
    <path class="cls-5" d="M248.66,44.66c.32.4.42,1.87.42,3.22v10.49h4.97v-1.2c.97,1.2,2.34,1.54,3.89,1.54,3.03,0,5.14-2,5.14-5.41s-2.08-5.66-5.03-5.66c-1.77,0-3.11.74-4,1.79v-1.69c0-1.77-1.11-3.07-2.78-3.07h-2.61ZM256.36,55.33c-.84,0-1.7-.25-2.31-1.16v-1.71c.61-.88,1.47-1.28,2.31-1.28,1.28,0,2.21.88,2.21,2.11s-.93,2.04-2.21,2.04h0Z"/>
    <path class="cls-8" d="M167.41,46.38l2.93,8.8c.95,2.82,2.48,3.18,3.7,3.18h2.93c-.19-.82.23-2.51.48-3.16l.84-2.15.86,2.13c1.05,2.59,2.38,3.18,3.58,3.18h3.18c-.08-.76-.08-1.47.13-2.19,1.03-3.43,3.89-6.46,3.89-9.41,0-2.02-.78-3.14-2.63-3.14h-2.93c.25.32.48,1.11.48,2.32.02,2.34-1.39,4.89-2.15,7.16l-1.7-5.56c-.59-1.64-1.47-2.8-2.8-2.8h-2.27c.13.32.34,1.07.34,1.79,0,1.18-.23,2.46-.69,3.6l-1.22,2.97-2.02-6.74c-.51-1.81-1.43-2.74-3.51-2.74h-2.76c.25.32.95,1.58,1.35,2.76Z"/>
    <path class="cls-8" d="M194.6,53.16c0-1.26.86-2.11,2.17-2.11s2.19.84,2.19,2.11-.86,1.92-2.19,1.92c-1.3,0-2.17-.7-2.17-1.92ZM196.77,47.56c-4.31,0-6.9,2.08-6.9,5.6s2.59,5.5,6.9,5.5,6.9-2.04,6.9-5.5c0-3.52-2.55-5.6-6.9-5.6Z"/>
    <path class="cls-8" d="M222.46,51.75v-4.02c0-1.77-1.11-3.07-2.78-3.07h-2.61c.32.4.42,1.87.42,3.22v10.49h4.97v-4.55l1.35,2.67c.63,1.11,1.49,1.87,2.95,1.87h3.58c-.46-.38-.78-.91-1.11-1.52-.55-.99-1.68-3.71-2.95-4.27,1.75-.32,3.7-2.08,3.7-4.55-.21.08-.86.4-1.62.4-.65,0-1.05-.21-2.06-.21-1.85,0-3.43,2.53-3.83,3.54Z"/>
    <path class="cls-8" d="M216.2,48.09c.02,2-1.26,3.92-2.63,3.92-.95,0-1.26-.17-2-.17-.63,0-1.16.27-1.45.69v5.83h-4.97v-10.53h4.97v2.02c.53-1.22,1.81-2.17,2.93-2.17,1.52,0,1.83.74,3.15.4Z"/>
  </g>
</svg>