<?xml version="1.0" encoding="UTF-8"?>
<svg id="Layer_1" data-name="Layer 1" xmlns="http://www.w3.org/2000/svg" viewBox="0 0 20 20">
  <defs>
    <style>
      .cls-1 {
        fill: #0027a0;
        stroke-width: 0px;
      }
    </style>
  </defs>
  <path class="cls-1" d="M19,0H1C.45,0,0,.45,0,1v18c0,.55.45,1,1,1h18c.55,0,1-.45,1-1V1c0-.55-.45-1-1-1ZM15.72,8.72h0c-.11.01-.22.02-.33.02-1.21,0-2.33-.61-2.99-1.61v5.49c0,2.24-1.82,4.06-4.06,4.06s-4.06-1.82-4.06-4.06c0-2.24,1.82-4.06,4.06-4.06h0c.08,0,.17,0,.25.01v2c-1.13-.14-2.16.67-2.3,1.8s.67,2.16,1.8,2.3c.08,0,.16.01.25.01,1.16.02,2.12-.89,2.16-2.05l.02-9.33h1.91c.18,1.72,1.56,3.06,3.28,3.18v2.23h0Z"/>
</svg>