<?xml version="1.0" encoding="UTF-8"?>
<svg id="Layer_1" data-name="Layer 1" xmlns="http://www.w3.org/2000/svg" viewBox="0 0 24 24">
  <defs>
    <style>
      .cls-1 {
        fill: none;
      }

      .cls-1, .cls-2 {
        stroke-width: 0px;
      }

      .cls-2 {
        fill: #0027a0;
      }
    </style>
  </defs>
  <path class="cls-1" d="M0,24V0h24v24H0Z"/>
  <path class="cls-2" d="M8,3c-2.76,0-5,2.24-5,5v8c0,2.76,2.24,5,5,5h8c2.76,0,5-2.24,5-5v-8c0-2.76-2.24-5-5-5h-8ZM18,5c.55,0,1,.45,1,1s-.45,1-1,1-1-.45-1-1,.45-1,1-1ZM12,7c2.76,0,5,2.24,5,5s-2.24,5-5,5-5-2.24-5-5,2.24-5,5-5ZM12,9c-1.66,0-3,1.34-3,3s1.34,3,3,3,3-1.34,3-3-1.34-3-3-3Z"/>
</svg>