<?xml version="1.0" encoding="UTF-8"?>
<svg id="Layer_1" data-name="Layer 1" xmlns="http://www.w3.org/2000/svg" xmlns:xlink="http://www.w3.org/1999/xlink" viewBox="0 0 414.15 442.99">
  <defs>
    <style>
      .cls-1 {
        opacity: .2;
      }

      .cls-1, .cls-2, .cls-3, .cls-4, .cls-5, .cls-6, .cls-7, .cls-8, .cls-9, .cls-10, .cls-11 {
        stroke-width: 0px;
      }

      .cls-1, .cls-5, .cls-12, .cls-11 {
        fill: #fff;
      }

      .cls-13 {
        clip-path: url(#clippath);
      }

      .cls-2, .cls-14, .cls-15, .cls-16 {
        fill: none;
      }

      .cls-3, .cls-10 {
        fill: #263238;
      }

      .cls-4, .cls-17 {
        fill: #0027a0;
      }

      .cls-18 {
        fill: #ffeee0;
      }

      .cls-18, .cls-14, .cls-15, .cls-19, .cls-16, .cls-17 {
        stroke-linecap: round;
        stroke-linejoin: round;
      }

      .cls-18, .cls-15, .cls-19, .cls-16, .cls-17 {
        stroke: #263238;
      }

      .cls-5 {
        opacity: .7;
      }

      .cls-5, .cls-7, .cls-8, .cls-10 {
        isolation: isolate;
      }

      .cls-14 {
        stroke: #fff;
      }

      .cls-6, .cls-7 {
        fill: #000;
      }

      .cls-15 {
        stroke-width: 1px;
      }

      .cls-7, .cls-8, .cls-20 {
        opacity: .3;
      }

      .cls-19, .cls-9 {
        fill: #ff8a00;
      }

      .cls-12 {
        font-family: MyriadPro-Regular, 'Myriad Pro';
        font-size: 14px;
      }

      .cls-8 {
        fill: rgba(0, 0, 0, .7);
      }

      .cls-21 {
        opacity: .4;
      }

      .cls-10 {
        opacity: .5;
      }
    </style>
    <clipPath id="clippath">
      <rect class="cls-2" x="155.22" y="42.04" width="238.13" height="232.2" rx="6.95" ry="6.95"/>
    </clipPath>
  </defs>
  <g id="freepik--background-simple--inject-290">
    <path class="cls-5" d="M35.39,137.97s-27.88,72,11.3,144.5,119.88,110.8,184.47,143.55c64.59,32.75,131.66,16.8,163.53-36.84s-11.84-91.93-11.9-168.42,11.45-96.74-30-161.36S209.73-19.53,132.89,28.4s-97.5,109.57-97.5,109.57Z"/>
    <path class="cls-4" d="M2.57,254.24c-4.68-21.59-2.66-44.1,5.79-64.51,11.55-28.55,36.36-48.85,64.17-60.68,40.4-17.17,80.07-17.54,112.93-51.25,10.13-10.4,18.64-22.31,29-32.5,30.52-30,75.2-26.39,108.55-2.57,69.59,49.69,94.62,148.1,90.75,229.46-1.74,36.51-19.17,70.5-46.76,94.45-62.4,54.18-168.36,45.07-240,16.79C73.46,362.34,15.12,313.14,2.57,254.24Z"/>
    <path class="cls-1" d="M2.46,254.04c-4.68-21.59-2.66-44.1,5.79-64.51,11.55-28.55,36.36-48.85,64.17-60.68,40.4-17.17,80.07-17.54,112.93-51.25,10.13-10.4,18.64-22.31,29-32.5,30.52-30,75.2-26.39,108.55-2.57,69.59,49.69,94.62,148.1,90.75,229.46-1.74,36.51-19.17,70.5-46.76,94.45-62.4,54.18-168.36,45.07-240,16.79C73.35,362.14,15.01,312.94,2.46,254.04Z"/>
  </g>
  <g id="freepik--Icons--inject-290">
    <path class="cls-16" d="M264.97,368.68c0,4.08-.98,8.09-2.88,11.7h-5.43c-.16,0-.32.02-.48.05-.97.22-1.66,1.09-1.66,2.09v6.58c-11.28,8.14-27.03,5.59-35.17-5.69-8.14-11.28-5.59-27.03,5.69-35.17,11.28-8.14,27.03-5.59,35.17,5.69,3.1,4.29,4.76,9.45,4.76,14.75h0Z"/>
    <path class="cls-16" d="M245.93,377.96c3.5.43,6.94,1.26,10.25,2.47-.97.22-1.66,1.09-1.66,2.09v6.58c-11.23,8.1-26.9,5.62-35.06-5.57.14-.25.29-.5.45-.75.94-1.53,6.61-4,14.65-4.84.51-1.27.67-2.65.46-4,0-.23-.06-.44-.09-.65-.45-.39-.83-.86-1.11-1.39-.41-1.03-.75-2.09-1-3.17.02.24-.04.48-.16.68-.59.55-1.13-.4-1.21-1.23s-1.11-2.28-1.35-3.1c-.16-.76.11-1.55.71-2.05.2-.09.43-.07.61.06-.36-1.44-.47-2.94-.34-4.42.12-1.84,1.04-3.54,2.52-4.65,0,0,1-2.89,6.61-2.87,6.09,0,6.7,3.32,6.7,3.32,0,0,3.15,2.1,1.91,8.61.16-.12.39-.14.57-.05.6.5.88,1.29.71,2.05-.23.82-1.27,2.26-1.35,3.1s-.62,1.78-1.21,1.23c-.07-.09-.11-.2-.12-.31-.25,1.07-.58,2.11-1,3.13-.3.59-.73,1.1-1.25,1.5-.12.88-.09,1.78.1,2.65.11.56.34,1.1.66,1.58Z"/>
    <rect class="cls-16" x="254.52" y="380.38" width="12.29" height="12.29" rx="2.14" ry="2.14"/>
    <polygon class="cls-3" points="263.72 385.82 261.36 385.82 261.36 383.46 259.96 383.46 259.96 385.82 257.6 385.82 257.6 387.22 259.96 387.22 259.96 389.58 261.36 389.58 261.36 387.22 263.72 387.22 263.72 385.82"/>
    <path class="cls-16" d="M107.95,165.97c0,5.66-1.37,11.25-4,16.26h-8.4c-1.18,0-2.14.96-2.14,2.14v10c-15.68,11.3-37.56,7.75-48.86-7.94s-7.75-37.56,7.94-48.86c15.68-11.3,37.56-7.75,48.86,7.94,4.29,5.96,6.6,13.11,6.6,20.46Z"/>
    <rect class="cls-15" x="48.67" y="149.04" width="48.49" height="33.89" rx="2.77" ry="2.77" transform="translate(-30.36 16.98) rotate(-11.01)"/>
    <path class="cls-16" d="M46.62,157.75l22.84,12.42c2.8,1.52,6.29.84,8.32-1.62l16.48-20.06"/>
    <line class="cls-16" x1="55.32" y1="183.99" x2="69.42" y2="170.17"/>
    <line class="cls-16" x1="95.77" y1="176.12" x2="77.74" y2="168.55"/>
    <rect class="cls-16" x="93.41" y="182.23" width="17.09" height="17.09" rx="2.14" ry="2.14"/>
    <polygon class="cls-3" points="106.21 189.81 102.93 189.81 102.93 186.53 100.99 186.53 100.99 189.81 97.71 189.81 97.71 191.75 100.99 191.75 100.99 195.03 102.93 195.03 102.93 191.75 106.21 191.75 106.21 189.81"/>
    <path class="cls-16" d="M383.1,306.18h-31.8l.62-1c2.69-4.44,4.06-9.56,3.94-14.75v-.06c.05-6.26,5.16-11.3,11.42-11.25,6.26.05,11.3,5.16,11.26,11.42h0c-.2,5.04,1.09,10.03,3.71,14.34l.85,1.3Z"/>
    <path class="cls-16" d="M364.63,278.81c-1.42-1.42-1.42-3.73,0-5.15s3.73-1.42,5.15,0c1.42,1.42,1.42,3.72,0,5.15"/>
    <rect class="cls-16" x="349.14" y="306.19" width="36.13" height="3.26" rx="1.35" ry="1.35"/>
    <circle class="cls-16" cx="367.2" cy="314.93" r="2.78"/>
    <path class="cls-16" d="M397.6,297.56c0,4.92-1.18,9.76-3.46,14.12h-7c-1.18,0-2.14.96-2.14,2.14h0v8.4c-13.62,9.83-32.63,6.76-42.46-6.86-9.83-13.62-6.76-32.63,6.86-42.46,13.62-9.83,32.63-6.76,42.46,6.86,3.74,5.18,5.75,11.41,5.75,17.8h0Z"/>
    <rect class="cls-16" x="384.99" y="311.68" width="14.83" height="14.83" rx="2.14" ry="2.14"/>
    <polygon class="cls-3" points="396.09 318.26 393.25 318.26 393.25 315.41 391.57 315.41 391.57 318.26 388.72 318.26 388.72 319.94 391.57 319.94 391.57 322.78 393.25 322.78 393.25 319.94 396.09 319.94 396.09 318.26"/>
  </g>
  <g id="freepik--Window--inject-290">
    <path class="cls-11" d="M162.17,42.04h224.23c3.84,0,6.95,3.16,6.95,7.06v221.86c0,3.9-3.11,7.06-6.95,7.06h-224.23c-3.84,0-6.95-3.16-6.95-7.06V49.11c0-3.9,3.11-7.06,6.95-7.06Z"/>
    <g class="cls-13">
      <g>
        <path class="cls-10" d="M330.15,145.27h-117.86c-1.66,0-3-1.34-3-3h0c0-1.66,1.34-3,3-3h117.86c1.66,0,3,1.34,3,3h0c0,1.66-1.34,3-3,3Z"/>
        <g class="cls-21">
          <path class="cls-6" d="M322.46,205.34h-101.05c-.65,0-1.18-.53-1.18-1.18,0,0,0,0,0-.01h0c0-.65.53-1.18,1.18-1.18h101.05c.65,0,1.18.52,1.19,1.17,0,0,0,0,0,.01h0c0,.66-.53,1.19-1.19,1.19h0Z"/>
          <path class="cls-6" d="M312.46,211.68h-81.05c-.65,0-1.18-.53-1.18-1.18,0,0,0,0,0-.01h0c0-.65.53-1.18,1.18-1.18h81.05c.65,0,1.18.52,1.19,1.17,0,0,0,0,0,.01h0c0,.66-.53,1.19-1.19,1.19Z"/>
        </g>
        <path class="cls-7" d="M372.73,53.32c0,2.7-2.18,4.88-4.88,4.88s-4.88-2.18-4.88-4.88,2.18-4.88,4.88-4.88,4.88,2.18,4.88,4.88h0Z"/>
        <path class="cls-7" d="M358.73,53.32c0,2.7-2.18,4.88-4.88,4.88s-4.88-2.18-4.88-4.88,2.18-4.88,4.88-4.88,4.88,2.18,4.88,4.88h0Z"/>
        <path class="cls-8" d="M261.92,257.4s6.26,1.15,6.48,5.01c.48,8.31.46,8.57-6.42,7.83,0,0-4.16,4.84-14.24,3.45l-3.45,4.39h-17.83c4.95-5.01,8.93-9.16,10.67-11.13,6.39-7.22,36.25-17.86,36.25-17.86,0,0-.12,2.76-11.46,8.3Z"/>
        <g>
          <path class="cls-17" d="M299.18,254.65h-55.2c-7.18,0-13-5.82-13-13h0c0-7.18,5.82-13,13-13h55.2c7.18,0,13,5.82,13,13h0c0,7.18-5.82,13-13,13h0Z"/>
          <text class="cls-12" transform="translate(251.91 246.57)"><tspan x="0" y="0">SHARE</tspan></text>
        </g>
        <g class="cls-21">
          <path class="cls-6" d="M323.61,191.14h-101.05c-.65,0-1.18-.53-1.18-1.18,0,0,0,0,0-.01h0c0-.65.53-1.18,1.18-1.18h101.05c.65,0,1.18.52,1.19,1.17,0,0,0,0,0,.01h0c0,.66-.53,1.19-1.19,1.19h0Z"/>
          <path class="cls-6" d="M322.86,197.48h-100.09c-.8,0-1.46-.53-1.46-1.18,0,0,0,0,0-.01h0c0-.65.65-1.18,1.46-1.18h100.09c.8,0,1.46.52,1.47,1.17,0,0,0,0,0,.01h0c0,.66-.66,1.19-1.47,1.19Z"/>
        </g>
        <g class="cls-21">
          <path class="cls-6" d="M323.43,175.44h-101.05c-.65,0-1.18-.53-1.18-1.18,0,0,0,0,0-.01h0c0-.65.53-1.18,1.18-1.18h101.05c.65,0,1.18.52,1.19,1.17,0,0,0,0,0,.01h0c0,.66-.53,1.19-1.19,1.19h0Z"/>
          <path class="cls-6" d="M322.67,181.78h-100.09c-.8,0-1.46-.53-1.46-1.18,0,0,0,0,0-.01h0c0-.65.65-1.18,1.46-1.18h100.09c.8,0,1.46.52,1.47,1.17,0,0,0,0,0,.01h0c0,.66-.66,1.19-1.47,1.19Z"/>
        </g>
      </g>
    </g>
    <path class="cls-16" d="M162.17,42.04h224.23c3.84,0,6.95,3.16,6.95,7.06v221.86c0,3.9-3.11,7.06-6.95,7.06h-224.23c-3.84,0-6.95-3.16-6.95-7.06V49.11c0-3.9,3.11-7.06,6.95-7.06Z"/>
  </g>
  <g id="freepik--Character--inject-290">
    <path class="cls-18" d="M32.67,422.02s1.76-12.81,3.07-18.09,9-25.71,10.67-37.15l-19.74-15.73s-7.44,38.37-7.44,44.39l-4.07,13.11"/>
    <path class="cls-9" d="M52.24,381.25c-4.13-3.15-8.2-6.48-12.22-10-5.81-5-11.47-10.44-16.91-16.15,1.32-6.38,2.95-12.69,4.9-18.91,1.86-5.85,5.82-10.8,11.12-13.89l.2-.12.93-.52c.58-.31,1.14-.59,1.68-.83,1.78-.82,3.64-1.43,5.56-1.82l4.25,55.87.49,6.37Z"/>
    <path class="cls-16" d="M52.24,381.25c-4.13-3.15-8.2-6.48-12.22-10-5.81-5-11.47-10.44-16.91-16.15,1.32-6.38,2.95-12.69,4.9-18.91,1.86-5.85,5.82-10.8,11.12-13.89l.2-.12.93-.52c.58-.31,1.14-.59,1.68-.83,1.78-.82,3.64-1.43,5.56-1.82l4.25,55.87.49,6.37Z"/>
    <path class="cls-16" d="M31.67,350.2s2.3,15.63,12.86,21.59"/>
    <path class="cls-9" d="M137.54,362.88c0,8-6.51,40.36-6.51,40.36l-.22,28.43s-13.47,4.47-35.21,4.47c-26.64,0-38.44-7.13-39.48-7.8l-.08-.05,4-19.71s-21-49.56-21.41-51.26c-.65-2.52-1.21-5.07-1.66-7.61-1.17-5.87-1.48-11.87-.91-17.83.31-3.36,1.3-6.63,2.91-9.6.11-.2.23-.4.36-.6.54-.87,1.18-1.69,1.89-2.43l.19-.2c.66-.66,1.36-1.27,2.11-1.83h0c.25-.19.51-.37.77-.55l.65-.44.42-.27.55-.34.85-.49c15.79-8.75,45.18-7.4,45.18-7.4.32-.11.66-.17,1-.19h.07c.59-.03,1.18.01,1.75.14,7.32,1.42,20.72,13.37,30.59,27,2.96,4.02,5.58,8.29,7.82,12.76,2.7,5.44,4.37,10.8,4.37,15.44Z"/>
    <path class="cls-8" d="M137.36,360.14c-5.3-1.65-10.31-4.13-14.83-7.35-7.09,1.33-13.93-5.73-15.71-9.51l23.26-1.5c1.13,1.86,2.15,3.73,3.06,5.58,2.09,4,3.52,8.32,4.22,12.78Z"/>
    <path class="cls-8" d="M64.77,413.64s5.23,22.38-8.65,14.67l-.08-.05,4-19.71s-21-49.56-21.41-51.26c-.65-2.52-1.21-5.07-1.66-7.61-1.17-5.86-1.47-11.85-.91-17.8.31-3.36,1.3-6.63,2.91-9.6.11-.2.23-.4.36-.6.54-.87,1.18-1.69,1.89-2.43l.19-.2c.66-.66,1.36-1.27,2.11-1.83h0c.25-.19.51-.37.77-.55l.65-.44.42-.27.55-.34.85-.49c14.53,1.12,30.68,8,33.8,22.12,0,0-1.32,21.63-6.07,29.54-2.95,4.93-3.95,27.95,10.64,21.29-4.56,22.98-20.36,25.56-20.36,25.56Z"/>
    <path class="cls-16" d="M56.04,428.26l4-19.71s-21-49.56-21.41-51.26c-.65-2.52-1.21-5.07-1.66-7.61-1.17-5.86-1.47-11.85-.91-17.8.31-3.36,1.3-6.63,2.91-9.6.11-.2.23-.4.36-.6.54-.87,1.18-1.69,1.89-2.43l.19-.2c.66-.66,1.36-1.27,2.11-1.83h0c14.56-11,48.42-9.49,48.42-9.49.32-.11.66-.17,1-.19h.07c.59-.03,1.18.01,1.75.14,7.32,1.42,20.72,13.37,30.59,27,2.96,4.02,5.58,8.29,7.82,12.76,2.73,5.53,4.4,10.88,4.4,15.49,0,8-6.51,40.36-6.51,40.36l-.22,28.43"/>
    <path class="cls-18" d="M106.6,262.44c-1.19-1.48-6.5-5-6.5-5-1-6.91-1.62-16.13-8.78-23.28-9.79-9.77-32.38-6.68-39.78,7.89-14.77,29.11,13.15,56.53,47.32,50.73,2.91-.49,4.87-3.34,5.27-16.87l.91-1.89s-.94-3.23-1.23-4.85c1.72-1.66,3.65-5.65,2.79-6.73Z"/>
    <path class="cls-16" d="M98.2,246.63c-.88,1.43-1.55,2.97-2,4.58"/>
    <path class="cls-16" d="M104.73,274.7s-.93,1.5-4.8,1.06"/>
    <path class="cls-3" d="M94.58,230.38s9-3.71,6.4,13.89c-2.6,17.6-15.61,38.53-26.58,34.61l.19-1.57s9.6,3.79,17.68-12.9,7.41-32,2.79-29.31l-.48-4.72Z"/>
    <path class="cls-3" d="M93.77,257.66s-3.44,9.07-6.19,12c0,0-1.11-3.47-3.76-3.5s-5-7.08-5-7.08l14.95-1.42Z"/>
    <path class="cls-3" d="M90.07,258.08s-6.32,15.41-1.69,27.31,17.68,20.84,17.68,20.84l-4.21-1.91s-11.08-7.29-14.95-19.91c-2.27-8-2.33-16.48-.16-24.51l3.33-1.82Z"/>
    <path class="cls-3" d="M37.99,237.57s-10.53,4.31-9.96,19.92,11.27,29.18,13.42,49.08c1.87,17.31-17,32.55,2.11,52.78,0,0-8.37-13-5.82-27.54s11.3-12.45,4.81-36.12-20.26-37.67-6-52.76l1.44-5.36Z"/>
    <path class="cls-3" d="M99.39,302.23c-19.26-10.74-14-33.67-14-33.67,14.49-10.68,16.42-30.68,13.76-35.83s-8.46-3.39-8.46-3.39c-23.09-11-51.51-.73-56.91,15.44-6.91,20.71,4.9,36.62,10.67,54,5.18,15.62-6.82,18.45-6.78,34-2.27,29,27.47,41.11,27.47,41.11-1.59-.96-2.57-2.68-2.57-4.54,0-3.17,8.11-3.17,13.45-12.1,4.43-7.41,4.78-25.48,6.26-34.22,2-7.91,4.5-14.23,9.67-15.38,13.62-3.05,25.37,10.17,25.37,10.17,0,0,1.34-4.85-17.93-15.59Z"/>
    <g class="cls-20">
      <path class="cls-14" d="M93.77,232.51c2.1,3.69-13.66,23.21-19.37,40.08s.1,26.76.1,26.76"/>
      <path class="cls-14" d="M58.46,237.57s-17.15,14.77-7.39,41.78c9.76,27.01,5.44,45.63,2.19,60.19s-.61,19.56,3.35,23.52"/>
      <path class="cls-14" d="M80.04,282.15s9.2,10.36,2.89,25.33-9.74,25.67-12.12,37.32-7.65,14.55-7.65,14.55"/>
      <path class="cls-14" d="M80.57,230.05s-9.49-.44-14,11.69c-4.51,12.13-.26,33.09-1.84,40.41"/>
      <path class="cls-14" d="M56.04,230.05s-13.92.58-18.36,19.83,8.93,35.43,10.35,50.43-7,28.89-6.49,39.23,6.49,15.8,6.49,15.8"/>
    </g>
    <path class="cls-18" d="M143.08,309.24s30.46,2.27,34.81,2.27,44.7-40,51.82-47.87,38-17.76,38-17.76c0,0-.39,3.27-12.26,8.73,0,0,6.11,1.9,5.93,6.46-.39,9.81-.44,10.11-7.22,8.62,0,0-4.65,5.33-14.54,2.8,0,0-23.73,29.52-34.22,43s-14.83,18-18.79,19.47-52.22,4.61-52.22,4.61l8.69-30.33Z"/>
    <path class="cls-19" d="M104.73,345.13c15.8,9.89,42.3-2.37,42.3-2.37,0,0,4.75-21.52,0-35.29,0,0-33.23-6.47-51.43-.23-1.92.72-3.44,2.22-4.19,4.13"/>
    <path class="cls-16" d="M142.83,306.75c2.65,11.08,2.87,22.59.64,33.76"/>
    <path class="cls-16" d="M137.54,320.59s-11,17.94-25.06,20.58"/>
    <path class="cls-16" d="M127.31,348.45s-7.31,8.67-16.28,8.67"/>
    <path class="cls-16" d="M120.27,348.99c.69,1.7.69,3.59,0,5.29h0s1.24,5.21-1.1,12.72c-1.72,5.54-1.64,21.25-2.44,32.3,0,0,2.54,13.33,2.44,33.37"/>
    <path class="cls-16" d="M103.36,305.41s13.61-.9,21.65,8.59"/>
    <path class="cls-16" d="M258.89,263.76s-2,3.46-4.35,4.25c0,0-.18,3.61-6.22,4.82"/>
    <path class="cls-16" d="M257.22,266.03c.57.33,1,.86,1.22,1.49"/>
    <path class="cls-16" d="M60,408.55s14.06,18.33,27.46,11.74"/>
    <path class="cls-16" d="M95.6,370.59s-9.49,29.13-30.85,27.81"/>
  </g>
  <g>
    <path class="cls-4" d="M315.11,114.61c0-1.46,1-2.43,2.51-2.43s2.53.97,2.53,2.43-1,2.22-2.53,2.22-2.51-.8-2.51-2.22ZM317.62,108.13c-4.99,0-7.98,2.41-7.98,6.48s2.99,6.36,7.98,6.36,7.98-2.36,7.98-6.36c0-4.07-2.94-6.48-7.98-6.48h0Z"/>
    <path class="cls-4" d="M264.65,113.75l2.36-5.19,1.41,4.41c-.1.12-.37.39-.75.39-.24,0-.9-.15-1.41-.15-.46,0-1.12.15-1.61.54ZM273.66,120.52h3.48c-.49-.56-.95-1.7-1.24-2.56l-3.67-10.98c-.58-1.78-1.87-3.51-4.65-3.51h-3.99c.1.34.15.75.15,1.22,0,.73-.37,1.53-.61,2.22-1.17,3.14-5.26,7.89-5.26,10.74,0,1.56.8,2.87,2.34,2.87h3.46c-.26-.46-.39-.98-.39-1.51,0-.56.34-1.46.46-1.68.34-.17.73-.37,1.27-.37s1.63.39,2.53.39,1.51-.71,1.68-.9l.73,1.92c.78,2.02,2.19,2.14,3.72,2.14h0Z"/>
    <path class="cls-4" d="M309.31,108.64c.02,2.31-1.45,4.53-3.04,4.53-1.1,0-1.46-.19-2.31-.19-.73,0-1.34.32-1.68.8v6.74h-5.74v-12.17h5.74v2.34c.61-1.41,2.09-2.51,3.38-2.51,1.75,0,2.11.85,3.65.46Z"/>
    <path class="cls-4" d="M342.26,118.37v-4.53c0-3.73-2.85-5.75-6.55-5.75-3.38,0-5.47,1.22-7.08.56.22,2.43.8,3.56,2.38,3.56,1.22,0,2.43-.54,3.5-.54,1.29,0,2.24.9,2.24,2.07v.22c-.75-.51-2.63-1.05-4.43-1.05-2.41,0-5.38,1.12-5.38,4.14s2.97,3.85,5.38,3.85c1.8,0,3.53-.61,4.53-1.78.39,1.17,1.05,1.39,3.46,1.39h2.43c-.32-.59-.49-1.22-.49-2.14ZM336.66,117.01v.07c-.66.73-1.75.9-2.53.9s-1.68-.1-1.68-.9c0-.75.9-1.02,1.68-1.02s1.87.2,2.53.95Z"/>
    <path class="cls-4" d="M360.6,118.37v-13.61h-5.79v4.97c-.92-1.02-2.8-1.63-4.53-1.63-3.67,0-6.28,2.43-6.28,6.55s2.6,6.26,6.28,6.26c1.73,0,3.6-.39,4.77-1.78.41,1.17,1,1.39,3.58,1.39h2.43c-.34-.59-.46-1.22-.46-2.14ZM354.81,113.6v2.12c-.92,1.05-1.95,1.34-2.73,1.34-1.8,0-2.53-.95-2.53-2.36s.73-2.43,2.53-2.43c.78,0,1.8.47,2.73,1.34Z"/>
    <path class="cls-4" d="M278.12,104.67c.37.46.49,2.17.49,3.73v12.13h5.74v-1.39c1.12,1.39,2.7,1.78,4.5,1.78,3.5,0,5.94-2.31,5.94-6.26s-2.41-6.55-5.82-6.55c-2.04,0-3.6.85-4.62,2.07v-1.95c0-2.05-1.29-3.55-3.21-3.55h-3.02ZM287.02,117.02c-.97,0-1.97-.29-2.68-1.34v-1.97c.71-1.02,1.7-1.49,2.68-1.49,1.48,0,2.56,1.02,2.56,2.43s-1.07,2.36-2.56,2.36h0Z"/>
    <path class="cls-9" d="M184.16,106.66l3.38,10.18c1.1,3.26,2.87,3.68,4.28,3.68h3.38c-.22-.95.27-2.9.56-3.65l.98-2.48,1,2.46c1.22,3,2.75,3.68,4.14,3.68h3.67c-.1-.87-.1-1.7.15-2.53,1.19-3.97,4.5-7.48,4.5-10.88,0-2.34-.9-3.63-3.04-3.63h-3.38c.29.37.56,1.29.56,2.68.02,2.7-1.61,5.65-2.48,8.28l-1.97-6.43c-.68-1.9-1.7-3.24-3.24-3.24h-2.63c.15.37.39,1.24.39,2.07,0,1.36-.27,2.85-.8,4.16l-1.41,3.43-2.34-7.79c-.58-2.09-1.65-3.17-4.06-3.17h-3.19c.29.37,1.1,1.83,1.56,3.19Z"/>
    <path class="cls-9" d="M215.61,114.51c0-1.46,1-2.43,2.51-2.43s2.53.97,2.53,2.43-1,2.22-2.53,2.22c-1.51,0-2.51-.8-2.51-2.22ZM218.11,108.03c-4.99,0-7.98,2.41-7.98,6.48s2.99,6.36,7.98,6.36,7.98-2.36,7.98-6.36c0-4.07-2.94-6.48-7.98-6.48Z"/>
    <path class="cls-9" d="M247.82,112.87v-4.65c0-2.05-1.29-3.55-3.21-3.55h-3.02c.37.46.49,2.17.49,3.72v12.13h5.74v-5.26l1.56,3.09c.73,1.29,1.73,2.17,3.41,2.17h4.14c-.54-.44-.9-1.05-1.29-1.75-.63-1.14-1.95-4.29-3.41-4.94,2.02-.37,4.28-2.41,4.28-5.26-.24.1-1,.46-1.87.46-.75,0-1.22-.24-2.38-.24-2.14,0-3.97,2.93-4.43,4.09Z"/>
    <path class="cls-9" d="M240.59,108.64c.02,2.31-1.45,4.53-3.04,4.53-1.09,0-1.46-.19-2.31-.19-.73,0-1.34.32-1.68.8v6.74h-5.74v-12.17h5.74v2.34c.61-1.41,2.09-2.51,3.38-2.51,1.75,0,2.11.85,3.64.46Z"/>
  </g>
</svg>