<?xml version="1.0" encoding="utf-8"?>
<!-- Generator: Adobe Illustrator 23.0.6, SVG Export Plug-In . SVG Version: 6.00 Build 0)  -->
<svg version="1.1" id="Layer_1" xmlns="http://www.w3.org/2000/svg" xmlns:xlink="http://www.w3.org/1999/xlink" x="0px" y="0px"
	 viewBox="0 0 50 50" style="enable-background:new 0 0 50 50;" xml:space="preserve">
<style type="text/css">
	.st0{fill:none;}
	.st1{fill:#FFFFFF;}
</style>
<path class="st0" d="M0,50V0h50v50H0z"/>
<g>
	<g id="surface1">
		<path class="st1" d="M2,9v20h11v2c0,2-0.6,3.8-1.6,5.1C10.5,37.3,9.3,38,8,38H7v7h1c7.7,0,14-6.3,14-14V9H2z M28,9v20h11v2
			c0,2-0.6,3.8-1.6,5.1C36.5,37.3,35.3,38,34,38h-1v7h1c7.7,0,14-6.3,14-14V9H28z M4,11h16v20c0,6.3-4.9,11.3-11,11.8v-3.1
			c1.6-0.3,3-1.1,4-2.5c1.2-1.6,2-3.8,2-6.3v-4H4V11z M30,11h16v20c0,6.3-4.9,11.3-11,11.8v-3.1c1.6-0.3,3-1.1,4-2.5
			c1.2-1.6,2-3.8,2-6.3v-4H30V11z"/>
	</g>
</g>
</svg>
