<?xml version="1.0" encoding="UTF-8"?>
<svg id="Layer_1" data-name="Layer 1" xmlns="http://www.w3.org/2000/svg" viewBox="0 0 25.97 25.41" width="25" height="25">
  <defs>
    <style>
      .cls-1 {
        fill: #fff;
        stroke: #000;
        stroke-miterlimit: 10;
      }

      .cls-2 {
        fill: none;
        stroke-width: 0px;
      }
    </style>
  </defs>
  <path class="cls-2" d="M.5,25V0h25v25H.5Z"/>
  <g id="surface1">
    <path class="cls-1" d="M5.22,4.78s-.08.02-.12.03c-.45.1-.76.5-.75.96v1.92h-.96c-.58,0-.96.38-.96.96v5.77h-.96c-.29,0-.47.11-.66.3s-.31.38-.31.66v1.53c0,.83,1.18,2.11,2.82,3.04-.67.24-1.36.33-1.86.33-.38,0-.67,0-.96-.09v1.74c.29,0,.58.09.96.09,1.63,0,2.31-.39,2.88-.87.86.67,2.11.87,2.88.87s2.02-.2,2.88-.87c.86.67,2.11.87,2.88.87s2.02-.2,2.88-.87c.86.67,2.11.87,2.88.87s2.02-.2,2.88-.87c.86.67,2.11.87,2.88.87.38,0,.67-.11.96-.21v-1.71c-.29.1-.58.18-.96.18-.77,0-2.02-.2-2.88-.87-.25.2-.55.33-.84.45,3.59-2.5,4.43-7.8,4.51-8.02.19-.29.19-.58,0-.87-.19-.19-.49-.39-.78-.39h-4.81c-.67,0-.97.29-1.26.48-.48.48-1.42,3.37-3.64,3.37h-6.64v-3.46l.66-.69c.19-.19.3-.37.3-.66v-.96c0-.58-.38-.96-.96-.96h-1.92v-1.92c.01-.28-.1-.54-.3-.73-.2-.19-.48-.29-.75-.26h.03,0ZM19.91,13.46c.29,0,.39.18.39.18v.39s0,.21.39.21c.29,0,.39-.21.39-.21v-.39s0-.18.39-.18c.29,0,.36.18.36.18,0,0-.18.5-.18.69,0,.48-.48.48-.48.48h-1.05s-.57,0-.57-.48v-.69s-.02-.18.36-.18ZM4.35,22.3c-.86.67-2.11.87-2.88.87-.38,0-.67,0-.96-.09v1.74c.29,0,.58.09.96.09,1.63,0,2.31-.39,2.88-.87.86.67,2.11.87,2.88.87s2.02-.2,2.88-.87c.86.67,2.11.87,2.88.87s2.02-.2,2.88-.87c.86.67,2.11.87,2.88.87s2.02-.2,2.88-.87c.86.67,2.11.87,2.88.87.38,0,.67-.11.96-.21v-1.71c-.29.1-.58.18-.96.18-.77,0-2.02-.2-2.88-.87-.86.67-2.11.87-2.88.87s-2.02-.2-2.88-.87c-.86.67-2.11.87-2.88.87s-2.02-.2-2.88-.87c-.86.67-2.11.87-2.88.87s-2.02-.2-2.88-.87Z"/>
  </g>
</svg>